<?xml version="1.0" encoding="UTF-8"?>
<svg version="1.1" xmlns="http://www.w3.org/2000/svg" width="1677" height="815">
<path d="M0 0 C553.41 0 1106.82 0 1677 0 C1677 268.95 1677 537.9 1677 815 C1123.59 815 570.18 815 0 815 C0 546.05 0 277.1 0 0 Z " fill="#FEFEFE" transform="translate(0,0)"/>
<path d="M0 0 C1.91810989 -0.01268921 1.91810989 -0.01268921 3.87496948 -0.02563477 C5.29498418 -0.01980165 6.71499762 -0.01365713 8.13500977 -0.00723267 C9.62810653 -0.01129704 11.12120029 -0.01663817 12.61428833 -0.02316284 C16.67210872 -0.03685831 20.72970071 -0.03152868 24.78752518 -0.02202559 C29.03023147 -0.0144405 33.27291795 -0.02147139 37.515625 -0.02618408 C44.64106769 -0.031645 51.76641716 -0.02444123 58.8918457 -0.01016235 C67.13471288 0.00616484 75.37735745 0.00087656 83.62021923 -0.01564157 C90.69204968 -0.02924688 97.76381304 -0.03118079 104.83565235 -0.02332556 C109.06168581 -0.01864377 113.28761458 -0.01803802 117.51364136 -0.02793503 C121.48635169 -0.03658858 125.4587745 -0.03061255 129.4314537 -0.01325226 C130.89116818 -0.00927875 132.35090678 -0.01043621 133.81061172 -0.01704025 C135.79967649 -0.0252109 137.78879401 -0.01315843 139.77783203 0 C141.44918968 0.00169662 141.44918968 0.00169662 143.15431213 0.00342751 C145.88891602 0.38095093 145.88891602 0.38095093 147.74659729 1.69138145 C149.66279954 4.52557891 149.31526765 7.70180617 149.28735352 11.00595093 C149.29165878 12.12090942 149.29165878 12.12090942 149.29605103 13.25839233 C149.29809078 14.82854983 149.29256702 16.39873279 149.2800293 17.96884155 C149.26397304 20.37241425 149.27987954 22.77430554 149.29907227 25.17782593 C149.29708982 26.70387131 149.2932461 28.22991564 149.28735352 29.75595093 C149.29342621 30.4747644 149.2994989 31.19357788 149.30575562 31.93417358 C149.23621166 36.86727632 149.23621166 36.86727632 147.74659729 39.0705204 C145.06554482 40.96176679 143.0416424 40.75858872 139.77783203 40.76190186 C137.85972214 40.77459106 137.85972214 40.77459106 135.90286255 40.78753662 C134.48284785 40.78170351 133.06283441 40.77555899 131.64282227 40.76913452 C130.1497255 40.7731989 128.65663174 40.77854002 127.1635437 40.7850647 C123.10572331 40.79876017 119.04813132 40.79343053 114.99030685 40.78392744 C110.74760056 40.77634236 106.50491408 40.78337324 102.26220703 40.78808594 C95.13676434 40.79354686 88.01141487 40.78634308 80.88598633 40.77206421 C72.64311916 40.75573702 64.40047458 40.76102529 56.1576128 40.77754343 C49.08578235 40.79114874 42.01401899 40.79308264 34.94217968 40.78522742 C30.71614622 40.78054563 26.49021745 40.77993987 22.26419067 40.78983688 C18.29148034 40.79849044 14.31905753 40.7925144 10.34637833 40.77515411 C8.88666385 40.77118061 7.42692525 40.77233806 5.96722031 40.77894211 C3.97815554 40.78711276 1.98903802 40.77506029 0 40.76190186 C-1.11423843 40.76077078 -2.22847687 40.7596397 -3.3764801 40.75847435 C-6.11108398 40.38095093 -6.11108398 40.38095093 -7.96876526 39.0705204 C-9.88496751 36.23632294 -9.53743562 33.06009569 -9.50952148 29.75595093 C-9.51239166 29.01264526 -9.51526184 28.2693396 -9.51821899 27.50350952 C-9.52025875 25.93335202 -9.51473499 24.36316907 -9.50219727 22.7930603 C-9.48614101 20.38948761 -9.5020475 17.98759632 -9.52124023 15.58407593 C-9.51925779 14.05803055 -9.51541407 12.53198622 -9.50952148 11.00595093 C-9.51863052 9.92773071 -9.51863052 9.92773071 -9.52792358 8.82772827 C-9.45837963 3.89462554 -9.45837963 3.89462554 -7.96876526 1.69138145 C-5.28771279 -0.19986493 -3.26381037 0.00331313 0 0 Z " fill="#ECEEF0" transform="translate(854.111083984375,328.6190490722656)"/>
<path d="M0 0 C1.91810989 -0.01268921 1.91810989 -0.01268921 3.87496948 -0.02563477 C5.29498418 -0.01980165 6.71499762 -0.01365713 8.13500977 -0.00723267 C9.62810653 -0.01129704 11.12120029 -0.01663817 12.61428833 -0.02316284 C16.67210872 -0.03685831 20.72970071 -0.03152868 24.78752518 -0.02202559 C29.03023147 -0.0144405 33.27291795 -0.02147139 37.515625 -0.02618408 C44.64106769 -0.031645 51.76641716 -0.02444123 58.8918457 -0.01016235 C67.13471288 0.00616484 75.37735745 0.00087656 83.62021923 -0.01564157 C90.69204968 -0.02924688 97.76381304 -0.03118079 104.83565235 -0.02332556 C109.06168581 -0.01864377 113.28761458 -0.01803802 117.51364136 -0.02793503 C121.48635169 -0.03658858 125.4587745 -0.03061255 129.4314537 -0.01325226 C130.89116818 -0.00927875 132.35090678 -0.01043621 133.81061172 -0.01704025 C135.79967649 -0.0252109 137.78879401 -0.01315843 139.77783203 0 C141.44918968 0.00169662 141.44918968 0.00169662 143.15431213 0.00342751 C145.88891602 0.38095093 145.88891602 0.38095093 147.74659729 1.69138145 C149.66279954 4.52557891 149.31526765 7.70180617 149.28735352 11.00595093 C149.29165878 12.12090942 149.29165878 12.12090942 149.29605103 13.25839233 C149.29809078 14.82854983 149.29256702 16.39873279 149.2800293 17.96884155 C149.26397304 20.37241425 149.27987954 22.77430554 149.29907227 25.17782593 C149.29708982 26.70387131 149.2932461 28.22991564 149.28735352 29.75595093 C149.29342621 30.4747644 149.2994989 31.19357788 149.30575562 31.93417358 C149.23621166 36.86727632 149.23621166 36.86727632 147.74659729 39.0705204 C145.06554482 40.96176679 143.0416424 40.75858872 139.77783203 40.76190186 C137.85972214 40.77459106 137.85972214 40.77459106 135.90286255 40.78753662 C134.48284785 40.78170351 133.06283441 40.77555899 131.64282227 40.76913452 C130.1497255 40.7731989 128.65663174 40.77854002 127.1635437 40.7850647 C123.10572331 40.79876017 119.04813132 40.79343053 114.99030685 40.78392744 C110.74760056 40.77634236 106.50491408 40.78337324 102.26220703 40.78808594 C95.13676434 40.79354686 88.01141487 40.78634308 80.88598633 40.77206421 C72.64311916 40.75573702 64.40047458 40.76102529 56.1576128 40.77754343 C49.08578235 40.79114874 42.01401899 40.79308264 34.94217968 40.78522742 C30.71614622 40.78054563 26.49021745 40.77993987 22.26419067 40.78983688 C18.29148034 40.79849044 14.31905753 40.7925144 10.34637833 40.77515411 C8.88666385 40.77118061 7.42692525 40.77233806 5.96722031 40.77894211 C3.97815554 40.78711276 1.98903802 40.77506029 0 40.76190186 C-1.11423843 40.76077078 -2.22847687 40.7596397 -3.3764801 40.75847435 C-6.11108398 40.38095093 -6.11108398 40.38095093 -7.96876526 39.0705204 C-9.88496751 36.23632294 -9.53743562 33.06009569 -9.50952148 29.75595093 C-9.51239166 29.01264526 -9.51526184 28.2693396 -9.51821899 27.50350952 C-9.52025875 25.93335202 -9.51473499 24.36316907 -9.50219727 22.7930603 C-9.48614101 20.38948761 -9.5020475 17.98759632 -9.52124023 15.58407593 C-9.51925779 14.05803055 -9.51541407 12.53198622 -9.50952148 11.00595093 C-9.51863052 9.92773071 -9.51863052 9.92773071 -9.52792358 8.82772827 C-9.45837963 3.89462554 -9.45837963 3.89462554 -7.96876526 1.69138145 C-5.28771279 -0.19986493 -3.26381037 0.00331313 0 0 Z " fill="#EFF0F2" transform="translate(678.111083984375,328.6190490722656)"/>
<path d="M0 0 C1.78515625 0.97265625 1.78515625 0.97265625 2.78515625 1.97265625 C3.11515625 0.98265625 3.44515625 -0.00734375 3.78515625 -1.02734375 C7.41515625 -1.02734375 11.04515625 -1.02734375 14.78515625 -1.02734375 C14.88446907 6.47994179 14.95683604 13.98683988 15.00488281 21.49462891 C15.02492497 24.04547798 15.05216618 26.59628152 15.08691406 29.14697266 C15.13575655 32.82596105 15.15820006 36.50433884 15.17578125 40.18359375 C15.19642639 41.31316498 15.21707153 42.44273621 15.23834229 43.60653687 C15.2407234 52.12115126 13.91507472 59.29500205 8.28515625 65.91015625 C7.46015625 66.59078125 6.63515625 67.27140625 5.78515625 67.97265625 C5.16640625 68.52953125 4.54765625 69.08640625 3.91015625 69.66015625 C-2.15452515 73.40598888 -9.26741177 73.89375442 -16.21484375 72.97265625 C-23.53459679 70.54452561 -28.77763586 65.12671297 -33.21484375 58.97265625 C-33.21484375 58.31265625 -33.21484375 57.65265625 -33.21484375 56.97265625 C-26.83641127 53.90610217 -26.83641127 53.90610217 -24.171875 54.19140625 C-21.8738079 55.10879831 -20.82346798 56.22726482 -19.15234375 58.03515625 C-15.25370124 61.51368642 -11.92702707 61.78843963 -6.8125 61.5 C-2.65847062 60.6567008 -0.97789833 59.17198261 1.78515625 55.97265625 C3.38149441 52.55193161 2.85673939 48.69497971 2.78515625 44.97265625 C2.08390625 45.63265625 1.38265625 46.29265625 0.66015625 46.97265625 C-4.63814747 50.46300799 -11.18499985 49.85394113 -17.21484375 48.97265625 C-25.1973007 45.83594667 -29.9685642 41.01313967 -33.46484375 33.28515625 C-36.05298236 26.36291251 -36.37677678 20.19393981 -33.58984375 13.28515625 C-26.61297926 -0.45054571 -14.44589326 -6.91321479 0 0 Z " fill="#4788F4" transform="translate(908.21484375,146.02734375)"/>
<path d="M0 0 C2.27471236 1.54430014 4.04857332 3.04857332 6 5 C4.02 7.64 2.04 10.28 0 13 C-3.54295839 12.1142604 -5.29508018 11.26671305 -8.3125 9.4375 C-15.73320998 5.67781976 -23.99334735 5.54860335 -31.9375 7.8515625 C-39.11934221 11.07025398 -44.62336323 16.45971356 -47.9375 23.625 C-50.29425346 31.03193946 -50.46362326 40.98419853 -47.16015625 48.12890625 C-43.05094026 54.75622766 -38.35768766 59.89648579 -30.83984375 62.41015625 C-21.81312199 64.28503243 -12.87534896 64.11561129 -5 59 C0.63922279 54.61393783 2.80099628 48.59701117 5 42 C-3.91 42 -12.82 42 -22 42 C-22 38.7 -22 35.4 -22 32 C-9.46 32 3.08 32 16 32 C16 46.94380917 15.54382159 55.3358429 5.3359375 65.6875 C-4.53213417 74.6994376 -14.91451258 75.71140971 -27.81201172 75.17919922 C-39.45495762 74.2256261 -47.94489754 66.8056007 -55.23828125 58.30859375 C-62.86535103 48.31391916 -63.03664019 37.13272914 -62 25 C-61.14914994 21.57014846 -59.94360245 18.9321013 -58 16 C-57.360625 14.9275 -56.72125 13.855 -56.0625 12.75 C-42.43833098 -5.41555869 -20.20717113 -10.97893292 0 0 Z " fill="#4687F4" transform="translate(739,120)"/>
<path d="M0 0 C7.55258879 3.54153364 11.95099546 8.36377012 15.19921875 16.03125 C17.33354922 23.26350355 16.21119589 30.23035463 13.19921875 37.03125 C9.48409828 42.62793019 5.18073909 46.09913218 -0.80078125 49.03125 C-1.79078125 49.52625 -1.79078125 49.52625 -2.80078125 50.03125 C-12.17267047 50.6708015 -19.43646404 50.3995422 -27.48828125 45.34375 C-33.15553023 39.67650102 -36.77812868 32.79034111 -37.11328125 24.71875 C-36.90657538 17.4840445 -34.79988475 11.00262139 -29.79296875 5.671875 C-20.55638583 -1.9347227 -11.1347145 -4.19737929 0 0 Z " fill="#FBBE0D" transform="translate(852.80078125,144.96875)"/>
<path d="M0 0 C6.3316282 4.47309057 11.20455334 9.29847879 13 17 C14.13640237 25.69784894 13.18830395 32.80416136 8 40 C3.39512835 45.05464982 -1.90219648 48.6469649 -8.8046875 49.43359375 C-10.16125066 49.45736704 -11.51838399 49.45803777 -12.875 49.4375 C-13.58390381 49.42847656 -14.29280762 49.41945312 -15.02319336 49.41015625 C-23.08916858 49.14280663 -27.33904339 46.99486768 -32.8125 41.25 C-38.2003855 34.55819701 -39.60281444 28.53165267 -39.34375 19.9609375 C-38.51461605 12.81907912 -35.31278126 7.33941033 -30.04296875 2.5078125 C-21.26542248 -3.97045301 -9.62610731 -5.57005821 0 0 Z " fill="#EA483B" transform="translate(799,146)"/>
<path d="M0 0 C6.02641365 3.48515488 11.08477984 7.59447272 13.6875 14.25 C13.68237305 16.67285156 13.68237305 16.67285156 12.6875 19.25 C10.27118994 20.64464227 8.17462298 21.62016885 5.58984375 22.58203125 C4.88098526 22.8635051 4.17212677 23.14497894 3.44178772 23.4349823 C1.17637136 24.32959609 -1.09863652 25.19617122 -3.375 26.0625 C-4.91282108 26.6641998 -6.44994122 27.26769439 -7.98632812 27.87304688 C-11.75390182 29.3529789 -15.53030944 30.80785614 -19.3125 32.25 C-17.71221233 35.60298369 -16.70481911 37.51034918 -13.3125 39.25 C-6.33810821 40.23305713 -1.65844268 38.62738033 4.0625 34.5625 C4.59875 34.129375 5.135 33.69625 5.6875 33.25 C8.3275 34.9 10.9675 36.55 13.6875 38.25 C11.94850273 41.72799455 11.16528063 43.01161374 8.375 45.375 C7.80136719 45.87257812 7.22773437 46.37015625 6.63671875 46.8828125 C0.23149005 51.37545788 -6.7916171 50.77867884 -14.3125 50.25 C-20.89476082 49.0933727 -25.28106306 45.4653526 -29.3125 40.25 C-34.07742417 33.17992078 -34.23484609 25.54150704 -33.3125 17.25 C-31.5959472 9.96537905 -27.3489946 5.46071174 -21.3125 1.25 C-14.53484613 -2.64087537 -7.13599984 -3.40643011 0 0 Z " fill="#EA483A" transform="translate(979.3125,144.75)"/>
<path d="M0 0 C0.86890869 -0.00478363 1.73781738 -0.00956726 2.63305664 -0.01449585 C4.46535051 -0.01788975 6.29770535 -0.00872294 8.12988281 0.01220703 C10.92911219 0.03898227 13.72433233 0.01244447 16.5234375 -0.01953125 C18.30730049 -0.01622706 20.09116099 -0.00982063 21.875 0 C23.12518921 -0.01518173 23.12518921 -0.01518173 24.40063477 -0.03067017 C28.64616063 0.05464375 30.45552479 0.30579037 33.96240234 2.91259766 C35.99307846 5.74148762 36.57688154 6.93853806 36.6015625 10.3515625 C36.61123047 11.64707031 36.61123047 11.64707031 36.62109375 12.96875 C36.60175781 13.85820313 36.58242187 14.74765625 36.5625 15.6640625 C36.58183594 16.55351563 36.60117188 17.44296875 36.62109375 18.359375 C36.61464844 19.22304688 36.60820313 20.08671875 36.6015625 20.9765625 C36.59310303 22.14638672 36.59310303 22.14638672 36.58447266 23.33984375 C35.5689283 26.98813895 33.96005737 28.41727046 30.9375 30.6640625 C27.90951373 31.37827461 24.97554903 31.36577666 21.875 31.328125 C20.57163696 31.33530045 20.57163696 31.33530045 19.24194336 31.34262085 C17.40964949 31.34601475 15.57729465 31.33684794 13.74511719 31.31591797 C10.94588781 31.28914273 8.15066767 31.31568053 5.3515625 31.34765625 C3.56769951 31.34435206 1.78383901 31.33794563 0 31.328125 C-1.25018921 31.34330673 -1.25018921 31.34330673 -2.52563477 31.35879517 C-6.77116063 31.27348125 -8.58052479 31.02233463 -12.08740234 28.41552734 C-14.11807846 25.58663738 -14.70188154 24.38958694 -14.7265625 20.9765625 C-14.73300781 20.11289062 -14.73945312 19.24921875 -14.74609375 18.359375 C-14.72675781 17.46992187 -14.70742187 16.58046875 -14.6875 15.6640625 C-14.70683594 14.77460937 -14.72617188 13.88515625 -14.74609375 12.96875 C-14.73964844 12.10507812 -14.73320313 11.24140625 -14.7265625 10.3515625 C-14.72092285 9.57167969 -14.7152832 8.79179687 -14.70947266 7.98828125 C-12.57763868 0.32976824 -6.76508626 -0.08215215 0 0 Z " fill="#E3BC22" transform="translate(1287.0625,19.3359375)"/>
<path d="M0 0 C3.63 0 7.26 0 11 0 C11 25.41 11 50.82 11 77 C7.37 77 3.74 77 0 77 C0 51.59 0 26.18 0 0 Z " fill="#3AAA58" transform="translate(930,117)"/>
<path d="M0 0 C3.98561154 2.62688033 6.23980531 5.28191592 7.75 9.8125 C8.36552524 15.9677524 6.95756021 20.6202619 3.75 25.8125 C0.26308637 29.21639188 -2.50667053 30.07747016 -7.25 30.3125 C-11.97963091 30.08525047 -14.73927502 29.1560476 -18.25 25.8125 C-21.92550924 20.6208432 -23.0474459 16.09238645 -22.25 9.8125 C-20.57694549 5.5445038 -18.26830433 2.14570897 -14.25 -0.1875 C-9.22141801 -1.863694 -4.90969589 -1.79392735 0 0 Z " fill="#FEFAF9" transform="translate(793.25,155.1875)"/>
<path d="M0 0 C4.84115976 2.33092877 7.70301121 5.14098526 10 10 C10.78549682 15.37824864 10.6984307 19.6031386 8.25 24.5 C4.4062595 28.77082278 1.53915648 30.80836555 -4.3125 31.25 C-9.66430237 30.88716594 -12.71949363 29.41893949 -16.3125 25.4375 C-19.74432775 20.48041547 -19.60249058 15.91612281 -19 10 C-17.3125 6.5625 -17.3125 6.5625 -15 4 C-13.948125 2.824375 -13.948125 2.824375 -12.875 1.625 C-8.60915383 -0.78613044 -4.78791163 -0.75315464 0 0 Z " fill="#FEFDFA" transform="translate(847,154)"/>
<path d="M0 0 C3.04983368 2.52700505 5.41209283 5.26168566 7.1875 8.8125 C7.74519904 14.77558973 7.68906448 19.74126868 4.1875 24.8125 C-0.13925106 28.81474473 -3.70690962 30.28556818 -9.6796875 30.23046875 C-13.61871691 29.45853442 -16.27411589 26.80367695 -18.8125 23.8125 C-21.91332704 18.95453764 -21.41412971 13.36086284 -20.8125 7.8125 C-16.70915213 -0.85012328 -8.79345242 -3.71279102 0 0 Z " fill="#FBFCFE" transform="translate(905.8125,155.1875)"/>
<path d="M0 0 C4.17862962 0.87054784 5.56887157 2.12131491 8 5.625 C8.17936906 7.96931196 8.0620502 10.19444312 7.91015625 12.5390625 C7.80188434 14.8810002 7.80188434 14.8810002 10 17.0625 C10.66 17.578125 11.32 18.09375 12 18.625 C12 19.285 12 19.945 12 20.625 C9.53199953 19.47326645 7.95216435 18.57716435 6 16.625 C3.92106609 16.49591124 3.92106609 16.49591124 1.625 16.6875 C-1.20550107 16.7284558 -2.8447931 16.68708276 -5.5 15.625 C-7.8303845 12.51782067 -8.43479127 9.47815025 -8 5.625 C-5.60540961 2.14195943 -4.14822958 0.8642145 0 0 Z " fill="#F9F9FA" transform="translate(570,265.375)"/>
<path d="M0 0 C15.84 0 31.68 0 48 0 C48 1.32 48 2.64 48 4 C32.16 4 16.32 4 0 4 C0 2.68 0 1.36 0 0 Z " fill="#2563EB" transform="translate(1375,45)"/>
<path d="M0 0 C2.9375 1.5625 2.9375 1.5625 5 3 C4 6 4 6 2.08227539 7.07495117 C1.26235107 7.39439697 0.44242676 7.71384277 -0.40234375 8.04296875 C-1.29244141 8.39423828 -2.18253906 8.74550781 -3.09960938 9.10742188 C-4.03611328 9.46384766 -4.97261719 9.82027344 -5.9375 10.1875 C-6.87013672 10.55552734 -7.80277344 10.92355469 -8.76367188 11.30273438 C-15.68448516 14 -15.68448516 14 -18 14 C-17.58649697 8.72783638 -16.82965008 5.72614602 -13 2 C-8.34060382 -1.10626412 -5.40340674 -1.37541263 0 0 Z " fill="#FDF5F4" transform="translate(975,154)"/>
<path d="M0 0 C4.17862962 0.87054784 5.56887157 2.12131491 8 5.625 C8.17936906 7.96931196 8.0620502 10.19444312 7.91015625 12.5390625 C7.80188434 14.8810002 7.80188434 14.8810002 10 17.0625 C10.66 17.578125 11.32 18.09375 12 18.625 C12 19.285 12 19.945 12 20.625 C9.53199953 19.47326645 7.95216435 18.57716435 6 16.625 C3.92106609 16.49591124 3.92106609 16.49591124 1.625 16.6875 C-1.20550107 16.7284558 -2.8447931 16.68708276 -5.5 15.625 C-7.8303845 12.51782067 -8.43479127 9.47815025 -8 5.625 C-5.60540961 2.14195943 -4.14822958 0.8642145 0 0 Z M-6 5.625 C-5.67 7.935 -5.34 10.245 -5 12.625 C-4.34 12.625 -3.68 12.625 -3 12.625 C-3 13.285 -3 13.945 -3 14.625 C2.01535052 14.29539784 2.01535052 14.29539784 6 11.625 C5.76135558 6.58994948 5.76135558 6.58994948 3 2.625 C-1.0730612 2.0890709 -2.9628306 2.92529386 -6 5.625 Z " fill="#A5ACB7" transform="translate(570,265.375)"/>
<path d="M0 0 C1.67293936 0.30027117 3.33985384 0.63557767 5 1 C7.42797311 1 9.62907005 0.49914315 12 0 C12.66 1.32 13.32 2.64 14 4 C12.02 4 10.04 4 8 4 C8.33 4.66 8.66 5.32 9 6 C10.32 6 11.64 6 13 6 C13 6.66 13 7.32 13 8 C10.87527424 8.05386629 8.75016348 8.09273071 6.625 8.125 C4.84996094 8.15980469 4.84996094 8.15980469 3.0390625 8.1953125 C0 8 0 8 -2 6 C-1.44444444 1.44444444 -1.44444444 1.44444444 0 0 Z " fill="#94939B" transform="translate(900,347)"/>
<path d="M0 0 C2.64 0 5.28 0 8 0 C8 0.99 8 1.98 8 3 C9.65 3.33 11.3 3.66 13 4 C13 5.98 13 7.96 13 10 C12.34 10 11.68 10 11 10 C11 8.02 11 6.04 11 4 C10.01 4.495 10.01 4.495 9 5 C8.34444881 7.52733235 8.34444881 7.52733235 8 10 C5 10 2 10 -1 10 C-0.67 9.34 -0.34 8.68 0 8 C0.99 8.33 1.98 8.66 3 9 C2.24849977 5.72226496 2.24849977 5.72226496 -1 4 C-0.67 2.68 -0.34 1.36 0 0 Z " fill="#9DBCFA" transform="translate(724,406)"/>
<path d="M0 0 C0.9075 0.00257813 1.815 0.00515625 2.75 0.0078125 C4.11125 0.00394531 4.11125 0.00394531 5.5 0 C7.75 0.1328125 7.75 0.1328125 8.75 1.1328125 C8.79080783 3.13239614 8.79254356 5.13326504 8.75 7.1328125 C6.93757948 7.15968529 5.12504767 7.17914965 3.3125 7.1953125 C2.30316406 7.20691406 1.29382813 7.21851563 0.25390625 7.23046875 C-2.25 7.1328125 -2.25 7.1328125 -3.25 6.1328125 C-3.375 3.6328125 -3.375 3.6328125 -3.25 1.1328125 C-2.25 0.1328125 -2.25 0.1328125 0 0 Z " fill="#C4D6FB" transform="translate(843.25,408.8671875)"/>
<path d="M0 0 C0.66 0 1.32 0 2 0 C2.92844389 4.33273814 2.92844389 7.66726186 2 12 C-4.15234375 12.09765625 -4.15234375 12.09765625 -6 12 C-7 11 -7 11 -7.1875 8.5625 C-7 6 -7 6 -5 4 C-2.375 3.875 -2.375 3.875 0 4 C0 2.68 0 1.36 0 0 Z " fill="#9994A2" transform="translate(791,343)"/>
<path d="M0 0 C0.78375 0.165 1.5675 0.33 2.375 0.5 C5.09522679 1.23945377 5.09522679 1.23945377 8 0 C10.62386487 3.06117568 11 3.73173127 11 8 C10.01 8 9.02 8 8 8 C8 7.01 8 6.02 8 5 C7.608125 5.495 7.21625 5.99 6.8125 6.5 C5 8 5 8 2.4375 8.3125 C0 8 0 8 -2 6 C-1.44444444 1.44444444 -1.44444444 1.44444444 0 0 Z " fill="#8C8F9C" transform="translate(1531,31)"/>
<path d="M0 0 C0.66 0 1.32 0 2 0 C2.66 0.99 3.32 1.98 4 3 C4.33 2.01 4.66 1.02 5 0 C7.64 0 10.28 0 13 0 C13 0.66 13 1.32 13 2 C12.01 2.495 12.01 2.495 11 3 C11.66 3.33 12.32 3.66 13 4 C12.67 5.32 12.34 6.64 12 8 C10.35 8 8.7 8 7 8 C7 7.34 7 6.68 7 6 C6.34 6 5.68 6 5 6 C5 6.66 5 7.32 5 8 C4.01 8 3.02 8 2 8 C0.23537317 4.91190305 0 3.76687864 0 0 Z " fill="#BCB6AD" transform="translate(1542,31)"/>
<path d="M0 0 C1.4540625 0.0309375 1.4540625 0.0309375 2.9375 0.0625 C2.9375 3.6925 2.9375 7.3225 2.9375 11.0625 C0.6275 11.3925 -1.6825 11.7225 -4.0625 12.0625 C-4.0625 11.4025 -4.0625 10.7425 -4.0625 10.0625 C-2.4125 10.0625 -0.7625 10.0625 0.9375 10.0625 C0.9375 9.4025 0.9375 8.7425 0.9375 8.0625 C-0.7125 7.7325 -2.3625 7.4025 -4.0625 7.0625 C-4.10504356 5.06295254 -4.10330783 3.06208364 -4.0625 1.0625 C-3.0625 0.0625 -3.0625 0.0625 0 0 Z " fill="#6F6B70" transform="translate(1479.0625,30.9375)"/>
<path d="M0 0 C0.66 0 1.32 0 2 0 C2.33 1.98 2.66 3.96 3 6 C3.33 5.34 3.66 4.68 4 4 C5.65 4 7.3 4 9 4 C9.66 5.65 10.32 7.3 11 9 C11.66 7.35 12.32 5.7 13 4 C13.6875 5.625 13.6875 5.625 14 8 C12.5625 11.25 12.5625 11.25 11 14 C9.0549 11.08235 8.54723683 9.37462715 8 6 C6.45833358 7.37485532 6.45833358 7.37485532 5 9 C5 9.66 5 10.32 5 11 C5.66 11.33 6.32 11.66 7 12 C6.01 12 5.02 12 4 12 C3.67 11.34 3.34 10.68 3 10 C2.67 10.66 2.34 11.32 2 12 C1.34 12 0.68 12 0 12 C0 8.04 0 4.08 0 0 Z " fill="#5C5B7B" transform="translate(970,343)"/>
<path d="M0 0 C0.94875 0.04125 1.8975 0.0825 2.875 0.125 C2.92922947 1.5620809 2.96789723 2.99975462 3 4.4375 C3.02320313 5.23800781 3.04640625 6.03851563 3.0703125 6.86328125 C2.875 9.125 2.875 9.125 0.875 12.125 C-1.75 12.3125 -1.75 12.3125 -4.125 12.125 C-3.795 11.465 -3.465 10.805 -3.125 10.125 C-2.135 10.125 -1.145 10.125 -0.125 10.125 C-0.125 9.465 -0.125 8.805 -0.125 8.125 C-1.445 7.795 -2.765 7.465 -4.125 7.125 C-4.75 4.75 -4.75 4.75 -5.125 2.125 C-3.125 0.125 -3.125 0.125 0 0 Z " fill="#ABB1B9" transform="translate(732.125,346.875)"/>
<path d="M0 0 C1.0725 0.165 2.145 0.33 3.25 0.5 C6.63617619 0.95149016 8.75681674 0.88450453 12 0 C11.01 0.66 10.02 1.32 9 2 C9 2.99 9 3.98 9 5 C9.99 5.66 10.98 6.32 12 7 C10.948125 6.814375 9.89625 6.62875 8.8125 6.4375 C5.40457789 6.04642697 3.26910788 6.23079815 0 7 C-1 6 -1 6 -1.125 3.5 C-1 1 -1 1 0 0 Z " fill="#ADC7FA" transform="translate(917,409)"/>
<path d="M0 0 C0.33 0 0.66 0 1 0 C1 3.96 1 7.92 1 12 C-0.98 12 -2.96 12 -5 12 C-5.66 11.34 -6.32 10.68 -7 10 C-6.625 7.375 -6.625 7.375 -6 5 C-4.35 4.67 -2.7 4.34 -1 4 C-0.67 2.68 -0.34 1.36 0 0 Z " fill="#B7B5B6" transform="translate(969,343)"/>
<path d="M0 0 C1.81242052 -0.02687279 3.62495233 -0.04633715 5.4375 -0.0625 C6.44683594 -0.07410156 7.45617188 -0.08570312 8.49609375 -0.09765625 C11 0 11 0 12 1 C12.04092937 3.33297433 12.04241723 5.66705225 12 8 C11.34 8 10.68 8 10 8 C10 6.02 10 4.04 10 2 C9.01 2 8.02 2 7 2 C7 3.98 7 5.96 7 8 C6.34 8 5.68 8 5 8 C5 6.02 5 4.04 5 2 C4.01 2 3.02 2 2 2 C2 3.98 2 5.96 2 8 C1.34 8 0.68 8 0 8 C0 5.36 0 2.72 0 0 Z " fill="#304F70" transform="translate(1453,31)"/>
<path d="M0 0 C0 3.63 0 7.26 0 11 C-0.66 10.67 -1.32 10.34 -2 10 C-2 9.34 -2 8.68 -2 8 C-3.65 7.67 -5.3 7.34 -7 7 C-7 5.02 -7 3.04 -7 1 C-5 0 -5 0 0 0 Z " fill="#868393" transform="translate(939,347)"/>
<path d="M0 0 C2.00720923 0.28674418 4.0085944 0.61866701 6 1 C6 2.98 6 4.96 6 7 C3.125 7.625 3.125 7.625 0 8 C-0.66 7.34 -1.32 6.68 -2 6 C-1.44444444 1.44444444 -1.44444444 1.44444444 0 0 Z " fill="#95939E" transform="translate(710,347)"/>
<path d="M0 0 C0.1953125 6.0546875 0.1953125 6.0546875 0 8 C-0.66 8.66 -1.32 9.32 -2 10 C-4.125 9.625 -4.125 9.625 -6 9 C-5.01 8.67 -4.02 8.34 -3 8 C-4.32 7.34 -5.64 6.68 -7 6 C-7 4.35 -7 2.7 -7 1 C-4.53721199 -0.231394 -2.7204945 -0.07159196 0 0 Z " fill="#645520" transform="translate(1300,33)"/>
<path d="M0 0 C0.66 0 1.32 0 2 0 C2 3.3 2 6.6 2 10 C0.00045254 10.04254356 -2.00041636 10.04080783 -4 10 C-5 9 -5 9 -5.0625 6.4375 C-5.041875 5.633125 -5.02125 4.82875 -5 4 C-3.35 3.67 -1.7 3.34 0 3 C0 2.01 0 1.02 0 0 Z " fill="#A0BBF9" transform="translate(863,406)"/>
<path d="M0 0 C0.04254356 1.99954746 0.04080783 4.00041636 0 6 C-1 7 -1 7 -3.5 7.125 C-6 7 -6 7 -7 6 C-7.04080783 4.00041636 -7.04254356 1.99954746 -7 0 C-4.3333581 -1.33332095 -2.83319697 -0.67102033 0 0 Z " fill="#97949D" transform="translate(725,348)"/>
<path d="M0 0 C4.17799643 2.08899822 4.92391901 3.05544612 7 7 C7.33 4.69 7.66 2.38 8 0 C8.33 0 8.66 0 9 0 C9 3.63 9 7.26 9 11 C5.26360784 9.75453595 4.81243487 8.36595047 3 5 C2.67 6.98 2.34 8.96 2 11 C1.34 11 0.68 11 0 11 C0 7.37 0 3.74 0 0 Z " fill="#28466A" transform="translate(1518,28)"/>
<path d="M0 0 C0 2.64 0 5.28 0 8 C-0.99 8.495 -0.99 8.495 -2 9 C-2 8.34 -2 7.68 -2 7 C-3.65 6.67 -5.3 6.34 -7 6 C-7 4.35 -7 2.7 -7 1 C-4.53721199 -0.231394 -2.7204945 -0.07159196 0 0 Z " fill="#9FBBFA" transform="translate(939,409)"/>
<path d="M0 0 C0.66 0 1.32 0 2 0 C2 1.32 2 2.64 2 4 C3.65 4.33 5.3 4.66 7 5 C7 7.31 7 9.62 7 12 C6.34 12 5.68 12 5 12 C5 10.02 5 8.04 5 6 C4.01 6 3.02 6 2 6 C2 7.98 2 9.96 2 12 C1.34 12 0.68 12 0 12 C0 8.04 0 4.08 0 0 Z " fill="#5595F7" transform="translate(1415,27)"/>
<path d="M0 0 C0.33 0.66 0.66 1.32 1 2 C2.65 2 4.3 2 6 2 C6 4.31 6 6.62 6 9 C4.35 9 2.7 9 1 9 C-1.125 2.25 -1.125 2.25 0 0 Z " fill="#A2BDFA" transform="translate(812,407)"/>
<path d="M0 0 C0.33 0 0.66 0 1 0 C1 3.3 1 6.6 1 10 C-0.65 10 -2.3 10 -4 10 C-5 9 -5 9 -5.0625 6.4375 C-5.041875 5.633125 -5.02125 4.82875 -5 4 C-3.35 3.67 -1.7 3.34 0 3 C0 2.01 0 1.02 0 0 Z " fill="#9AB6F9" transform="translate(777,406)"/>
<path d="M0 0 C1.65 0.33 3.3 0.66 5 1 C5 3.31 5 5.62 5 8 C3.02 8 1.04 8 -1 8 C-1 4.88742431 -0.82638376 2.89234315 0 0 Z " fill="#615A5F" transform="translate(1468,31)"/>
<path d="M0 0 C1.66611905 -0.042721 3.33382885 -0.04063832 5 0 C6 1 6 1 6.0625 4.5625 C6.041875 5.696875 6.02125 6.83125 6 8 C4.02 8 2.04 8 0 8 C-0.33 6.68 -0.66 5.36 -1 4 C0.32 3.34 1.64 2.68 3 2 C2.01 2 1.02 2 0 2 C0 1.34 0 0.68 0 0 Z " fill="#5799F8" transform="translate(1394,31)"/>
<path d="M0 0 C1.65 0.33 3.3 0.66 5 1 C5 3.31 5 5.62 5 8 C3.35 8 1.7 8 0 8 C-0.98120464 4.94736336 -0.98120464 3.05263664 0 0 Z " fill="#847C7F" transform="translate(771,347)"/>
<path d="M0 0 C1.67542976 0.28604898 3.34385343 0.61781233 5 1 C5.33 1.99 5.66 2.98 6 4 C4.02 4 2.04 4 0 4 C0 4.66 0 5.32 0 6 C1.65 6 3.3 6 5 6 C5 6.66 5 7.32 5 8 C2.625 8.125 2.625 8.125 0 8 C-0.66 7.34 -1.32 6.68 -2 6 C-1.44444444 1.44444444 -1.44444444 1.44444444 0 0 Z " fill="#749DF7" transform="translate(1386,31)"/>
<path d="M0 0 C1.98 0 3.96 0 6 0 C6 0.66 6 1.32 6 2 C4.35 2 2.7 2 1 2 C1.825 2.763125 2.65 3.52625 3.5 4.3125 C6 7 6 7 6 10 C3.69 10.33 1.38 10.66 -1 11 C-1 10.34 -1 9.68 -1 9 C0.65 9 2.3 9 4 9 C2.36587557 7.29159719 1.13093906 6.06546953 -1 5 C-0.67 3.35 -0.34 1.7 0 0 Z " fill="#5C93F7" transform="translate(1377,28)"/>
<path d="M0 0 C0.639375 0.2475 1.27875 0.495 1.9375 0.75 C2.2675 1.74 2.5975 2.73 2.9375 3.75 C1.2875 3.75 -0.3625 3.75 -2.0625 3.75 C-2.0625 4.41 -2.0625 5.07 -2.0625 5.75 C-0.7425 5.75 0.5775 5.75 1.9375 5.75 C1.9375 6.41 1.9375 7.07 1.9375 7.75 C0.27138095 7.792721 -1.39632885 7.79063832 -3.0625 7.75 C-4.0625 6.75 -4.0625 6.75 -4.125 3.6875 C-4.104375 2.718125 -4.08375 1.74875 -4.0625 0.75 C-2.0625 -0.25 -2.0625 -0.25 0 0 Z " fill="#4C5165" transform="translate(1489.0625,31.25)"/>
<path d="M0 0 C1.67542976 0.28604898 3.34385343 0.61781233 5 1 C5.33 1.99 5.66 2.98 6 4 C4.02 4 2.04 4 0 4 C0.33 4.66 0.66 5.32 1 6 C2.32 6 3.64 6 5 6 C5 6.66 5 7.32 5 8 C3.33388095 8.042721 1.66617115 8.04063832 0 8 C-1 7 -1 7 -1.125 4 C-1 1 -1 1 0 0 Z " fill="#5B5C6F" transform="translate(763,347)"/>
<path d="M0 0 C2.625 0.375 2.625 0.375 5 1 C5 1.99 5 2.98 5 4 C3.35 4 1.7 4 0 4 C0.95865509 6.33075929 0.95865509 6.33075929 4 8 C2.35 7.67 0.7 7.34 -1 7 C-1.625 4.625 -1.625 4.625 -2 2 C-1.34 1.34 -0.68 0.68 0 0 Z " fill="#5E5D6D" transform="translate(900,347)"/>
<path d="M0 0 C2.625 0.375 2.625 0.375 5 1 C5 1.99 5 2.98 5 4 C3.35 4 1.7 4 0 4 C0.95865509 6.33075929 0.95865509 6.33075929 4 8 C2.35 7.67 0.7 7.34 -1 7 C-1.625 4.625 -1.625 4.625 -2 2 C-1.34 1.34 -0.68 0.68 0 0 Z " fill="#5E5D6D" transform="translate(742,347)"/>
<path d="M0 0 C2.625 0.375 2.625 0.375 5 1 C5 1.99 5 2.98 5 4 C3.35 4 1.7 4 0 4 C0.95865509 6.33075929 0.95865509 6.33075929 4 8 C2.35 7.67 0.7 7.34 -1 7 C-1.625 4.625 -1.625 4.625 -2 2 C-1.34 1.34 -0.68 0.68 0 0 Z " fill="#514852" transform="translate(1531,31)"/>
<path d="M0 0 C1.98 0 3.96 0 6 0 C6.05422947 1.4370809 6.09289723 2.87475462 6.125 4.3125 C6.14820313 5.11300781 6.17140625 5.91351563 6.1953125 6.73828125 C6 9 6 9 4 12 C1.375 12.1875 1.375 12.1875 -1 12 C-0.67 11.34 -0.34 10.68 0 10 C0.99 10 1.98 10 3 10 C3.061875 8.72125 3.12375 7.4425 3.1875 6.125 C3.22230469 5.40570313 3.25710938 4.68640625 3.29296875 3.9453125 C3.19628906 3.30335938 3.09960938 2.66140625 3 2 C2.01 1.34 1.02 0.68 0 0 Z " fill="#45506C" transform="translate(729,347)"/>
<path d="M0 0 C1.32 0.33 2.64 0.66 4 1 C3.01 1.495 3.01 1.495 2 2 C1.67 2.99 1.34 3.98 1 5 C2.32 5.66 3.64 6.32 5 7 C4.67 8.32 4.34 9.64 4 11 C2.02 11 0.04 11 -2 11 C-1.67 10.34 -1.34 9.68 -1 9 C0.98 9.495 0.98 9.495 3 10 C1.86695008 6.60085025 0.87481525 5.94745549 -2 4 C-1.34 2.68 -0.68 1.36 0 0 Z " fill="#5B5563" transform="translate(755,344)"/>
<path d="M0 0 C0.66 0 1.32 0 2 0 C2 0.99 2 1.98 2 3 C3.32 3.33 4.64 3.66 6 4 C6 5.98 6 7.96 6 10 C5.67 10 5.34 10 5 10 C4.67 8.35 4.34 6.7 4 5 C3.67 5 3.34 5 3 5 C2.67 6.65 2.34 8.3 2 10 C1.34 10 0.68 10 0 10 C0 6.7 0 3.4 0 0 Z " fill="#303921" transform="translate(1302,30)"/>
<path d="M0 0 C1.67542976 0.28604898 3.34385343 0.61781233 5 1 C5 1.99 5 2.98 5 4 C3.68 4.33 2.36 4.66 1 5 C2.32 5.66 3.64 6.32 5 7 C3.33388095 7.042721 1.66617115 7.04063832 0 7 C-1 6 -1 6 -1.125 3.5 C-1 1 -1 1 0 0 Z " fill="#7AA6F8" transform="translate(945,409)"/>
<path d="M0 0 C1.67542976 0.28604898 3.34385343 0.61781233 5 1 C5 1.99 5 2.98 5 4 C3.68 4.33 2.36 4.66 1 5 C2.32 5.66 3.64 6.32 5 7 C3.33388095 7.042721 1.66617115 7.04063832 0 7 C-1 6 -1 6 -1.125 3.5 C-1 1 -1 1 0 0 Z " fill="#7AA6F8" transform="translate(798,409)"/>
<path d="M0 0 C1.98 0 3.96 0 6 0 C4.68 0.33 3.36 0.66 2 1 C2 2.32 2 3.64 2 5 C3.32 5.33 4.64 5.66 6 6 C4.68 6 3.36 6 2 6 C2 7.65 2 9.3 2 11 C1.34 11 0.68 11 0 11 C0 7.37 0 3.74 0 0 Z " fill="#4B505A" transform="translate(891,344)"/>
<path d="M0 0 C0.66 0 1.32 0 2 0 C2.66 0.99 3.32 1.98 4 3 C4.33 2.01 4.66 1.02 5 0 C5.66 0 6.32 0 7 0 C6.34 2.64 5.68 5.28 5 8 C4.01 8 3.02 8 2 8 C0.23537317 4.91190305 0 3.76687864 0 0 Z " fill="#444865" transform="translate(1542,31)"/>
<path d="M0 0 C-0.99 0.33 -1.98 0.66 -3 1 C-3 1.99 -3 2.98 -3 4 C-2.01 4.66 -1.02 5.32 0 6 C-2.64 5.67 -5.28 5.34 -8 5 C-8 3.35 -8 1.7 -8 0 C-4.94736336 -0.98120464 -3.05263664 -0.98120464 0 0 Z " fill="#7B9EF7" transform="translate(929,410)"/>
<path d="M0 0 C1.65 0.33 3.3 0.66 5 1 C4.67 2.32 4.34 3.64 4 5 C2.35 4.67 0.7 4.34 -1 4 C-0.67 2.68 -0.34 1.36 0 0 Z " fill="#D2DFFC" transform="translate(926,410)"/>
<path d="M0 0 C0.66 0 1.32 0 2 0 C2.19573608 1.43640171 2.38127816 2.87419504 2.5625 4.3125 C2.66691406 5.11300781 2.77132812 5.91351563 2.87890625 6.73828125 C3 9 3 9 2 12 C1.34 12 0.68 12 0 12 C0 8.04 0 4.08 0 0 Z " fill="#5A5A70" transform="translate(970,343)"/>
<path d="M0 0 C1.485 0.99 1.485 0.99 3 2 C3.66 1.34 4.32 0.68 5 0 C4.67 2.31 4.34 4.62 4 7 C1.525 6.01 1.525 6.01 -1 5 C-0.67 3.35 -0.34 1.7 0 0 Z " fill="#85A1F8" transform="translate(880,409)"/>
<path d="M0 0 C1.98 0.495 1.98 0.495 4 1 C3.01 1 2.02 1 1 1 C1 1.66 1 2.32 1 3 C1.99 3.33 2.98 3.66 4 4 C3.67 4.99 3.34 5.98 3 7 C1.68 7 0.36 7 -1 7 C-1 3 -1 3 0 0 Z " fill="#86A6F8" transform="translate(867,409)"/>
<path d="M0 0 C2.475 0.495 2.475 0.495 5 1 C5 2.98 5 4.96 5 7 C3.35 7 1.7 7 0 7 C0.99 6.67 1.98 6.34 3 6 C3 5.34 3 4.68 3 4 C2.34 3.67 1.68 3.34 1 3 C1.66 3 2.32 3 3 3 C3 2.34 3 1.68 3 1 C2.01 1.33 1.02 1.66 0 2 C0 1.34 0 0.68 0 0 Z " fill="#6399F8" transform="translate(847,409)"/>
<path d="M0 0 C2.475 0.495 2.475 0.495 5 1 C5 2.98 5 4.96 5 7 C3.35 7 1.7 7 0 7 C0.99 6.67 1.98 6.34 3 6 C3 5.34 3 4.68 3 4 C2.34 3.67 1.68 3.34 1 3 C1.66 3 2.32 3 3 3 C3 2.34 3 1.68 3 1 C2.01 1.33 1.02 1.66 0 2 C0 1.34 0 0.68 0 0 Z " fill="#6399F8" transform="translate(739,409)"/>
<path d="M0 0 C0.66 0 1.32 0 2 0 C3.06546953 3.1964086 3.07427838 5.65747276 3 9 C2.01 8.67 1.02 8.34 0 8 C-1.125 2.25 -1.125 2.25 0 0 Z " fill="#809FF7" transform="translate(890,407)"/>
<path d="M0 0 C4.875 4.625 4.875 4.625 6 8 C2.63408134 6.55746343 0.48952921 4.66735273 -2 2 C-1.34 2 -0.68 2 0 2 C0 1.34 0 0.68 0 0 Z " fill="#B3B8C2" transform="translate(576,278)"/>
<path d="M0 0 C0.33 0.66 0.66 1.32 1 2 C1.66 2.33 2.32 2.66 3 3 C2.34 3 1.68 3 1 3 C1 4.65 1 6.3 1 8 C1.66 8.33 2.32 8.66 3 9 C1.68 8.67 0.36 8.34 -1 8 C-1.33 6.02 -1.66 4.04 -2 2 C-1.34 2 -0.68 2 0 2 C0 1.34 0 0.68 0 0 Z " fill="#453223" transform="translate(1311,31)"/>
<path d="M0 0 C1.98 0.495 1.98 0.495 4 1 C3.67 2.32 3.34 3.64 3 5 C1.68 4.67 0.36 4.34 -1 4 C-0.67 2.68 -0.34 1.36 0 0 Z " fill="#8CABF8" transform="translate(1394,34)"/>
<path d="M0 0 C0.33 0 0.66 0 1 0 C1 3.63 1 7.26 1 11 C0.01 10.67 -0.98 10.34 -2 10 C-2.6875 7.9375 -2.6875 7.9375 -3 6 C-2.01 6.495 -2.01 6.495 -1 7 C-0.67 4.69 -0.34 2.38 0 0 Z " fill="#201E30" transform="translate(1526,28)"/>
<path d="M0 0 C1.32 0 2.64 0 4 0 C4 0.66 4 1.32 4 2 C3.01 2.495 3.01 2.495 2 3 C2.66 3.33 3.32 3.66 4 4 C3.67 4.99 3.34 5.98 3 7 C3 6.34 3 5.68 3 5 C1.68 4.67 0.36 4.34 -1 4 C-0.67 2.68 -0.34 1.36 0 0 Z " fill="#383A55" transform="translate(1551,31)"/>
<path d="M0 0 C0.99 0.33 1.98 0.66 3 1 C3 2.65 3 4.3 3 6 C1.68 5.34 0.36 4.68 -1 4 C-0.67 2.68 -0.34 1.36 0 0 Z " fill="#F2F0FC" transform="translate(830,410)"/>
<path d="M0 0 C0.99 0.33 1.98 0.66 3 1 C3 2.65 3 4.3 3 6 C1.68 5.34 0.36 4.68 -1 4 C-0.67 2.68 -0.34 1.36 0 0 Z " fill="#F2F0FC" transform="translate(786,410)"/>
<path d="M0 0 C1.32 0.33 2.64 0.66 4 1 C4 3.31 4 5.62 4 8 C3.34 8 2.68 8 2 8 C1.34 5.36 0.68 2.72 0 0 Z " fill="#264370" transform="translate(1461,31)"/>
<path d="M0 0 C0.99 0.33 1.98 0.66 3 1 C2.67 3.31 2.34 5.62 2 8 C1.34 8 0.68 8 0 8 C0 5.36 0 2.72 0 0 Z " fill="#5E636C" transform="translate(923,347)"/>
<path d="M0 0 C0.99 0.33 1.98 0.66 3 1 C2.67 1.61875 2.34 2.2375 2 2.875 C0.85806765 4.91018344 0.85806765 4.91018344 1 7 C1.66 7.33 2.32 7.66 3 8 C2.01 8 1.02 8 0 8 C-1.125 2.25 -1.125 2.25 0 0 Z " fill="#6F849A" transform="translate(974,347)"/>
</svg>
