<?xml version="1.0" encoding="UTF-8"?>
<svg version="1.1" xmlns="http://www.w3.org/2000/svg" width="1091" height="562">
<path d="M0 0 C360.03 0 720.06 0 1091 0 C1091 185.46 1091 370.92 1091 562 C730.97 562 370.94 562 0 562 C0 376.54 0 191.08 0 0 Z " fill="#FAFDFB" transform="translate(0,0)"/>
<path d="M0 0 C0.7341832 -0.00380567 1.4683664 -0.00761134 2.22479758 -0.01153234 C4.69832936 -0.02188334 7.17163315 -0.01793553 9.6451807 -0.01409245 C11.43111031 -0.01854293 13.21703793 -0.02385635 15.00296265 -0.02996117 C19.92116879 -0.04417401 24.83931184 -0.04580384 29.75753558 -0.04536426 C35.05755561 -0.04700954 40.35754943 -0.0600705 45.65755558 -0.07155704 C57.25025955 -0.09442695 68.84294524 -0.10232952 80.43566871 -0.10738349 C87.67014162 -0.11063764 94.9046092 -0.11715833 102.13907909 -0.12438488 C122.15854662 -0.14395196 142.17800917 -0.16035602 162.19748688 -0.16326141 C163.47906426 -0.16344898 164.76064163 -0.16363655 166.08105469 -0.16382981 C168.67925171 -0.16419606 171.27744873 -0.16455976 173.87564575 -0.16492092 C175.1654396 -0.16510373 176.45523346 -0.16528654 177.78411198 -0.16547489 C179.72115593 -0.16574572 179.72115593 -0.16574572 181.69733209 -0.16602201 C202.63559201 -0.16956585 223.57374922 -0.19660086 244.51197349 -0.23397278 C265.99479554 -0.27201087 287.47756656 -0.29141855 308.96042305 -0.29172093 C321.02807669 -0.29230645 333.09560776 -0.30085948 345.16322994 -0.32971859 C355.43604175 -0.35417214 365.70868627 -0.3615561 375.98151927 -0.34647106 C381.22570396 -0.33927791 386.46955793 -0.34026289 391.71370602 -0.36288166 C396.51091902 -0.38337516 401.30754502 -0.38096202 406.104751 -0.36000682 C407.84360959 -0.35649342 409.58250972 -0.36149956 411.32131379 -0.37571125 C413.6792841 -0.39374719 416.03516149 -0.38117596 418.39306641 -0.36076355 C419.70435074 -0.36157801 421.01563507 -0.36239246 422.36665529 -0.3632316 C426.61716789 0.41763359 428.07251096 1.95433719 430.75945377 5.26006222 C432.37436708 8.48988882 431.93381897 12.02777253 431.95232487 15.57768917 C431.96050236 16.43801754 431.96867985 17.29834591 431.97710514 18.18474483 C432.00197087 21.03927058 432.01847777 23.89374658 432.03289127 26.74834347 C432.03821495 27.72216661 432.04353863 28.69598976 432.04902363 29.6993227 C432.07575978 34.85326889 432.09513357 40.00719081 432.10955143 45.16118526 C432.12620447 50.48792498 432.17098649 55.81404662 432.22192287 61.14055252 C432.25555796 65.23349383 432.26712474 69.32628773 432.27277851 73.41935444 C432.27950086 75.38298614 432.29474838 77.34660782 432.31866932 79.31010532 C432.35024507 82.05866845 432.35036927 84.80555523 432.34294987 87.55425167 C432.3593552 88.36534893 432.37576054 89.17644619 432.392663 90.01212215 C432.34501746 94.32415909 432.14992482 95.78946867 429.28548527 99.24167538 C428.45189487 99.90774303 427.61830448 100.57381069 426.75945377 101.26006222 C426.42945377 101.59006222 426.09945377 101.92006222 425.75945377 102.26006222 C423.47079126 102.36098231 421.17893651 102.3893139 418.88805103 102.39148998 C418.15732937 102.39354262 417.4266077 102.39559525 416.67374295 102.39771008 C414.19397565 102.40342176 411.71426317 102.40191774 409.23449039 102.40050411 C407.45115159 102.40308537 405.66781336 102.40609786 403.88447595 102.40950751 C398.95950402 102.417609 394.03454664 102.41936883 389.10956883 102.42010498 C383.80746043 102.42195011 378.50535967 102.42949471 373.20325565 102.4362402 C361.59797839 102.44984671 349.99270457 102.45585193 338.38742065 102.46025085 C331.14643308 102.46300955 323.90544685 102.46724623 316.66446018 102.47175503 C296.63224591 102.48395108 276.60003273 102.49424949 256.56781483 102.49763012 C254.64304072 102.49795947 254.64304072 102.49795947 252.67938228 102.49829547 C250.74989166 102.49862289 250.74989166 102.49862289 248.78142142 102.49895692 C246.17465226 102.49940039 243.56788309 102.49984695 240.96111393 102.50029659 C239.02152522 102.50062874 239.02152522 102.50062874 237.04275289 102.50096759 C216.08493273 102.50491659 195.12714732 102.52237222 174.16934058 102.54565611 C152.67305749 102.56934624 131.17679186 102.58183092 109.6804955 102.58299804 C97.6027689 102.58391616 85.52508756 102.58970269 73.44737339 102.60781765 C63.16354157 102.62318717 52.87976898 102.6283578 42.59592786 102.62007955 C37.34576602 102.61616175 32.09572358 102.61715748 26.84557629 102.63113689 C22.04282015 102.64380845 17.24027396 102.64273803 12.43751839 102.63054618 C10.69655365 102.62857741 8.95557437 102.63172159 7.2146301 102.64039055 C4.85423607 102.65140333 2.49459347 102.64405229 0.13422108 102.63199902 C-1.83514475 102.63289465 -1.83514475 102.63289465 -3.84429574 102.63380837 C-7.49761129 102.23177306 -9.34748965 101.48492794 -12.24054623 99.26006222 C-14.80031364 95.4204111 -14.52875858 92.28004293 -14.51520443 87.82890987 C-14.52031536 86.96843548 -14.52542629 86.10796108 -14.5306921 85.22141171 C-14.54461065 82.3722456 -14.54362946 79.52332082 -14.54132748 76.67412472 C-14.54521352 74.69498765 -14.549548 72.71585142 -14.55431271 70.73671627 C-14.56178005 66.58561661 -14.56148017 62.43460198 -14.55622005 58.28349972 C-14.55042857 52.96478432 -14.56734623 47.64641751 -14.59056473 42.32775974 C-14.60530058 38.23909629 -14.6061739 34.15051678 -14.603055 30.06183147 C-14.60356841 28.10103192 -14.60880988 26.14022768 -14.61886692 24.17945385 C-14.63120933 21.43607393 -14.62445254 18.69337276 -14.61286068 15.95000362 C-14.62050442 15.14047741 -14.62814816 14.33095119 -14.63602352 13.49689388 C-14.59330442 8.92067515 -14.20132498 5.82980437 -11.24054623 2.26006222 C-7.6226072 -0.1743483 -4.27646417 0.00636329 0 0 Z " fill="#EDFCF2" transform="translate(332.24054622650146,212.7399377822876)"/>
<path d="M0 0 C1.29027351 -0.00744736 1.29027351 -0.00744736 2.60661316 -0.01504517 C5.46659125 -0.02970952 8.32651384 -0.03647676 11.18652344 -0.04199219 C13.16851809 -0.04774125 15.15051272 -0.05349901 17.13250732 -0.05926514 C21.29553487 -0.06978806 25.45854304 -0.07562189 29.62158203 -0.07910156 C34.95602558 -0.08458122 40.29021321 -0.10859253 45.62457657 -0.13707352 C49.72180934 -0.15570103 53.81898059 -0.16090562 57.91625214 -0.16243744 C59.88264105 -0.16546553 61.84902883 -0.17349932 63.81537628 -0.18662262 C66.5685211 -0.20368126 69.32104249 -0.20180301 72.07421875 -0.1953125 C72.88688705 -0.20452728 73.69955536 -0.21374207 74.53684998 -0.22323608 C79.13682513 -0.18927297 82.16654819 0.25537342 85.79589844 3.16113281 C89.16278303 8.2114597 88.20667744 14.104072 88.23339844 20.03613281 C88.26626953 21.31617188 88.29914063 22.59621094 88.33300781 23.91503906 C88.38589422 33.11727413 88.38589422 33.11727413 86.68701172 36.12304688 C85.33105469 37.48144531 85.33105469 37.48144531 82.79589844 39.16113281 C82.46589844 39.49113281 82.13589844 39.82113281 81.79589844 40.16113281 C79.02287847 40.28294974 76.27433341 40.33976672 73.5 40.35400391 C72.63006409 40.3621814 71.76012817 40.37035889 70.86383057 40.37878418 C67.97140197 40.40369149 65.07902266 40.42016884 62.18652344 40.43457031 C61.20075066 40.43989399 60.21497787 40.44521767 59.19933319 40.45070267 C53.98055294 40.477459 48.76179681 40.49682486 43.54296875 40.51123047 C38.14782221 40.52787339 32.75328713 40.5726412 27.35837173 40.62360191 C23.21481616 40.65723886 19.0714062 40.66880412 14.92772675 40.67445755 C12.93897587 40.68118119 10.95023495 40.69643202 8.96161652 40.72034836 C6.17702827 40.75192313 3.39409483 40.75204817 0.609375 40.74462891 C-0.21264404 40.76103424 -1.03466309 40.77743958 -1.8815918 40.79434204 C-6.22042632 40.74702013 -7.71859999 40.56306656 -11.19244385 37.68716431 C-11.85629089 36.85357391 -12.52013794 36.01998352 -13.20410156 35.16113281 C-13.53410156 34.83113281 -13.86410156 34.50113281 -14.20410156 34.16113281 C-14.54293396 29.58560872 -14.52924885 24.99758203 -14.57910156 20.41113281 C-14.61648438 19.12207031 -14.65386719 17.83300781 -14.69238281 16.50488281 C-14.70398438 15.26222656 -14.71558594 14.01957031 -14.72753906 12.73925781 C-14.7473584 11.59875977 -14.76717773 10.45826172 -14.78759766 9.28320312 C-14.03068582 5.23324977 -12.28912423 3.7846823 -9.20410156 1.16113281 C-7.15388519 -0.88908356 -2.81986018 0.00384057 0 0 Z " fill="#99A1AF" transform="translate(504.2041015625,330.8388671875)"/>
<path d="M0 0 C5 1 5 1 6.80078125 3.06640625 C7.29964844 3.89011719 7.79851562 4.71382812 8.3125 5.5625 C8.82425781 6.38878906 9.33601563 7.21507812 9.86328125 8.06640625 C10.23839844 8.70449219 10.61351562 9.34257812 11 10 C11.33 6.7 11.66 3.4 12 0 C12.99 0 13.98 0 15 0 C15 5.61 15 11.22 15 17 C10 16 10 16 8.41796875 14.15234375 C7.27864583 12.1015625 6.13932292 10.05078125 5 8 C4.67 10.97 4.34 13.94 4 17 C2.68 17 1.36 17 0 17 C0 11.39 0 5.78 0 0 Z " fill="#13874F" transform="translate(486,166)"/>
<path d="M0 0 C1.32 0 2.64 0 4 0 C4 5.94 4 11.88 4 18 C2.411875 18.061875 0.82375 18.12375 -0.8125 18.1875 C-2.15248047 18.23970703 -2.15248047 18.23970703 -3.51953125 18.29296875 C-6 18 -6 18 -7.83203125 16.7109375 C-9 15 -9 15 -8.875 11.4375 C-8 8 -8 8 -5 6 C-3.68 6 -2.36 6 -1 6 C-0.67 4.02 -0.34 2.04 0 0 Z " fill="#2A8A41" transform="translate(472,165)"/>
<path d="M0 0 C1.65 0 3.3 0 5 0 C5.81832722 1.89332534 6.62942268 3.78977733 7.4375 5.6875 C8.11619141 7.27111328 8.11619141 7.27111328 8.80859375 8.88671875 C9.85447455 11.61972529 10.53520748 14.12042337 11 17 C9.68 17 8.36 17 7 17 C6.67 15.68 6.34 14.36 6 13 C4.02 13.33 2.04 13.66 0 14 C-0.33 14.99 -0.66 15.98 -1 17 C-2.32 17 -3.64 17 -5 17 C-3.83348574 11.07136283 -2.24480642 5.61201606 0 0 Z " fill="#0C874B" transform="translate(601,166)"/>
<path d="M0 0 C1.875 1.125 1.875 1.125 3 3 C3.39365568 6.14924548 3.52854531 8.11909116 1.875 10.875 C-0.92446741 12.55468045 -2.79804064 12.45742277 -6 12 C-8.82504482 9.99273131 -9.83389626 8.85128167 -10.5 5.4375 C-10 3 -10 3 -8.375 1.1875 C-5.3347031 -0.33264845 -3.35958291 -0.42888292 0 0 Z " fill="#1E8945" transform="translate(570,171)"/>
<path d="M0 0 C1.875 1.125 1.875 1.125 3 3 C3.4375 6 3.4375 6 3 9 C1.4375 10.9375 1.4375 10.9375 -1 12 C-4.625 11.875 -4.625 11.875 -8 11 C-10.14762184 7.77856724 -10.561068 6.7404533 -10 3 C-7.03796411 -0.30380926 -4.29267815 -0.54800147 0 0 Z " fill="#1A8845" transform="translate(444,171)"/>
<path d="M0 0 C2.4375 1.625 2.4375 1.625 4 4 C3.9375 7.125 3.9375 7.125 3 10 C-0.46923881 12.31282587 -1.92205575 12.42478586 -6 12 C-7.875 10.875 -7.875 10.875 -9 9 C-9.39365568 5.85075452 -9.52854531 3.88090884 -7.875 1.125 C-5.07553259 -0.55468045 -3.20195936 -0.45742277 0 0 Z " fill="#10894F" transform="translate(458,171)"/>
<path d="M0 0 C0 7.26 0 14.52 0 22 C-0.66 22 -1.32 22 -2 22 C-2 19.69 -2 17.38 -2 15 C-3.65 14.67 -5.3 14.34 -7 14 C-7.08114106 12.22992286 -7.13925505 10.45877902 -7.1875 8.6875 C-7.22230469 7.70136719 -7.25710938 6.71523437 -7.29296875 5.69921875 C-7 3 -7 3 -5.73828125 1.14453125 C-4 0 -4 0 0 0 Z " fill="#068439" transform="translate(411,162)"/>
<path d="M0 0 C1.32 0 2.64 0 4 0 C4.66 1.98 5.32 3.96 6 6 C6.66 4.02 7.32 2.04 8 0 C9.32 0 10.64 0 12 0 C11.04966328 3.34976846 10.04297628 6.67792742 9 10 C8.7834375 10.721875 8.566875 11.44375 8.34375 12.1875 C7.6875 14.0625 7.6875 14.0625 6 17 C2.8125 17.9375 2.8125 17.9375 0 18 C0 17.01 0 16.02 0 15 C0.99 14.67 1.98 14.34 3 14 C2.44600983 10.02973711 1.50059058 6.70145675 0 3 C0 2.01 0 1.02 0 0 Z " fill="#148748" transform="translate(647,171)"/>
<path d="M0 0 C1.32 0 2.64 0 4 0 C4.33 2.64 4.66 5.28 5 8 C5.99 8.33 6.98 8.66 8 9 C8 6.03 8 3.06 8 0 C9.32 0 10.64 0 12 0 C12 3.96 12 7.92 12 12 C10.39125 12.061875 8.7825 12.12375 7.125 12.1875 C5.76761719 12.23970703 5.76761719 12.23970703 4.3828125 12.29296875 C3.20332031 12.14794922 3.20332031 12.14794922 2 12 C-0.13586678 8.79619983 -0.23132175 7.98060033 -0.125 4.3125 C-0.10695313 3.50425781 -0.08890625 2.69601563 -0.0703125 1.86328125 C-0.04710937 1.24839844 -0.02390625 0.63351563 0 0 Z " fill="#298A46" transform="translate(504,171)"/>
<path d="M0 0 C3.3 0 6.6 0 10 0 C10 0.99 10 1.98 10 3 C8.02 3 6.04 3 4 3 C4 4.32 4 5.64 4 7 C5.65 7 7.3 7 9 7 C9 7.99 9 8.98 9 10 C7.35 10 5.7 10 4 10 C4 12.31 4 14.62 4 17 C2.68 17 1.36 17 0 17 C0 11.39 0 5.78 0 0 Z " fill="#08874C" transform="translate(423,166)"/>
<path d="M0 0 C3.0625 0.1875 3.0625 0.1875 5.0625 2.1875 C5.2578125 4.5703125 5.2578125 4.5703125 5.1875 7.3125 C5.16945313 8.22257813 5.15140625 9.13265625 5.1328125 10.0703125 C5.10960937 10.76898438 5.08640625 11.46765625 5.0625 12.1875 C3.58343108 12.21439216 2.10422517 12.23384621 0.625 12.25 C-0.61056641 12.26740234 -0.61056641 12.26740234 -1.87109375 12.28515625 C-3.9375 12.1875 -3.9375 12.1875 -4.9375 11.1875 C-5.125 8.75 -5.125 8.75 -4.9375 6.1875 C-4.2775 5.5275 -3.6175 4.8675 -2.9375 4.1875 C-3.2675 3.1975 -3.5975 2.2075 -3.9375 1.1875 C-2.9375 0.1875 -2.9375 0.1875 0 0 Z " fill="#138643" transform="translate(632.9375,170.8125)"/>
<path d="M0 0 C1 1 1 1 1.0625 3.5625 C1.041875 4.366875 1.02125 5.17125 1 6 C-0.98 6.33 -2.96 6.66 -5 7 C-3.35 7.33 -1.7 7.66 0 8 C-0.33 8.99 -0.66 9.98 -1 11 C-6.4 11.36 -6.4 11.36 -8.875 9.875 C-10.52854531 7.11909116 -10.39365568 5.14924548 -10 2 C-7.64880534 -2.28747261 -4.22461819 -0.93880404 0 0 Z " fill="#1D8E50" transform="translate(682,172)"/>
<path d="M0 0 C0.66 0 1.32 0 2 0 C2 2.97 2 5.94 2 9 C2.66 9 3.32 9 4 9 C4 6.03 4 3.06 4 0 C4.66 0 5.32 0 6 0 C6 2.97 6 5.94 6 9 C6.66 9 7.32 9 8 9 C8 6.03 8 3.06 8 0 C8.66 0 9.32 0 10 0 C10 3.3 10 6.6 10 10 C8.68 10.33 7.36 10.66 6 11 C6 14.63 6 18.26 6 22 C5.34 22 4.68 22 4 22 C4 18.37 4 14.74 4 11 C2.68 10.67 1.36 10.34 0 10 C0 6.7 0 3.4 0 0 Z " fill="#08853B" transform="translate(391,162)"/>
<path d="M0 0 C6.8359375 -0.1953125 6.8359375 -0.1953125 9 0 C11 2 11 2 11.1953125 4.3828125 C11.17210937 5.28773438 11.14890625 6.19265625 11.125 7.125 C11.10695313 8.03507813 11.08890625 8.94515625 11.0703125 9.8828125 C11.04710937 10.58148438 11.02390625 11.28015625 11 12 C9.68 12 8.36 12 7 12 C7 9.03 7 6.06 7 3 C6.01 3.33 5.02 3.66 4 4 C3.67 6.64 3.34 9.28 3 12 C2.01 12 1.02 12 0 12 C0 8.04 0 4.08 0 0 Z " fill="#268C4B" transform="translate(614,171)"/>
<path d="M0 0 C6.8359375 -0.1953125 6.8359375 -0.1953125 9 0 C11 2 11 2 11.1953125 4.3828125 C11.17210937 5.28773438 11.14890625 6.19265625 11.125 7.125 C11.10695313 8.03507813 11.08890625 8.94515625 11.0703125 9.8828125 C11.04710937 10.58148438 11.02390625 11.28015625 11 12 C9.68 12 8.36 12 7 12 C7 9.03 7 6.06 7 3 C6.01 3.33 5.02 3.66 4 4 C3.67 6.64 3.34 9.28 3 12 C2.01 12 1.02 12 0 12 C0 8.04 0 4.08 0 0 Z " fill="#268C4B" transform="translate(576,171)"/>
<path d="M0 0 C0.66 0 1.32 0 2 0 C2 1.32 2 2.64 2 4 C2.66 4 3.32 4 4 4 C4.66 5.32 5.32 6.64 6 8 C6.66 6.68 7.32 5.36 8 4 C10.97 4 13.94 4 17 4 C15.68 6.31 14.36 8.62 13 11 C14.32 11.33 15.64 11.66 17 12 C14.69 12 12.38 12 10 12 C11.32 9.69 12.64 7.38 14 5 C12.07374015 5.11448845 12.07374015 5.11448845 10 6 C8.42685028 8.29847487 8.42685028 8.29847487 7.25 11.0625 C6.82203125 11.98160156 6.3940625 12.90070313 5.953125 13.84765625 C5.63859375 14.55792969 5.3240625 15.26820313 5 16 C4.01 15.67 3.02 15.34 2 15 C2.66 14.67 3.32 14.34 4 14 C3.67 12.02 3.34 10.04 3 8 C2.67 9.32 2.34 10.64 2 12 C1.34 12 0.68 12 0 12 C0 8.04 0 4.08 0 0 Z " fill="#F0E7E4" transform="translate(543,345)"/>
<path d="M0 0 C3.3 0 6.6 0 10 0 C9.07377893 3.70488428 8.32789515 5.16604069 6 8 C7.32 8.33 8.64 8.66 10 9 C10 9.99 10 10.98 10 12 C6.7 12 3.4 12 0 12 C0.92622107 8.29511572 1.67210485 6.83395931 4 4 C2.68 3.67 1.36 3.34 0 3 C0 2.01 0 1.02 0 0 Z " fill="#178639" transform="translate(660,171)"/>
<path d="M0 0 C0 1.32 0 2.64 0 4 C0.66 4 1.32 4 2 4 C2 4.99 2 5.98 2 7 C1.34 7 0.68 7 0 7 C0 8.98 0 10.96 0 13 C0.66 13 1.32 13 2 13 C2 13.99 2 14.98 2 16 C0.33388095 16.042721 -1.33382885 16.04063832 -3 16 C-4 15 -4 15 -4.09765625 13.15234375 C-4.06510417 11.1015625 -4.03255208 9.05078125 -4 7 C-4.66 7 -5.32 7 -6 7 C-6 6.01 -6 5.02 -6 4 C-5.34 4 -4.68 4 -4 4 C-4 3.01 -4 2.02 -4 1 C-2 0 -2 0 0 0 Z " fill="#12894F" transform="translate(550,167)"/>
<path d="M0 0 C0 1.32 0 2.64 0 4 C0.66 4 1.32 4 2 4 C2 4.99 2 5.98 2 7 C1.34 7 0.68 7 0 7 C0 8.98 0 10.96 0 13 C0.66 13 1.32 13 2 13 C2 13.99 2 14.98 2 16 C-0.97 15.505 -0.97 15.505 -4 15 C-4 12.36 -4 9.72 -4 7 C-4.66 7 -5.32 7 -6 7 C-6 6.01 -6 5.02 -6 4 C-5.34 4 -4.68 4 -4 4 C-4 3.01 -4 2.02 -4 1 C-2 0 -2 0 0 0 Z " fill="#148648" transform="translate(524,167)"/>
<path d="M0 0 C0.66 0 1.32 0 2 0 C2.33 1.32 2.66 2.64 3 4 C3.99 3.67 4.98 3.34 6 3 C5.79375 3.598125 5.5875 4.19625 5.375 4.8125 C4.69328085 7.28450846 4.69328085 7.28450846 7 10 C6.01 10 5.02 10 4 10 C3.67 9.34 3.34 8.68 3 8 C2.67 8.66 2.34 9.32 2 10 C-0.33294775 10.04241723 -2.66702567 10.04092937 -5 10 C-6 9 -6 9 -6.125 6.5 C-6 4 -6 4 -5 3 C-3.33382885 2.95936168 -1.66611905 2.957279 0 3 C0 2.01 0 1.02 0 0 Z " fill="#92BF98" transform="translate(478,275)"/>
<path d="M0 0 C0.94875 0.04125 1.8975 0.0825 2.875 0.125 C2.875 3.425 2.875 6.725 2.875 10.125 C0 10.25 0 10.25 -3.125 10.125 C-5.125 8.125 -5.125 8.125 -5.375 5.125 C-5.02345647 0.90647769 -4.22997422 0.16919897 0 0 Z " fill="#96CEB6" transform="translate(461.125,274.875)"/>
<path d="M0 0 C1.32 0 2.64 0 4 0 C4 5.94 4 11.88 4 18 C2.68 18 1.36 18 0 18 C0 12.06 0 6.12 0 0 Z " fill="#168651" transform="translate(641,165)"/>
<path d="M0 0 C0.99 0 1.98 0 3 0 C3 5.94 3 11.88 3 18 C1.68 18 0.36 18 -1 18 C-2.4049404 14.10939581 -1.69513239 10.76907638 -1.0625 6.75 C-0.86785156 5.48671875 -0.67320312 4.2234375 -0.47265625 2.921875 C-0.31667969 1.95765625 -0.16070312 0.9934375 0 0 Z " fill="#0C8754" transform="translate(473,165)"/>
<path d="M0 0 C0.66 0 1.32 0 2 0 C2 1.98 2 3.96 2 6 C7.28 6 12.56 6 18 6 C18 4.02 18 2.04 18 0 C18.66 0 19.32 0 20 0 C20.04241723 2.33294775 20.04092937 4.66702567 20 7 C18.4779041 8.5220959 17.11789918 8.12959521 15 8.1328125 C14.195625 8.13410156 13.39125 8.13539063 12.5625 8.13671875 C11.716875 8.13285156 10.87125 8.12898438 10 8.125 C9.154375 8.12886719 8.30875 8.13273437 7.4375 8.13671875 C6.633125 8.13542969 5.82875 8.13414062 5 8.1328125 C4.2575 8.13168457 3.515 8.13055664 2.75 8.12939453 C1 8 1 8 0 7 C-0.04092937 4.66702567 -0.04241723 2.33294775 0 0 Z " fill="#058439" transform="translate(531,252)"/>
<path d="M0 0 C2.64 0 5.28 0 8 0 C8 0.99 8 1.98 8 3 C7.01 3.33 6.02 3.66 5 4 C4.67 6.64 4.34 9.28 4 12 C2.68 12 1.36 12 0 12 C0 8.04 0 4.08 0 0 Z " fill="#26893F" transform="translate(685,171)"/>
<path d="M0 0 C2.64 0 5.28 0 8 0 C8 0.99 8 1.98 8 3 C7.01 3.33 6.02 3.66 5 4 C4.67 6.64 4.34 9.28 4 12 C2.68 12 1.36 12 0 12 C0 8.04 0 4.08 0 0 Z " fill="#26893F" transform="translate(528,171)"/>
<path d="M0 0 C1.65 0 3.3 0 5 0 C5.33 1.32 5.66 2.64 6 4 C5.34 4 4.68 4 4 4 C4.33 5.98 4.66 7.96 5 10 C2.33333333 10 -0.33333333 10 -3 10 C-2.01 6.7 -1.02 3.4 0 0 Z " fill="#4DA06B" transform="translate(601,166)"/>
<path d="M0 0 C2.86697492 1.28519565 4.97607712 2.57129254 7 5 C7 5.66 7 6.32 7 7 C5.68 6.34 4.36 5.68 3 5 C2.67 7.97 2.34 10.94 2 14 C1.34 14 0.68 14 0 14 C-0.33 11.03 -0.66 8.06 -1 5 C-2.98 5.99 -2.98 5.99 -5 7 C-3.70700306 4.11562221 -2.34058637 2.12780579 0 0 Z " fill="#118A43" transform="translate(540,240)"/>
<path d="M0 0 C1.4540625 0.0309375 1.4540625 0.0309375 2.9375 0.0625 C3.1328125 6.1171875 3.1328125 6.1171875 2.9375 8.0625 C2.2775 8.7225 1.6175 9.3825 0.9375 10.0625 C-1.1875 9.6875 -1.1875 9.6875 -3.0625 9.0625 C-2.0725 8.7325 -1.0825 8.4025 -0.0625 8.0625 C-1.3825 7.4025 -2.7025 6.7425 -4.0625 6.0625 C-4.105221 4.39638095 -4.10313832 2.72867115 -4.0625 1.0625 C-3.0625 0.0625 -3.0625 0.0625 0 0 Z " fill="#57A77F" transform="translate(616.0625,277.9375)"/>
<path d="M0 0 C1.99954746 -0.04254356 4.00041636 -0.04080783 6 0 C7 1 7 1 7.0625 3.5625 C7.041875 4.366875 7.02125 5.17125 7 6 C5.35 6.33 3.7 6.66 2 7 C2 7.99 2 8.98 2 10 C1.34 10 0.68 10 0 10 C0 6.7 0 3.4 0 0 Z " fill="#5AA988" transform="translate(515,278)"/>
<path d="M0 0 C0.99 0.33 1.98 0.66 3 1 C3.94921875 3.28515625 3.94921875 3.28515625 4.6875 6.0625 C5.06455078 7.44115234 5.06455078 7.44115234 5.44921875 8.84765625 C5.63097656 9.55792969 5.81273437 10.26820313 6 11 C5.34 11 4.68 11 4 11 C3.67 10.34 3.34 9.68 3 9 C0.47266765 8.34444881 0.47266765 8.34444881 -2 8 C-2 8.99 -2 9.98 -2 11 C-2.66 11 -3.32 11 -4 11 C-3.5247412 9.35303396 -3.04468109 7.70745272 -2.5625 6.0625 C-2.29566406 5.14597656 -2.02882813 4.22945313 -1.75390625 3.28515625 C-1 1 -1 1 0 0 Z " fill="#EEF4F0" transform="translate(518,346)"/>
<path d="M0 0 C0.66 0 1.32 0 2 0 C2 3.3 2 6.6 2 10 C0.00045254 10.04254356 -2.00041636 10.04080783 -4 10 C-5 9 -5 9 -5.0625 6.4375 C-5.041875 5.633125 -5.02125 4.82875 -5 4 C-3.35 3.67 -1.7 3.34 0 3 C0 2.01 0 1.02 0 0 Z " fill="#98C091" transform="translate(581,275)"/>
<path d="M0 0 C1.32 0 2.64 0 4 0 C4 3.96 4 7.92 4 12 C2.68 12 1.36 12 0 12 C0 8.04 0 4.08 0 0 Z " fill="#168651" transform="translate(554,171)"/>
<path d="M0 0 C1.32 0 2.64 0 4 0 C4 3.96 4 7.92 4 12 C2.68 12 1.36 12 0 12 C0 8.04 0 4.08 0 0 Z " fill="#168651" transform="translate(538,171)"/>
<path d="M0 0 C1.32 0 2.64 0 4 0 C4 3.96 4 7.92 4 12 C3.01 12 2.02 12 1 12 C1 11.34 1 10.68 1 10 C0.34 9.67 -0.32 9.34 -1 9 C-0.67 6.03 -0.34 3.06 0 0 Z " fill="#178448" transform="translate(512,171)"/>
<path d="M0 0 C1.98 0 3.96 0 6 0 C6.66 1.32 7.32 2.64 8 4 C7.01 4.495 7.01 4.495 6 5 C4.86649466 7.01669827 4.86649466 7.01669827 4 9 C3.01 9 2.02 9 1 9 C1 7.35 1 5.7 1 4 C0.34 4 -0.32 4 -1 4 C-0.67 2.68 -0.34 1.36 0 0 Z " fill="#3C9D67" transform="translate(630,171)"/>
<path d="M0 0 C0.33 0 0.66 0 1 0 C1 3.3 1 6.6 1 10 C-0.65 10 -2.3 10 -4 10 C-4.66 9.34 -5.32 8.68 -6 8 C-5.625 5.875 -5.625 5.875 -5 4 C-4.0409375 3.8453125 -4.0409375 3.8453125 -3.0625 3.6875 C-2.381875 3.460625 -1.70125 3.23375 -1 3 C-0.67 2.01 -0.34 1.02 0 0 Z " fill="#5FAA78" transform="translate(548,275)"/>
<path d="M0 0 C0.042721 1.66611905 0.04063832 3.33382885 0 5 C-1 6 -1 6 -3.5 6.125 C-6 6 -6 6 -7 5 C-7.04063832 3.33382885 -7.042721 1.66611905 -7 0 C-4.3333581 -1.33332095 -2.83319697 -0.67102033 0 0 Z " fill="#6AB08C" transform="translate(575,279)"/>
<path d="M0 0 C2.625 0.375 2.625 0.375 5 1 C5.625 2.875 5.625 2.875 6 5 C5.34 5.66 4.68 6.32 4 7 C1.375 6.625 1.375 6.625 -1 6 C-1.625 4.125 -1.625 4.125 -2 2 C-1.34 1.34 -0.68 0.68 0 0 Z " fill="#6AB18A" transform="translate(561,278)"/>
<path d="M0 0 C0.042721 1.66611905 0.04063832 3.33382885 0 5 C-1 6 -1 6 -3.5 6.125 C-6 6 -6 6 -7 5 C-7.04063832 3.33382885 -7.042721 1.66611905 -7 0 C-4.3333581 -1.33332095 -2.83319697 -0.67102033 0 0 Z " fill="#6AB08C" transform="translate(534,279)"/>
<path d="M0 0 C2.625 0.375 2.625 0.375 5 1 C5.625 2.875 5.625 2.875 6 5 C5.34 5.66 4.68 6.32 4 7 C1.375 6.625 1.375 6.625 -1 6 C-1.625 4.125 -1.625 4.125 -2 2 C-1.34 1.34 -0.68 0.68 0 0 Z " fill="#6AB18A" transform="translate(496,278)"/>
<path d="M0 0 C1.47906892 -0.02689216 2.95827483 -0.04634621 4.4375 -0.0625 C5.26121094 -0.07410156 6.08492187 -0.08570313 6.93359375 -0.09765625 C9 0 9 0 10 1 C10.04080783 2.99958364 10.04254356 5.00045254 10 7 C9.34 7 8.68 7 8 7 C7.67 5.35 7.34 3.7 7 2 C6.67 3.65 6.34 5.3 6 7 C5.34 7 4.68 7 4 7 C3.67 5.35 3.34 3.7 3 2 C2.67 2 2.34 2 2 2 C1.67 3.65 1.34 5.3 1 7 C0.67 7 0.34 7 0 7 C0 4.69 0 2.38 0 0 Z " fill="#339267" transform="translate(593,278)"/>
<path d="M0 0 C1.67542976 0.28604898 3.34385343 0.61781233 5 1 C5 3.31 5 5.62 5 8 C3.02 8 1.04 8 -1 8 C-0.125 3.125 -0.125 3.125 1 2 C0.34 1.67 -0.32 1.34 -1 1 C-0.67 0.67 -0.34 0.34 0 0 Z " fill="#E0E5E7" transform="translate(535,349)"/>
<path d="M0 0 C0.99 0 1.98 0 3 0 C4.53166168 4.08443115 3.63081652 7.79455657 3 12 C2.01 12 1.02 12 0 12 C0 8.04 0 4.08 0 0 Z " fill="#008237" transform="translate(614,171)"/>
<path d="M0 0 C0.99 0 1.98 0 3 0 C4.53166168 4.08443115 3.63081652 7.79455657 3 12 C2.01 12 1.02 12 0 12 C0 8.04 0 4.08 0 0 Z " fill="#008237" transform="translate(576,171)"/>
<path d="M0 0 C1.2065625 0.0309375 1.2065625 0.0309375 2.4375 0.0625 C2.7675 1.3825 3.0975 2.7025 3.4375 4.0625 C1.4575 4.0625 -0.5225 4.0625 -2.5625 4.0625 C-2.2325 4.7225 -1.9025 5.3825 -1.5625 6.0625 C0.0875 6.0625 1.7375 6.0625 3.4375 6.0625 C3.1075 6.7225 2.7775 7.3825 2.4375 8.0625 C0.77138095 8.105221 -0.89632885 8.10313832 -2.5625 8.0625 C-3.5625 7.0625 -3.5625 7.0625 -3.6875 4.0625 C-3.52180824 0.08589776 -3.52180824 0.08589776 0 0 Z " fill="#E4E7E6" transform="translate(564.5625,348.9375)"/>
<path d="M0 0 C2.97 0.495 2.97 0.495 6 1 C6 2.98 6 4.96 6 7 C4.02 7 2.04 7 0 7 C-0.33 6.01 -0.66 5.02 -1 4 C0.32 3.34 1.64 2.68 3 2 C2.01 2 1.02 2 0 2 C0 1.34 0 0.68 0 0 Z " fill="#4BA378" transform="translate(605,278)"/>
<path d="M0 0 C0.66 0.33 1.32 0.66 2 1 C2 4.3 2 7.6 2 11 C1.01 11.495 1.01 11.495 0 12 C0 11.01 0 10.02 0 9 C-0.66 9 -1.32 9 -2 9 C-2 7.02 -2 5.04 -2 3 C-1.34 3 -0.68 3 0 3 C0 2.01 0 1.02 0 0 Z " fill="#DFF5FF" transform="translate(526,171)"/>
<path d="M0 0 C1.32 0 2.64 0 4 0 C4.66 2.64 5.32 5.28 6 8 C5.01 8.66 4.02 9.32 3 10 C0 3.375 0 3.375 0 0 Z " fill="#1A8B54" transform="translate(647,171)"/>
<path d="M0 0 C2.0625 0.1875 2.0625 0.1875 4 1 C4.33 1.99 4.66 2.98 5 4 C4.01 4.495 4.01 4.495 3 5 C3.33 5.66 3.66 6.32 4 7 C2.35 7 0.7 7 -1 7 C-1.625 4.625 -1.625 4.625 -2 2 C-1.34 1.34 -0.68 0.68 0 0 Z " fill="#469E71" transform="translate(622,278)"/>
<path d="M0 0 C2.49388574 4.98777148 1.88836125 6.66983248 1 12 C0.67 11.01 0.34 10.02 0 9 C-1.65 9 -3.3 9 -5 9 C-3.35 6.03 -1.7 3.06 0 0 Z " fill="#CFF1FD" transform="translate(670,171)"/>
<path d="M0 0 C1.65 0.33 3.3 0.66 5 1 C5 2.98 5 4.96 5 7 C3.02 7 1.04 7 -1 7 C-0.67 5.68 -0.34 4.36 0 3 C0.99 3 1.98 3 3 3 C3 2.34 3 1.68 3 1 C2.01 0.67 1.02 0.34 0 0 Z " fill="#3B9A6F" transform="translate(536,278)"/>
<path d="M0 0 C0.33 0 0.66 0 1 0 C1 3.63 1 7.26 1 11 C0.01 11 -0.98 11 -2 11 C-2.05399736 9.54207116 -2.09279177 8.08357288 -2.125 6.625 C-2.15980469 5.40683594 -2.15980469 5.40683594 -2.1953125 4.1640625 C-2 2 -2 2 0 0 Z " fill="#FAFCFB" transform="translate(408,164)"/>
<path d="M0 0 C1.99954746 -0.04254356 4.00041636 -0.04080783 6 0 C7 1 7 1 7.0625 4.5625 C7.041875 5.696875 7.02125 6.83125 7 8 C6.67 8 6.34 8 6 8 C5.67 6.02 5.34 4.04 5 2 C4.34 2 3.68 2 3 2 C2.67 3.98 2.34 5.96 2 8 C1.34 8 0.68 8 0 8 C0 5.36 0 2.72 0 0 Z " fill="#F0F5F1" transform="translate(525,349)"/>
<path d="M0 0 C0.66 0.33 1.32 0.66 2 1 C1.01 2.485 1.01 2.485 0 4 C-0.36268934 6.34923778 -0.50277147 8.66781915 -0.65625 11.0390625 C-0.7696875 11.68617188 -0.883125 12.33328125 -1 13 C-1.99 13.495 -1.99 13.495 -3 14 C-3.08114106 12.22992286 -3.13925505 10.45877902 -3.1875 8.6875 C-3.22230469 7.70136719 -3.25710938 6.71523437 -3.29296875 5.69921875 C-3 3 -3 3 -1.48828125 1.14453125 C-0.99714844 0.76683594 -0.50601562 0.38914063 0 0 Z " fill="#1C904B" transform="translate(407,162)"/>
<path d="M0 0 C2.31 0.33 4.62 0.66 7 1 C7 1.99 7 2.98 7 4 C3.7 4 0.4 4 -3 4 C-2.01 2.68 -1.02 1.36 0 0 Z " fill="#008236" transform="translate(663,179)"/>
<path d="M0 0 C1.32 0 2.64 0 4 0 C4 1.98 4 3.96 4 6 C2.35 5.67 0.7 5.34 -1 5 C-0.67 3.35 -0.34 1.7 0 0 Z " fill="#E1F2F3" transform="translate(565,174)"/>
<path d="M0 0 C2.0625 0.4375 2.0625 0.4375 4 1 C3.67 2.65 3.34 4.3 3 6 C1.68 6 0.36 6 -1 6 C-1.042721 4.33388095 -1.04063832 2.66617115 -1 1 C-0.67 0.67 -0.34 0.34 0 0 Z " fill="#F5F4E7" transform="translate(454,174)"/>
<path d="M0 0 C1.32 0 2.64 0 4 0 C2.75023244 3.65316671 2.32901247 4.78065836 -1 7 C-1.625 5.1875 -1.625 5.1875 -2 3 C-1.34 2.01 -0.68 1.02 0 0 Z " fill="#9AA7B9" transform="translate(553,350)"/>
<path d="M0 0 C0.99 0.33 1.98 0.66 3 1 C3 2.98 3 4.96 3 7 C1.68 7 0.36 7 -1 7 C-1.04254356 5.00045254 -1.04080783 2.99958364 -1 1 C-0.67 0.67 -0.34 0.34 0 0 Z " fill="#D1D8DB" transform="translate(518,346)"/>
<path d="M0 0 C0.66 1.32 1.32 2.64 2 4 C2.99 3.67 3.98 3.34 5 3 C4.79375 3.598125 4.5875 4.19625 4.375 4.8125 C3.69328085 7.28450846 3.69328085 7.28450846 6 10 C5.01 10 4.02 10 3 10 C2.67 9.34 2.34 8.68 2 8 C1.34 8.66 0.68 9.32 0 10 C0 6.7 0 3.4 0 0 Z " fill="#229069" transform="translate(479,275)"/>
<path d="M0 0 C1.98 0.495 1.98 0.495 4 1 C3.67 2.65 3.34 4.3 3 6 C1.68 5.67 0.36 5.34 -1 5 C-0.67 3.35 -0.34 1.7 0 0 Z " fill="#E2F5F4" transform="translate(468,174)"/>
<path d="M0 0 C1.98 0.495 1.98 0.495 4 1 C3.67 2.65 3.34 4.3 3 6 C1.68 5.67 0.36 5.34 -1 5 C-0.67 3.35 -0.34 1.7 0 0 Z " fill="#EBFAFA" transform="translate(439,174)"/>
<path d="M0 0 C0.33 0 0.66 0 1 0 C1 3.3 1 6.6 1 10 C-0.98 10 -2.96 10 -5 10 C-4.67 8.68 -4.34 7.36 -4 6 C-3.34 6.66 -2.68 7.32 -2 8 C-1.34 5.36 -0.68 2.72 0 0 Z " fill="#2B8F6A" transform="translate(582,275)"/>
<path d="M0 0 C0.99 0.33 1.98 0.66 3 1 C3 1.99 3 2.98 3 4 C2.34 4 1.68 4 1 4 C1 5.98 1 7.96 1 10 C0.34 10 -0.32 10 -1 10 C-2.25 3.375 -2.25 3.375 0 0 Z " fill="#51975B" transform="translate(556,275)"/>
<path d="M0 0 C0.66 0 1.32 0 2 0 C2 2.64 2 5.28 2 8 C1.01 7.67 0.02 7.34 -1 7 C-2 4 -2 4 -1.0625 1.8125 C-0.5365625 0.9153125 -0.5365625 0.9153125 0 0 Z " fill="#098236" transform="translate(636,175)"/>
<path d="M0 0 C0.33 0 0.66 0 1 0 C1 3.96 1 7.92 1 12 C0.67 11.01 0.34 10.02 0 9 C-0.66 9 -1.32 9 -2 9 C-2 7.02 -2 5.04 -2 3 C-1.34 3 -0.68 3 0 3 C0 2.01 0 1.02 0 0 Z " fill="#E0F8FF" transform="translate(552,171)"/>
<path d="M0 0 C0.66 0 1.32 0 2 0 C2 0.66 2 1.32 2 2 C2.66 2.33 3.32 2.66 4 3 C3.34 3 2.68 3 2 3 C2.33 4.98 2.66 6.96 3 9 C2.01 8.67 1.02 8.34 0 8 C-1.125 2.25 -1.125 2.25 0 0 Z " fill="#449053" transform="translate(490,276)"/>
<path d="M0 0 C0.66 0.33 1.32 0.66 2 1 C-0.48952921 3.66735273 -2.63408134 5.55746343 -6 7 C-4.60667426 3.63279613 -3.0210714 2.0140476 0 0 Z " fill="#118649" transform="translate(666,175)"/>
<path d="M0 0 C0.99 0.33 1.98 0.66 3 1 C1.68 3.31 0.36 5.62 -1 8 C-1.93065133 5.39417629 -2.14917407 4.35801776 -1.0625 1.75 C-0.711875 1.1725 -0.36125 0.595 0 0 Z " fill="#DFE6E2" transform="translate(551,349)"/>
<path d="M0 0 C0.66 0 1.32 0 2 0 C2 2.31 2 4.62 2 7 C1.01 7.33 0.02 7.66 -1 8 C-0.67 5.36 -0.34 2.72 0 0 Z " fill="#0F8A41" transform="translate(549,252)"/>
</svg>
