<?xml version="1.0" encoding="UTF-8"?>
<svg version="1.1" xmlns="http://www.w3.org/2000/svg" width="2436" height="1276">
<path d="M0 0 C803.88 0 1607.76 0 2436 0 C2436 421.08 2436 842.16 2436 1276 C1632.12 1276 828.24 1276 0 1276 C0 854.92 0 433.84 0 0 Z " fill="#EBFCF8" transform="translate(0,0)"/>
<path d="M0 0 C2.31 0 4.62 0 7 0 C7 0.66 7 1.32 7 2 C8.32 2 9.64 2 11 2 C11 1.34 11 0.68 11 0 C12.98 0 14.96 0 17 0 C17 0.66 17 1.32 17 2 C18.32 2 19.64 2 21 2 C21 1.34 21 0.68 21 0 C22.98 0 24.96 0 27 0 C27 0.66 27 1.32 27 2 C28.32 2 29.64 2 31 2 C31 1.34 31 0.68 31 0 C32.98 0 34.96 0 37 0 C37 0.66 37 1.32 37 2 C38.32 2 39.64 2 41 2 C41 1.34 41 0.68 41 0 C42.98 0 44.96 0 47 0 C47 0.66 47 1.32 47 2 C48.32 2 49.64 2 51 2 C51 1.34 51 0.68 51 0 C52.98 0 54.96 0 57 0 C57 0.66 57 1.32 57 2 C58.32 2 59.64 2 61 2 C61 1.34 61 0.68 61 0 C62.98 0 64.96 0 67 0 C67 0.66 67 1.32 67 2 C67.99 2 68.98 2 70 2 C70 1.34 70 0.68 70 0 C72.31 0 74.62 0 77 0 C77 0.66 77 1.32 77 2 C77.99 2 78.98 2 80 2 C80 1.34 80 0.68 80 0 C82.31 0 84.62 0 87 0 C87 0.66 87 1.32 87 2 C87.99 2 88.98 2 90 2 C90 1.34 90 0.68 90 0 C92.31 0 94.62 0 97 0 C97 0.66 97 1.32 97 2 C97.99 2 98.98 2 100 2 C100 1.34 100 0.68 100 0 C102.31 0 104.62 0 107 0 C107 0.66 107 1.32 107 2 C107.99 2 108.98 2 110 2 C110 1.34 110 0.68 110 0 C112.31 0 114.62 0 117 0 C117 0.66 117 1.32 117 2 C117.99 2 118.98 2 120 2 C120 1.34 120 0.68 120 0 C122.31 0 124.62 0 127 0 C127 0.66 127 1.32 127 2 C127.99 2 128.98 2 130 2 C130 1.34 130 0.68 130 0 C132.31 0 134.62 0 137 0 C137 0.66 137 1.32 137 2 C137.99 2 138.98 2 140 2 C140 1.34 140 0.68 140 0 C142.31 0 144.62 0 147 0 C147 0.66 147 1.32 147 2 C147.99 2 148.98 2 150 2 C150 1.34 150 0.68 150 0 C152.31 0 154.62 0 157 0 C157 0.66 157 1.32 157 2 C157.99 2 158.98 2 160 2 C160 1.34 160 0.68 160 0 C162.31 0 164.62 0 167 0 C167 0.66 167 1.32 167 2 C167.99 2 168.98 2 170 2 C170 1.34 170 0.68 170 0 C172.31 0 174.62 0 177 0 C177 0.66 177 1.32 177 2 C177.99 2 178.98 2 180 2 C180 1.34 180 0.68 180 0 C182.31 0 184.62 0 187 0 C187 0.66 187 1.32 187 2 C187.99 2 188.98 2 190 2 C190 1.34 190 0.68 190 0 C192.31 0 194.62 0 197 0 C197 0.66 197 1.32 197 2 C197.99 2 198.98 2 200 2 C200 1.34 200 0.68 200 0 C202.31 0 204.62 0 207 0 C207 0.66 207 1.32 207 2 C207.99 2 208.98 2 210 2 C210 1.34 210 0.68 210 0 C212.31 0 214.62 0 217 0 C217 0.66 217 1.32 217 2 C217.99 2 218.98 2 220 2 C220 1.34 220 0.68 220 0 C222.31 0 224.62 0 227 0 C227 0.66 227 1.32 227 2 C227.99 2 228.98 2 230 2 C230 1.34 230 0.68 230 0 C232.31 0 234.62 0 237 0 C237 0.66 237 1.32 237 2 C237.99 2 238.98 2 240 2 C240 1.34 240 0.68 240 0 C242.31 0 244.62 0 247 0 C247 0.66 247 1.32 247 2 C247.99 2 248.98 2 250 2 C250 1.34 250 0.68 250 0 C252.31 0 254.62 0 257 0 C257 0.66 257 1.32 257 2 C257.99 2 258.98 2 260 2 C260 1.34 260 0.68 260 0 C262.31 0 264.62 0 267 0 C267 0.66 267 1.32 267 2 C267.99 2 268.98 2 270 2 C270 1.34 270 0.68 270 0 C272.31 0 274.62 0 277 0 C277 0.66 277 1.32 277 2 C277.99 2 278.98 2 280 2 C280 1.34 280 0.68 280 0 C282.31 0 284.62 0 287 0 C287 0.66 287 1.32 287 2 C287.99 2 288.98 2 290 2 C290 1.34 290 0.68 290 0 C292.31 0 294.62 0 297 0 C297 0.66 297 1.32 297 2 C297.99 2 298.98 2 300 2 C300 1.34 300 0.68 300 0 C302.31 0 304.62 0 307 0 C307 0.66 307 1.32 307 2 C307.99 2 308.98 2 310 2 C310 1.34 310 0.68 310 0 C312.31 0 314.62 0 317 0 C317 0.66 317 1.32 317 2 C317.99 2 318.98 2 320 2 C320 1.34 320 0.68 320 0 C322.31 0 324.62 0 327 0 C327 0.66 327 1.32 327 2 C327.99 2 328.98 2 330 2 C330 1.34 330 0.68 330 0 C332.31 0 334.62 0 337 0 C337 0.66 337 1.32 337 2 C337.99 2 338.98 2 340 2 C340 1.34 340 0.68 340 0 C342.31 0 344.62 0 347 0 C347 0.66 347 1.32 347 2 C347.99 2 348.98 2 350 2 C350 1.34 350 0.68 350 0 C352.31 0 354.62 0 357 0 C357 0.66 357 1.32 357 2 C357.99 2 358.98 2 360 2 C360 1.34 360 0.68 360 0 C362.31 0 364.62 0 367 0 C367 0.66 367 1.32 367 2 C367.99 2 368.98 2 370 2 C370 1.34 370 0.68 370 0 C372.31 0 374.62 0 377 0 C377 0.66 377 1.32 377 2 C377.99 2 378.98 2 380 2 C380 1.34 380 0.68 380 0 C382.31 0 384.62 0 387 0 C387 0.66 387 1.32 387 2 C387.99 2 388.98 2 390 2 C390 1.34 390 0.68 390 0 C392.31 0 394.62 0 397 0 C397 0.66 397 1.32 397 2 C397.99 2 398.98 2 400 2 C400 1.34 400 0.68 400 0 C402.31 0 404.62 0 407 0 C407 0.66 407 1.32 407 2 C407.99 2 408.98 2 410 2 C410 1.34 410 0.68 410 0 C412.31 0 414.62 0 417 0 C417 0.66 417 1.32 417 2 C417.99 2 418.98 2 420 2 C420 1.34 420 0.68 420 0 C422.31 0 424.62 0 427 0 C427 0.66 427 1.32 427 2 C427.99 2 428.98 2 430 2 C430 1.34 430 0.68 430 0 C432.31 0 434.62 0 437 0 C437 0.66 437 1.32 437 2 C437.99 2 438.98 2 440 2 C440 1.34 440 0.68 440 0 C442.31 0 444.62 0 447 0 C447 0.66 447 1.32 447 2 C447.99 2 448.98 2 450 2 C450 1.34 450 0.68 450 0 C452.31 0 454.62 0 457 0 C457 0.66 457 1.32 457 2 C457.99 2 458.98 2 460 2 C460 1.34 460 0.68 460 0 C461.98 0 463.96 0 466 0 C466 0.66 466 1.32 466 2 C467.32 2 468.64 2 470 2 C470 1.34 470 0.68 470 0 C471.98 0 473.96 0 476 0 C476 0.66 476 1.32 476 2 C477.32 2 478.64 2 480 2 C480 1.34 480 0.68 480 0 C481.98 0 483.96 0 486 0 C486 0.66 486 1.32 486 2 C487.32 2 488.64 2 490 2 C490 1.34 490 0.68 490 0 C491.98 0 493.96 0 496 0 C496 0.66 496 1.32 496 2 C497.32 2 498.64 2 500 2 C500 1.34 500 0.68 500 0 C501.98 0 503.96 0 506 0 C506 0.66 506 1.32 506 2 C507.32 2 508.64 2 510 2 C510 1.34 510 0.68 510 0 C511.98 0 513.96 0 516 0 C516 0.66 516 1.32 516 2 C517.32 2 518.64 2 520 2 C520 1.34 520 0.68 520 0 C521.98 0 523.96 0 526 0 C526 0.66 526 1.32 526 2 C527.32 2 528.64 2 530 2 C530 1.34 530 0.68 530 0 C531.98 0 533.96 0 536 0 C536 0.66 536 1.32 536 2 C537.32 2 538.64 2 540 2 C540 1.34 540 0.68 540 0 C541.98 0 543.96 0 546 0 C546 0.66 546 1.32 546 2 C547.32 2 548.64 2 550 2 C550 1.34 550 0.68 550 0 C551.98 0 553.96 0 556 0 C556 0.66 556 1.32 556 2 C557.32 2 558.64 2 560 2 C560 1.34 560 0.68 560 0 C561.98 0 563.96 0 566 0 C566 0.66 566 1.32 566 2 C567.32 2 568.64 2 570 2 C570 1.34 570 0.68 570 0 C571.98 0 573.96 0 576 0 C576 0.66 576 1.32 576 2 C577.36125 1.62875 577.36125 1.62875 578.75 1.25 C582 1 582 1 584.375 2.8125 C586 5 586 5 586 7 C586.639375 7.28875 587.27875 7.5775 587.9375 7.875 C590 9 590 9 591 11 C591.07092842 13.2072923 591.08415025 15.41667452 591.0625 17.625 C591.05347656 18.81351563 591.04445313 20.00203125 591.03515625 21.2265625 C591.01775391 22.59941406 591.01775391 22.59941406 591 24 C590.34 24 589.68 24 589 24 C589 24.99 589 25.98 589 27 C589.66 27 590.32 27 591 27 C591 29.31 591 31.62 591 34 C590.34 34 589.68 34 589 34 C589 34.99 589 35.98 589 37 C589.66 37 590.32 37 591 37 C591 39.31 591 41.62 591 44 C590.34 44 589.68 44 589 44 C589 44.99 589 45.98 589 47 C589.66 47 590.32 47 591 47 C591 49.31 591 51.62 591 54 C590.34 54 589.68 54 589 54 C589 54.99 589 55.98 589 57 C589.66 57 590.32 57 591 57 C591 59.31 591 61.62 591 64 C590.34 64 589.68 64 589 64 C589 64.99 589 65.98 589 67 C589.66 67 590.32 67 591 67 C591 69.31 591 71.62 591 74 C590.34 74 589.68 74 589 74 C589 74.99 589 75.98 589 77 C589.66 77 590.32 77 591 77 C591 79.31 591 81.62 591 84 C590.34 84 589.68 84 589 84 C589 84.99 589 85.98 589 87 C589.66 87 590.32 87 591 87 C591 89.31 591 91.62 591 94 C590.34 94 589.68 94 589 94 C589 94.99 589 95.98 589 97 C589.66 97 590.32 97 591 97 C591 99.31 591 101.62 591 104 C590.34 104 589.68 104 589 104 C589 104.99 589 105.98 589 107 C589.66 107 590.32 107 591 107 C591 109.31 591 111.62 591 114 C590.34 114 589.68 114 589 114 C589 114.99 589 115.98 589 117 C589.66 117 590.32 117 591 117 C591 119.31 591 121.62 591 124 C590.34 124 589.68 124 589 124 C589 124.99 589 125.98 589 127 C589.66 127 590.32 127 591 127 C591 129.31 591 131.62 591 134 C590.34 134 589.68 134 589 134 C589 134.99 589 135.98 589 137 C589.66 137 590.32 137 591 137 C591 139.31 591 141.62 591 144 C590.34 144 589.68 144 589 144 C589 144.99 589 145.98 589 147 C589.66 147 590.32 147 591 147 C591 149.31 591 151.62 591 154 C590.34 154 589.68 154 589 154 C589 154.99 589 155.98 589 157 C589.66 157 590.32 157 591 157 C591 159.31 591 161.62 591 164 C590.34 164 589.68 164 589 164 C589 164.99 589 165.98 589 167 C589.66 167 590.32 167 591 167 C591 169.31 591 171.62 591 174 C590.34 174 589.68 174 589 174 C589 174.99 589 175.98 589 177 C589.66 177 590.32 177 591 177 C591 179.31 591 181.62 591 184 C590.34 184 589.68 184 589 184 C589.185625 185.11375 589.37125 186.2275 589.5625 187.375 C590 191 590 191 589 193 C586.9375 193.625 586.9375 193.625 585 194 C584.67 195.32 584.34 196.64 584 198 C580.71303767 198.79953138 579.28976808 199.09658936 576 198 C576 198.66 576 199.32 576 200 C573.69 200 571.38 200 569 200 C569 199.34 569 198.68 569 198 C568.01 198 567.02 198 566 198 C566 198.66 566 199.32 566 200 C563.69 200 561.38 200 559 200 C559 199.34 559 198.68 559 198 C558.01 198 557.02 198 556 198 C556 198.66 556 199.32 556 200 C553.69 200 551.38 200 549 200 C549 199.34 549 198.68 549 198 C548.01 198 547.02 198 546 198 C546 198.66 546 199.32 546 200 C543.69 200 541.38 200 539 200 C539 199.34 539 198.68 539 198 C538.01 198 537.02 198 536 198 C536 198.66 536 199.32 536 200 C533.69 200 531.38 200 529 200 C529 199.34 529 198.68 529 198 C528.01 198 527.02 198 526 198 C526 198.66 526 199.32 526 200 C523.69 200 521.38 200 519 200 C519 199.34 519 198.68 519 198 C518.01 198 517.02 198 516 198 C516 198.66 516 199.32 516 200 C513.69 200 511.38 200 509 200 C509 199.34 509 198.68 509 198 C508.01 198 507.02 198 506 198 C506 198.66 506 199.32 506 200 C503.69 200 501.38 200 499 200 C499 199.34 499 198.68 499 198 C498.01 198 497.02 198 496 198 C496 198.66 496 199.32 496 200 C493.69 200 491.38 200 489 200 C489 199.34 489 198.68 489 198 C488.01 198 487.02 198 486 198 C486 198.66 486 199.32 486 200 C483.69 200 481.38 200 479 200 C479 199.34 479 198.68 479 198 C478.01 198 477.02 198 476 198 C476 198.66 476 199.32 476 200 C473.69 200 471.38 200 469 200 C469 199.34 469 198.68 469 198 C468.01 198 467.02 198 466 198 C466 198.66 466 199.32 466 200 C463.69 200 461.38 200 459 200 C459 199.34 459 198.68 459 198 C458.01 198 457.02 198 456 198 C456 198.66 456 199.32 456 200 C453.69 200 451.38 200 449 200 C449 199.34 449 198.68 449 198 C448.01 198 447.02 198 446 198 C446 198.66 446 199.32 446 200 C443.69 200 441.38 200 439 200 C439 199.34 439 198.68 439 198 C438.01 198 437.02 198 436 198 C436 198.66 436 199.32 436 200 C433.69 200 431.38 200 429 200 C429 199.34 429 198.68 429 198 C428.01 198 427.02 198 426 198 C426 198.66 426 199.32 426 200 C423.69 200 421.38 200 419 200 C419 199.34 419 198.68 419 198 C418.01 198 417.02 198 416 198 C416 198.66 416 199.32 416 200 C413.69 200 411.38 200 409 200 C409 199.34 409 198.68 409 198 C408.01 198 407.02 198 406 198 C406 198.66 406 199.32 406 200 C403.69 200 401.38 200 399 200 C399 199.34 399 198.68 399 198 C398.01 198 397.02 198 396 198 C396 198.66 396 199.32 396 200 C393.69 200 391.38 200 389 200 C389 199.34 389 198.68 389 198 C388.01 198 387.02 198 386 198 C386 198.66 386 199.32 386 200 C383.69 200 381.38 200 379 200 C379 199.34 379 198.68 379 198 C378.01 198 377.02 198 376 198 C376 198.66 376 199.32 376 200 C373.69 200 371.38 200 369 200 C369 199.34 369 198.68 369 198 C368.01 198 367.02 198 366 198 C366 198.66 366 199.32 366 200 C363.69 200 361.38 200 359 200 C359 199.34 359 198.68 359 198 C358.01 198 357.02 198 356 198 C356 198.66 356 199.32 356 200 C353.69 200 351.38 200 349 200 C349 199.34 349 198.68 349 198 C348.01 198 347.02 198 346 198 C346 198.66 346 199.32 346 200 C343.69 200 341.38 200 339 200 C339 199.34 339 198.68 339 198 C338.01 198 337.02 198 336 198 C336 198.66 336 199.32 336 200 C333.69 200 331.38 200 329 200 C329 199.34 329 198.68 329 198 C328.01 198 327.02 198 326 198 C326 198.66 326 199.32 326 200 C323.69 200 321.38 200 319 200 C319 199.34 319 198.68 319 198 C318.01 198 317.02 198 316 198 C316 198.66 316 199.32 316 200 C313.69 200 311.38 200 309 200 C309 199.34 309 198.68 309 198 C308.01 198 307.02 198 306 198 C306 198.66 306 199.32 306 200 C303.69 200 301.38 200 299 200 C299 199.34 299 198.68 299 198 C298.01 198 297.02 198 296 198 C296 198.66 296 199.32 296 200 C293.69 200 291.38 200 289 200 C289 199.34 289 198.68 289 198 C288.01 198 287.02 198 286 198 C286 198.66 286 199.32 286 200 C283.69 200 281.38 200 279 200 C279 199.34 279 198.68 279 198 C278.01 198 277.02 198 276 198 C276 198.66 276 199.32 276 200 C274.02 200 272.04 200 270 200 C270 199.34 270 198.68 270 198 C268.68 198 267.36 198 266 198 C266 198.66 266 199.32 266 200 C264.02 200 262.04 200 260 200 C260 199.34 260 198.68 260 198 C258.68 198 257.36 198 256 198 C256 198.66 256 199.32 256 200 C254.02 200 252.04 200 250 200 C250 199.34 250 198.68 250 198 C248.68 198 247.36 198 246 198 C246 198.66 246 199.32 246 200 C244.02 200 242.04 200 240 200 C240 199.34 240 198.68 240 198 C238.68 198 237.36 198 236 198 C236 198.66 236 199.32 236 200 C234.02 200 232.04 200 230 200 C230 199.34 230 198.68 230 198 C228.68 198 227.36 198 226 198 C226 198.66 226 199.32 226 200 C224.02 200 222.04 200 220 200 C220 199.34 220 198.68 220 198 C218.68 198 217.36 198 216 198 C216 198.66 216 199.32 216 200 C214.02 200 212.04 200 210 200 C210 199.34 210 198.68 210 198 C208.68 198 207.36 198 206 198 C206 198.66 206 199.32 206 200 C204.02 200 202.04 200 200 200 C200 199.34 200 198.68 200 198 C198.68 198 197.36 198 196 198 C196 198.66 196 199.32 196 200 C194.02 200 192.04 200 190 200 C190 199.34 190 198.68 190 198 C188.68 198 187.36 198 186 198 C186 198.66 186 199.32 186 200 C184.02 200 182.04 200 180 200 C180 199.34 180 198.68 180 198 C178.68 198 177.36 198 176 198 C176 198.66 176 199.32 176 200 C174.02 200 172.04 200 170 200 C170 199.34 170 198.68 170 198 C168.68 198 167.36 198 166 198 C166 198.66 166 199.32 166 200 C164.02 200 162.04 200 160 200 C160 199.34 160 198.68 160 198 C158.68 198 157.36 198 156 198 C156 198.66 156 199.32 156 200 C154.02 200 152.04 200 150 200 C150 199.34 150 198.68 150 198 C149.01 198 148.02 198 147 198 C147 198.66 147 199.32 147 200 C144.69 200 142.38 200 140 200 C140 199.34 140 198.68 140 198 C139.01 198 138.02 198 137 198 C137 198.66 137 199.32 137 200 C134.69 200 132.38 200 130 200 C130 199.34 130 198.68 130 198 C129.01 198 128.02 198 127 198 C127 198.66 127 199.32 127 200 C124.69 200 122.38 200 120 200 C120 199.34 120 198.68 120 198 C119.01 198 118.02 198 117 198 C117 198.66 117 199.32 117 200 C114.69 200 112.38 200 110 200 C110 199.34 110 198.68 110 198 C109.01 198 108.02 198 107 198 C107 198.66 107 199.32 107 200 C104.69 200 102.38 200 100 200 C100 199.34 100 198.68 100 198 C99.01 198 98.02 198 97 198 C97 198.66 97 199.32 97 200 C94.69 200 92.38 200 90 200 C90 199.34 90 198.68 90 198 C89.01 198 88.02 198 87 198 C87 198.66 87 199.32 87 200 C84.69 200 82.38 200 80 200 C80 199.34 80 198.68 80 198 C79.01 198 78.02 198 77 198 C77 198.66 77 199.32 77 200 C74.69 200 72.38 200 70 200 C70 199.34 70 198.68 70 198 C69.01 198 68.02 198 67 198 C67 198.66 67 199.32 67 200 C64.69 200 62.38 200 60 200 C60 199.34 60 198.68 60 198 C59.01 198 58.02 198 57 198 C57 198.66 57 199.32 57 200 C54.69 200 52.38 200 50 200 C50 199.34 50 198.68 50 198 C49.01 198 48.02 198 47 198 C47 198.66 47 199.32 47 200 C44.69 200 42.38 200 40 200 C40 199.34 40 198.68 40 198 C39.01 198 38.02 198 37 198 C37 198.66 37 199.32 37 200 C34.69 200 32.38 200 30 200 C30 199.34 30 198.68 30 198 C29.01 198 28.02 198 27 198 C27 198.66 27 199.32 27 200 C24.69 200 22.38 200 20 200 C20 199.34 20 198.68 20 198 C19.01 198 18.02 198 17 198 C17 198.66 17 199.32 17 200 C14.69 200 12.38 200 10 200 C10 199.34 10 198.68 10 198 C9.01 198 8.02 198 7 198 C7 198.66 7 199.32 7 200 C4.69 200 2.38 200 0 200 C0 199.34 0 198.68 0 198 C-0.928125 198.20625 -1.85625 198.4125 -2.8125 198.625 C-6 199 -6 199 -9 197 C-9.6875 194.875 -9.6875 194.875 -10 193 C-10.99 193 -11.98 193 -13 193 C-15.25998595 189.40537669 -15.20868087 186.43404325 -15.125 182.25 C-15.09792969 180.49429688 -15.09792969 180.49429688 -15.0703125 178.703125 C-15.04710937 177.81109375 -15.02390625 176.9190625 -15 176 C-14.34 176 -13.68 176 -13 176 C-13 175.01 -13 174.02 -13 173 C-13.66 173 -14.32 173 -15 173 C-15 171.02 -15 169.04 -15 167 C-14.34 167 -13.68 167 -13 167 C-13 165.68 -13 164.36 -13 163 C-13.66 163 -14.32 163 -15 163 C-15 161.02 -15 159.04 -15 157 C-14.34 157 -13.68 157 -13 157 C-13 155.68 -13 154.36 -13 153 C-13.66 153 -14.32 153 -15 153 C-15 151.02 -15 149.04 -15 147 C-14.34 147 -13.68 147 -13 147 C-13 145.68 -13 144.36 -13 143 C-13.66 143 -14.32 143 -15 143 C-15 141.02 -15 139.04 -15 137 C-14.34 137 -13.68 137 -13 137 C-13 135.68 -13 134.36 -13 133 C-13.66 133 -14.32 133 -15 133 C-15 131.02 -15 129.04 -15 127 C-14.34 127 -13.68 127 -13 127 C-13 125.68 -13 124.36 -13 123 C-13.66 123 -14.32 123 -15 123 C-15 121.02 -15 119.04 -15 117 C-14.34 117 -13.68 117 -13 117 C-13 115.68 -13 114.36 -13 113 C-13.66 113 -14.32 113 -15 113 C-15 111.02 -15 109.04 -15 107 C-14.34 107 -13.68 107 -13 107 C-13 105.68 -13 104.36 -13 103 C-13.66 103 -14.32 103 -15 103 C-15 101.02 -15 99.04 -15 97 C-14.34 97 -13.68 97 -13 97 C-13 95.68 -13 94.36 -13 93 C-13.66 93 -14.32 93 -15 93 C-15 91.02 -15 89.04 -15 87 C-14.34 87 -13.68 87 -13 87 C-13 85.68 -13 84.36 -13 83 C-13.66 83 -14.32 83 -15 83 C-15 81.02 -15 79.04 -15 77 C-14.34 77 -13.68 77 -13 77 C-13 75.68 -13 74.36 -13 73 C-13.66 73 -14.32 73 -15 73 C-15 71.02 -15 69.04 -15 67 C-14.34 67 -13.68 67 -13 67 C-13 65.68 -13 64.36 -13 63 C-13.66 63 -14.32 63 -15 63 C-15 61.02 -15 59.04 -15 57 C-14.34 57 -13.68 57 -13 57 C-13 55.68 -13 54.36 -13 53 C-13.66 53 -14.32 53 -15 53 C-15 51.02 -15 49.04 -15 47 C-14.34 47 -13.68 47 -13 47 C-13 46.01 -13 45.02 -13 44 C-13.66 44 -14.32 44 -15 44 C-15 41.69 -15 39.38 -15 37 C-14.34 37 -13.68 37 -13 37 C-13 36.01 -13 35.02 -13 34 C-13.66 34 -14.32 34 -15 34 C-15 31.69 -15 29.38 -15 27 C-14.34 27 -13.68 27 -13 27 C-13 26.01 -13 25.02 -13 24 C-13.66 24 -14.32 24 -15 24 C-15 21.69 -15 19.38 -15 17 C-14.34 17 -13.68 17 -13 17 C-13.37125 16.0925 -13.7425 15.185 -14.125 14.25 C-15 11 -15 11 -14.125 8.625 C-13.75375 8.08875 -13.3825 7.5525 -13 7 C-12.01 7 -11.02 7 -10 7 C-9.7525 6.195625 -9.505 5.39125 -9.25 4.5625 C-8 2 -8 2 -6.125 1.125 C-3.85501045 0.9914712 -2.1564777 1.30684645 0 2 C0 1.34 0 0.68 0 0 Z " fill="#D4F8F1" transform="translate(914,589)"/>
<path d="M0 0 C9 0 9 0 11.10742188 1.72827148 C11.55666016 2.51790283 12.00589844 3.30753418 12.46875 4.12109375 C12.97664063 4.97380859 13.48453125 5.82652344 14.0078125 6.70507812 C14.74644531 8.05762695 14.74644531 8.05762695 15.5 9.4375 C16.02335937 10.33533203 16.54671875 11.23316406 17.0859375 12.15820312 C18.04871527 13.81063906 18.99750435 15.47135893 19.92773438 17.14233398 C20.86504873 18.95135533 20.86504873 18.95135533 22 20 C22.33 13.4 22.66 6.8 23 0 C25.31 0 27.62 0 30 0 C30 11.22 30 22.44 30 34 C22 34 22 34 20.12963867 32.42700195 C19.7297876 31.70472412 19.32993652 30.98244629 18.91796875 30.23828125 C18.46099609 29.44873047 18.00402344 28.65917969 17.53320312 27.84570312 C17.08912109 27.00974609 16.64503906 26.17378906 16.1875 25.3125 C15.72408203 24.49587891 15.26066406 23.67925781 14.78320312 22.83789062 C13.91629222 21.306224 13.06151159 19.76757761 12.22338867 18.2199707 C10.87768723 15.77805029 9.43450123 13.39083539 8 11 C7.67 18.59 7.34 26.18 7 34 C4.69 34 2.38 34 0 34 C0 22.78 0 11.56 0 0 Z " fill="#089C70" transform="translate(1085,442)"/>
<path d="M0 0 C4.13561256 3.33146568 6.06291384 5.33919645 6.75 10.75 C6.49567614 15.92451239 3.8287011 19.2337989 0.25 22.8125 C-3.54060208 24.27042388 -7.757967 24.36524303 -11.75 23.8125 C-15.15766001 22.10867 -17.13497834 20.81889908 -19.125 17.5625 C-20.21704921 12.75748347 -20.47473153 8.62432881 -18.625 4 C-13.7564764 -1.6799442 -6.80259679 -2.93748498 0 0 Z " fill="#0C99AC" transform="translate(1301.75,452.1875)"/>
<path d="M0 0 C2.64 0 5.28 0 8 0 C10.31 7.92 12.62 15.84 15 24 C15.763125 21.710625 16.52625 19.42125 17.3125 17.0625 C19.20833333 11.375 21.10416667 5.6875 23 0 C25.31 0 27.62 0 30 0 C28.5203376 7.37507122 26.34699552 14.37927265 23.9375 21.5 C23.57333984 22.59570312 23.20917969 23.69140625 22.83398438 24.8203125 C20.13368056 32.86631944 20.13368056 32.86631944 19 34 C16.32941149 34.14115161 13.67567762 34.04247107 11 34 C8.15595038 27.10009643 5.60221652 20.14438794 3.25 13.0625 C2.93417969 12.13115234 2.61835937 11.19980469 2.29296875 10.24023438 C1.84630859 8.9012207 1.84630859 8.9012207 1.390625 7.53515625 C1.12282227 6.734729 0.85501953 5.93430176 0.57910156 5.10961914 C0 3 0 3 0 0 Z " fill="#08998F" transform="translate(1201,442)"/>
<path d="M0 0 C1.32 0.33 2.64 0.66 4 1 C4 4.96 4 8.92 4 13 C4.9075 13.268125 5.815 13.53625 6.75 13.8125 C9.71471963 14.89576294 11.6169754 15.98359457 14 18 C13.67 19.32 13.34 20.64 13 22 C9.04 22 5.08 22 1 22 C0.731875 22.9075 0.46375 23.815 0.1875 24.75 C-0.89576294 27.71471963 -1.98359457 29.6169754 -4 32 C-5.32 31.67 -6.64 31.34 -8 31 C-8 27.04 -8 23.08 -8 19 C-8.9075 18.731875 -9.815 18.46375 -10.75 18.1875 C-13.71471963 17.10423706 -15.6169754 16.01640543 -18 14 C-17.67 12.68 -17.34 11.36 -17 10 C-13.04 10 -9.08 10 -5 10 C-4.731875 9.0925 -4.46375 8.185 -4.1875 7.25 C-3.10423706 4.28528037 -2.01640543 2.3830246 0 0 Z " fill="#F0B817" transform="translate(1369,440)"/>
<path d="M0 0 C0.02496844 4.51659796 0.04298537 9.03315791 0.05493164 13.54980469 C0.05991896 15.08203838 0.06671122 16.61426742 0.07543945 18.14648438 C0.12174177 26.49179593 0.04734171 34.70373415 -1 43 C-1.99 43 -2.98 43 -4 43 C-4 38.38 -4 33.76 -4 29 C-5.98 29 -7.96 29 -10 29 C-12.34375 27.4921875 -12.34375 27.4921875 -14 25 C-14.402858 22.20961592 -14.56114386 19.90195049 -14.5 17.125 C-14.51546875 16.43019531 -14.5309375 15.73539062 -14.546875 15.01953125 C-14.50102328 8.93271505 -12.34223793 5.34223793 -8.125 1.125 C-5.33543072 -0.35183079 -3.11464766 -0.07638101 0 0 Z " fill="#089C6B" transform="translate(1065,435)"/>
<path d="M0 0 C2.31 0 4.62 0 7 0 C7.33 0.99 7.66 1.98 8 3 C8.804375 2.2575 8.804375 2.2575 9.625 1.5 C12.74008151 -0.4674199 14.37170989 -0.5923739 18 0 C20.93015518 2.0691008 22.76381186 3.652533 23.40063477 7.28564453 C23.49216823 9.97759515 23.43609353 12.62196398 23.3125 15.3125 C23.28994141 16.24384766 23.26738281 17.17519531 23.24414062 18.13476562 C23.18542078 20.4248396 23.10336858 22.71157875 23 25 C20.69 25 18.38 25 16 25 C15.93941406 23.78441406 15.87882812 22.56882812 15.81640625 21.31640625 C15.73201668 19.73175772 15.6473679 18.14712298 15.5625 16.5625 C15.52318359 15.76005859 15.48386719 14.95761719 15.44335938 14.13085938 C15.5945704 10.24760439 15.5945704 10.24760439 14 7 C12.33382885 6.95936168 10.66611905 6.957279 9 7 C7.414131 10.171738 7.62133555 13.63513822 7.4375 17.125 C7.39431641 17.87910156 7.35113281 18.63320313 7.30664062 19.41015625 C7.2005168 21.27321888 7.09974999 23.13658524 7 25 C4.69 25 2.38 25 0 25 C0 16.75 0 8.5 0 0 Z " fill="#0495B4" transform="translate(1313,451)"/>
<path d="M0 0 C2.31 0 4.62 0 7 0 C7.06058594 1.21558594 7.12117188 2.43117188 7.18359375 3.68359375 C7.26798332 5.26824228 7.3526321 6.85287702 7.4375 8.4375 C7.47681641 9.23994141 7.51613281 10.04238281 7.55664062 10.86914062 C7.4054296 14.75239561 7.4054296 14.75239561 9 18 C11.5 18.16666667 11.5 18.16666667 14 18 C16.11925604 15.88074396 15.41831017 11.3803907 15.5625 8.4375 C15.60568359 7.63119141 15.64886719 6.82488281 15.69335938 5.99414062 C15.79975262 3.99631195 15.90040888 1.9981793 16 0 C18.31 0 20.62 0 23 0 C23 8.25 23 16.5 23 25 C20.69 25 18.38 25 16 25 C15.67 24.01 15.34 23.02 15 22 C14.46375 22.495 13.9275 22.99 13.375 23.5 C10.29889257 25.44280469 8.58110811 25.52224493 5 25 C2.69724444 23.1329009 1.32176129 21.64352259 0 19 C-0.08342159 17.55151418 -0.10732861 16.09929131 -0.09765625 14.6484375 C-0.09443359 13.79765625 -0.09121094 12.946875 -0.08789062 12.0703125 C-0.07951172 11.18085938 -0.07113281 10.29140625 -0.0625 9.375 C-0.05798828 8.4778125 -0.05347656 7.580625 -0.04882812 6.65625 C-0.03702591 4.43743352 -0.02056155 2.21874982 0 0 Z " fill="#049977" transform="translate(1122,451)"/>
<path d="M0 0 C0.99 0 1.98 0 3 0 C3 5.61 3 11.22 3 17 C4.32 17 5.64 17 7 17 C7 11.72 7 6.44 7 1 C8.32 0.67 9.64 0.34 11 0 C11 5.94 11 11.88 11 18 C11.99 17.67 12.98 17.34 14 17 C14.66 11.72 15.32 6.44 16 1 C16.99 1 17.98 1 19 1 C19.05392397 3.77109307 19.09363455 6.54113818 19.125 9.3125 C19.14175781 10.09818359 19.15851563 10.88386719 19.17578125 11.69335938 C19.18222656 12.45068359 19.18867187 13.20800781 19.1953125 13.98828125 C19.20578613 14.68477783 19.21625977 15.38127441 19.22705078 16.09887695 C19 18 19 18 17 21 C15.02 21.33 13.04 21.66 11 22 C11 28.93 11 35.86 11 43 C9.68 43 8.36 43 7 43 C7 35.74 7 28.48 7 21 C5.02 21 3.04 21 1 21 C-1.8202907 16.99561779 -1.00863471 12.87663461 -0.625 8.25 C-0.56828125 7.45722656 -0.5115625 6.66445313 -0.453125 5.84765625 C-0.31216305 3.89768265 -0.1574288 1.94871329 0 0 Z " fill="#0F9F6F" transform="translate(1026,434)"/>
<path d="M0 0 C0 2.31 0 4.62 0 7 C1.65 7 3.3 7 5 7 C5 8.65 5 10.3 5 12 C3.35 12 1.7 12 0 12 C0 16.62 0 21.24 0 26 C1.65 26 3.3 26 5 26 C5 27.98 5 29.96 5 32 C-2.32026144 32.36601307 -2.32026144 32.36601307 -5.4375 30.6875 C-8.6726928 27.19349177 -8.10388662 23.32364124 -8.0625 18.8125 C-8.05347656 17.54019531 -8.04445313 16.26789063 -8.03515625 14.95703125 C-8.02355469 13.98121094 -8.01195312 13.00539063 -8 12 C-9.32 12 -10.64 12 -12 12 C-12 10.35 -12 8.7 -12 7 C-10.68 7 -9.36 7 -8 7 C-8 5.35 -8 3.7 -8 2 C-2.25 0 -2.25 0 0 0 Z " fill="#0D9D82" transform="translate(1161,444)"/>
<path d="M0 0 C0 1.98 0 3.96 0 6 C-2.97 5.67 -5.94 5.34 -9 5 C-9 5.66 -9 6.32 -9 7 C-8.44570312 7.26554687 -7.89140625 7.53109375 -7.3203125 7.8046875 C-6.59585937 8.15789062 -5.87140625 8.51109375 -5.125 8.875 C-4.04605469 9.39707031 -4.04605469 9.39707031 -2.9453125 9.9296875 C-1 11 -1 11 1 13 C1.375 16.4375 1.375 16.4375 1 20 C-1.63258043 22.72335906 -4.37938962 23.90178119 -8.19140625 24.1328125 C-8.97386719 24.13023437 -9.75632812 24.12765625 -10.5625 24.125 C-11.74005859 24.12886719 -11.74005859 24.12886719 -12.94140625 24.1328125 C-15 24 -15 24 -17 23 C-17 21.02 -17 19.04 -17 17 C-16.01 17.33 -15.02 17.66 -14 18 C-11.66700175 18.03954234 -9.33291811 18.04401732 -7 18 C-6.67 17.01 -6.34 16.02 -6 15 C-6.62648438 14.81824219 -7.25296875 14.63648438 -7.8984375 14.44921875 C-8.71570312 14.19785156 -9.53296875 13.94648438 -10.375 13.6875 C-11.18710938 13.44386719 -11.99921875 13.20023437 -12.8359375 12.94921875 C-15 12 -15 12 -17 9 C-16.9375 5.5 -16.9375 5.5 -16 2 C-11.52843443 -2.2005616 -5.58138371 -1.86046124 0 0 Z " fill="#08989D" transform="translate(1264,452)"/>
<path d="M0 0 C0.99 0.33 1.98 0.66 3 1 C3.33 4.3 3.66 7.6 4 11 C14.23 11.33 24.46 11.66 35 12 C35 8.37 35 4.74 35 1 C36.32 1 37.64 1 39 1 C39.10807131 2.93627769 39.1856225 4.87427756 39.25 6.8125 C39.29640625 7.89144531 39.3428125 8.97039063 39.390625 10.08203125 C39 13 39 13 37.44458008 14.65527344 C34.15387697 16.46543949 31.15828347 16.44913466 27.49609375 16.43359375 C26.77639908 16.4388356 26.05670441 16.44407745 25.31520081 16.44947815 C23.79811898 16.45588567 22.28098738 16.45457774 20.76391602 16.44604492 C18.44132484 16.43751405 16.12117771 16.46634161 13.79882812 16.49804688 C12.3229174 16.49965854 10.84700233 16.49908203 9.37109375 16.49609375 C8.33038979 16.51294472 8.33038979 16.51294472 7.2686615 16.53013611 C4.06236658 16.48368686 2.42225377 16.40445397 0.05981445 14.14160156 C-1.30072244 11.39232038 -1.33157683 9.36755241 -1.25 6.3125 C-1.23453125 5.33925781 -1.2190625 4.36601563 -1.203125 3.36328125 C-1 1 -1 1 0 0 Z " fill="#059B69" transform="translate(1183,651)"/>
<path d="M0 0 C0 0.66 0 1.32 0 2 C0.59167969 2.25910156 1.18335938 2.51820313 1.79296875 2.78515625 C4.15831069 4.08714093 5.550917 5.40490423 7.3125 7.4375 C7.84488281 8.03433594 8.37726563 8.63117187 8.92578125 9.24609375 C9.45751953 10.11427734 9.45751953 10.11427734 10 11 C9.67 11.99 9.34 12.98 9 14 C4.78417661 13.39773952 4.42902856 12.42902856 1 9 C0.67 14.94 0.34 20.88 0 27 C-1.32 27 -2.64 27 -4 27 C-4.33 21.06 -4.66 15.12 -5 9 C-7.97 11.475 -7.97 11.475 -11 14 C-11.99 13.67 -12.98 13.34 -14 13 C-13.45747899 8.99086167 -11.49208544 7.0591756 -8.6875 4.25 C-7.90761719 3.45078125 -7.12773438 2.6515625 -6.32421875 1.828125 C-4 0 -4 0 0 0 Z " fill="#10A071" transform="translate(1204,627)"/>
<path d="M0 0 C2.31 0 4.62 0 7 0 C7.33 0.99 7.66 1.98 8 3 C8.391875 2.505 8.78375 2.01 9.1875 1.5 C11.55091715 -0.45593143 13.01435003 -0.24207973 16 0 C16 1.98 16 3.96 16 6 C14.865625 6.28875 13.73125 6.5775 12.5625 6.875 C11.386875 7.24625 10.21125 7.6175 9 8 C7.47893366 11.04213267 7.62570662 14.28047572 7.4375 17.625 C7.39431641 18.33140625 7.35113281 19.0378125 7.30664062 19.765625 C7.20055249 21.51018537 7.09977111 23.25506697 7 25 C4.69 25 2.38 25 0 25 C0 16.75 0 8.5 0 0 Z " fill="#099B84" transform="translate(1170,451)"/>
<path d="M0 0 C2.31 0 4.62 0 7 0 C7 8.25 7 16.5 7 25 C4.69 25 2.38 25 0 25 C0 16.75 0 8.5 0 0 Z " fill="#0496A2" transform="translate(1270,451)"/>
<path d="M0 0 C2.31 0 4.62 0 7 0 C7 8.25 7 16.5 7 25 C4.69 25 2.38 25 0 25 C0 16.75 0 8.5 0 0 Z " fill="#089997" transform="translate(1235,451)"/>
<path d="M0 0 C2.31 0 4.62 0 7 0 C7 8.25 7 16.5 7 25 C4.69 25 2.38 25 0 25 C0 16.75 0 8.5 0 0 Z " fill="#089A88" transform="translate(1190,451)"/>
<path d="M0 0 C3 0.25 3 0.25 5 2.25 C5.265625 4.34375 5.265625 4.34375 5.25 6.75 C5.25515625 7.5440625 5.2603125 8.338125 5.265625 9.15625 C5 11.25 5 11.25 3 13.25 C0 13.5 0 13.5 -3 13.25 C-5 11.25 -5 11.25 -5.265625 9.15625 C-5.25789063 7.96515625 -5.25789063 7.96515625 -5.25 6.75 C-5.25515625 5.9559375 -5.2603125 5.161875 -5.265625 4.34375 C-4.80957894 0.74903399 -3.45860435 0.28821703 0 0 Z " fill="#EBFBF8" transform="translate(1295,456.75)"/>
<path d="M0 0 C0 6.93 0 13.86 0 21 C-1.98 20.67 -3.96 20.34 -6 20 C-6.08112454 17.41603321 -6.14054748 14.83462432 -6.1875 12.25 C-6.21263672 11.52039063 -6.23777344 10.79078125 -6.26367188 10.0390625 C-6.30825953 6.76930099 -6.21328109 4.40517115 -4.67578125 1.484375 C-3 0 -3 0 0 0 Z " fill="#E2F7F1" transform="translate(1061,440)"/>
<path d="M0 0 C0.33 0 0.66 0 1 0 C1 3.3 1 6.6 1 10 C-3.29 10 -7.58 10 -12 10 C-12.33 9.01 -12.66 8.02 -13 7 C-13.66 7 -14.32 7 -15 7 C-15 7.99 -15 8.98 -15 10 C-15.66 10 -16.32 10 -17 10 C-17 7.69 -17 5.38 -17 3 C-11.33333333 3 -5.66666667 3 0 3 C0 2.01 0 1.02 0 0 Z " fill="#99A7AF" transform="translate(1141,851)"/>
<path d="M0 0 C2.97 0 5.94 0 9 0 C9.33 0.66 9.66 1.32 10 2 C10.66 1.67 11.32 1.34 12 1 C12.45375 1.474375 12.9075 1.94875 13.375 2.4375 C14.93258204 4.09027808 14.93258204 4.09027808 17 5 C16.67 6.32 16.34 7.64 16 9 C10.33333333 9 4.66666667 9 -1 9 C0.32 8.67 1.64 8.34 3 8 C3 7.01 3 6.02 3 5 C1.68 4.67 0.36 4.34 -1 4 C-0.67 2.68 -0.34 1.36 0 0 Z " fill="#A0ACB2" transform="translate(1326,508)"/>
<path d="M0 0 C0.33 0 0.66 0 1 0 C1.04125 1.2375 1.0825 2.475 1.125 3.75 C1.56643228 7.58706523 1.79832756 7.8394852 5.0625 10.4375 C6.5165625 11.2109375 6.5165625 11.2109375 8 12 C8 12.33 8 12.66 8 13 C6.7625 13.04125 5.525 13.0825 4.25 13.125 C0.41293477 13.56643228 0.1605148 13.79832756 -2.4375 17.0625 C-2.953125 18.031875 -3.46875 19.00125 -4 20 C-4.33 20 -4.66 20 -5 20 C-5.04125 18.7625 -5.0825 17.525 -5.125 16.25 C-5.56643228 12.41293477 -5.79832756 12.1605148 -9.0625 9.5625 C-10.031875 9.046875 -11.00125 8.53125 -12 8 C-12 7.67 -12 7.34 -12 7 C-10.14375 6.938125 -10.14375 6.938125 -8.25 6.875 C-4.41293477 6.43356772 -4.1605148 6.20167244 -1.5625 2.9375 C-1.046875 1.968125 -0.53125 0.99875 0 0 Z " fill="#EFFBF5" transform="translate(1369,446)"/>
<path d="M0 0 C1.83691257 3.78187881 2.15837626 5.94568308 1 10 C-1.97 9.505 -1.97 9.505 -5 9 C-5 8.34 -5 7.68 -5 7 C-6.65 6.67 -8.3 6.34 -10 6 C-10 4.35 -10 2.7 -10 1 C-6.78548731 -0.60725635 -3.56387464 -0.05748185 0 0 Z " fill="#96ABB4" transform="translate(1310,854)"/>
<path d="M0 0 C0.33 0 0.66 0 1 0 C1 3.3 1 6.6 1 10 C-3.29 10 -7.58 10 -12 10 C-12.33 9.01 -12.66 8.02 -13 7 C-11.68 6.34 -10.36 5.68 -9 5 C-9.99 5 -10.98 5 -12 5 C-12 4.34 -12 3.68 -12 3 C-8.04 3 -4.08 3 0 3 C0 2.01 0 1.02 0 0 Z " fill="#8B99A3" transform="translate(1179,851)"/>
<path d="M0 0 C0.66 0 1.32 0 2 0 C2 0.99 2 1.98 2 3 C4.31 3 6.62 3 9 3 C9 3.66 9 4.32 9 5 C10.65 4.34 12.3 3.68 14 3 C12.68 6.3 11.36 9.6 10 13 C9.01 12.67 8.02 12.34 7 12 C7.66 12 8.32 12 9 12 C8.67 10.35 8.34 8.7 8 7 C7.608125 7.495 7.21625 7.99 6.8125 8.5 C5 10 5 10 0 10 C0 6.7 0 3.4 0 0 Z " fill="#8D9BA4" transform="translate(1148,851)"/>
<path d="M0 0 C0.66 0 1.32 0 2 0 C2 4.62 2 9.24 2 14 C-0.31 14 -2.62 14 -5 14 C-5.66 13.34 -6.32 12.68 -7 12 C-6.625 8.875 -6.625 8.875 -6 6 C-4.35 5.67 -2.7 5.34 -1 5 C-0.67 3.35 -0.34 1.7 0 0 Z " fill="#B5C2C5" transform="translate(1150,503)"/>
<path d="M0 0 C0.99 0 1.98 0 3 0 C3 1.32 3 2.64 3 4 C4.32 3.67 5.64 3.34 7 3 C6.34 4.32 5.68 5.64 5 7 C5.99 8.485 5.99 8.485 7 10 C3 10 -1 10 -5 10 C-5.625 7.625 -5.625 7.625 -6 5 C-5.34 4.34 -4.68 3.68 -4 3 C-2.68 3 -1.36 3 0 3 C0 2.01 0 1.02 0 0 Z " fill="#CEEFE9" transform="translate(1122,719)"/>
<path d="M0 0 C0.66 0 1.32 0 2 0 C2 4.62 2 9.24 2 14 C-0.31 14 -2.62 14 -5 14 C-6 13 -6 13 -6.1875 10.0625 C-6 7 -6 7 -4 5 C-2.68 5 -1.36 5 0 5 C0 3.35 0 1.7 0 0 Z " fill="#717D88" transform="translate(1195,503)"/>
<path d="M0 0 C0.99 1.485 0.99 1.485 2 3 C2.66 2.01 3.32 1.02 4 0 C4.66 0 5.32 0 6 0 C6.33 0.99 6.66 1.98 7 3 C7.66 2.01 8.32 1.02 9 0 C12.625 -0.1875 12.625 -0.1875 16 0 C15.01 0.33 14.02 0.66 13 1 C13 1.99 13 2.98 13 4 C13.99 4.33 14.98 4.66 16 5 C15.01 5 14.02 5 13 5 C13 5.99 13 6.98 13 8 C13.99 8.33 14.98 8.66 16 9 C14.35 9 12.7 9 11 9 C10.67 7.35 10.34 5.7 10 4 C9.34 5.65 8.68 7.3 8 9 C7.34 9 6.68 9 6 9 C6 7.68 6 6.36 6 5 C5.34 5 4.68 5 4 5 C3.67 6.32 3.34 7.64 3 9 C2.34 8.67 1.68 8.34 1 8 C0.40644386 5.35139573 0.25790731 2.70802678 0 0 Z " fill="#90A1A9" transform="translate(1182,743)"/>
<path d="M0 0 C1.37478516 0.01740234 1.37478516 0.01740234 2.77734375 0.03515625 C3.69644531 0.04417969 4.61554688 0.05320312 5.5625 0.0625 C6.27277344 0.07410156 6.98304687 0.08570313 7.71484375 0.09765625 C8.04484375 1.41765625 8.37484375 2.73765625 8.71484375 4.09765625 C7.39484375 4.42765625 6.07484375 4.75765625 4.71484375 5.09765625 C6.03484375 5.75765625 7.35484375 6.41765625 8.71484375 7.09765625 C6.92350397 7.15157618 5.13170476 7.19041196 3.33984375 7.22265625 C2.34210938 7.24585938 1.344375 7.2690625 0.31640625 7.29296875 C-2.28515625 7.09765625 -2.28515625 7.09765625 -4.28515625 5.09765625 C-3.53567763 0.15109733 -3.53567763 0.15109733 0 0 Z " fill="#AAC1C6" transform="translate(1207.28515625,853.90234375)"/>
<path d="M0 0 C0.94875 0.04125 1.8975 0.0825 2.875 0.125 C2.92895478 1.74963842 2.96777195 3.37478541 3 5 C3.02320313 5.90492188 3.04640625 6.80984375 3.0703125 7.7421875 C2.875 10.125 2.875 10.125 0.875 12.125 C-1.75 12.25 -1.75 12.25 -4.125 12.125 C-4.125 11.465 -4.125 10.805 -4.125 10.125 C-2.475 10.125 -0.825 10.125 0.875 10.125 C0.545 9.465 0.215 8.805 -0.125 8.125 C-2.14963255 7.47286708 -2.14963255 7.47286708 -4.125 7.125 C-4.75 4.75 -4.75 4.75 -5.125 2.125 C-3.125 0.125 -3.125 0.125 0 0 Z " fill="#70BCA7" transform="translate(1261.125,692.875)"/>
<path d="M0 0 C0.66 0 1.32 0 2 0 C2.33 0.99 2.66 1.98 3 3 C3.33 2.01 3.66 1.02 4 0 C4.66 0 5.32 0 6 0 C6 0.99 6 1.98 6 3 C6.66 3 7.32 3 8 3 C8 2.01 8 1.02 8 0 C10.31 0 12.62 0 15 0 C14.67 0.99 14.34 1.98 14 3 C14.38932856 5.14255793 14.38932856 5.14255793 15 7 C13.35 7 11.7 7 10 7 C10 6.34 10 5.68 10 5 C9.34 5 8.68 5 8 5 C8 5.66 8 6.32 8 7 C7.34 7 6.68 7 6 7 C6 6.01 6 5.02 6 4 C5.34 4 4.68 4 4 4 C4 4.99 4 5.98 4 7 C3.34 7 2.68 7 2 7 C1.34 4.69 0.68 2.38 0 0 Z " fill="#7E9199" transform="translate(1171,722)"/>
<path d="M0 0 C2.5625 0.1875 2.5625 0.1875 4.5625 2.1875 C4.8125 4.6875 4.8125 4.6875 4.5625 7.1875 C2.5625 9.1875 2.5625 9.1875 0.0625 9.4375 C-2.4375 9.1875 -2.4375 9.1875 -4.4375 7.1875 C-3.73338608 0.28718354 -3.73338608 0.28718354 0 0 Z " fill="#707C87" transform="translate(1182.4375,507.8125)"/>
<path d="M0 0 C1.98 0 3.96 0 6 0 C6.66 0.66 7.32 1.32 8 2 C7.625 4.625 7.625 4.625 7 7 C5.35 7.33 3.7 7.66 2 8 C2 9.65 2 11.3 2 13 C1.34 13 0.68 13 0 13 C0 8.71 0 4.42 0 0 Z " fill="#74808A" transform="translate(1086,504)"/>
<path d="M0 0 C1 1 1 1 1.1875 3.4375 C1 6 1 6 -1 8 C-3.5 8.25 -3.5 8.25 -6 8 C-6.66 7.34 -7.32 6.68 -8 6 C-7.75 2.9375 -7.75 2.9375 -7 0 C-4.31633121 -1.3418344 -2.84719317 -0.73004953 0 0 Z " fill="#77838E" transform="translate(1175,509)"/>
<path d="M0 0 C1.2375 0.1546875 1.2375 0.1546875 2.5 0.3125 C4.5 3.3125 4.5 3.3125 4.1875 5.9375 C3.5 8.3125 3.5 8.3125 2.5 9.3125 C0.0625 9.5 0.0625 9.5 -2.5 9.3125 C-4.5 7.3125 -4.5 7.3125 -4.75 4.8125 C-4.40047575 1.3172575 -3.47557682 0.4344471 0 0 Z " fill="#A9B5BA" transform="translate(1259.5,507.6875)"/>
<path d="M0 0 C0.66 0 1.32 0 2 0 C2 3.96 2 7.92 2 12 C-0.33294775 12.04241723 -2.66702567 12.04092937 -5 12 C-6 11 -6 11 -6.1875 8.5625 C-6 6 -6 6 -4 4 C-3.01 4 -2.02 4 -1 4 C-0.67 2.68 -0.34 1.36 0 0 Z " fill="#6BB9A3" transform="translate(1221,689)"/>
<path d="M0 0 C1.2375 0.1546875 1.2375 0.1546875 2.5 0.3125 C4.5 3.3125 4.5 3.3125 4.125 6 C3.91875 6.763125 3.7125 7.52625 3.5 8.3125 C0.625 8.9375 0.625 8.9375 -2.5 9.3125 C-4.5 7.3125 -4.5 7.3125 -4.75 4.8125 C-4.40047575 1.3172575 -3.47557682 0.4344471 0 0 Z " fill="#AAB6BB" transform="translate(1099.5,507.6875)"/>
<path d="M0 0 C3.125 0.375 3.125 0.375 6 1 C6.6875 3.3125 6.6875 3.3125 7 6 C5.875 7.875 5.875 7.875 4 9 C-0.42105263 8.57894737 -0.42105263 8.57894737 -2 7 C-2.1875 4.5625 -2.1875 4.5625 -2 2 C-1.34 1.34 -0.68 0.68 0 0 Z " fill="#EFBF31" transform="translate(1356,437)"/>
<path d="M0 0 C0.66 0 1.32 0 2 0 C2 3.3 2 6.6 2 10 C-1 10 -4 10 -7 10 C-7.625 7.625 -7.625 7.625 -8 5 C-7.34 4.34 -6.68 3.68 -6 3 C-3.375 3.375 -3.375 3.375 -1 4 C-0.67 2.68 -0.34 1.36 0 0 Z " fill="#8DA0AA" transform="translate(1288,851)"/>
<path d="M0 0 C1.98 0 3.96 0 6 0 C7 1 7 1 7.0625 4.0625 C7.041875 5.031875 7.02125 6.00125 7 7 C5.35 7.33 3.7 7.66 2 8 C2 9.32 2 10.64 2 12 C1.34 12 0.68 12 0 12 C0 8.04 0 4.08 0 0 Z " fill="#50A98F" transform="translate(1143,693)"/>
<path d="M0 0 C0.66 0 1.32 0 2 0 C2.67057887 1.7902061 3.3363469 3.58221489 4 5.375 C4.556875 6.87160156 4.556875 6.87160156 5.125 8.3984375 C6 11 6 11 6 13 C5.34 13 4.68 13 4 13 C3.67 12.01 3.34 11.02 3 10 C1.35 9.67 -0.3 9.34 -2 9 C-2.33 10.32 -2.66 11.64 -3 13 C-3.66 13 -4.32 13 -5 13 C-4.54803755 11.39402675 -4.08817673 9.79027492 -3.625 8.1875 C-3.36976562 7.29417969 -3.11453125 6.40085937 -2.8515625 5.48046875 C-2 3 -2 3 0 0 Z " fill="#A0ACB2" transform="translate(1285,504)"/>
<path d="M0 0 C0.66 0 1.32 0 2 0 C2.67057887 1.7902061 3.3363469 3.58221489 4 5.375 C4.556875 6.87160156 4.556875 6.87160156 5.125 8.3984375 C6 11 6 11 6 13 C5.34 13 4.68 13 4 13 C3.67 12.01 3.34 11.02 3 10 C1.35 9.67 -0.3 9.34 -2 9 C-2.33 10.32 -2.66 11.64 -3 13 C-3.66 13 -4.32 13 -5 13 C-4.54803755 11.39402675 -4.08817673 9.79027492 -3.625 8.1875 C-3.36976562 7.29417969 -3.11453125 6.40085937 -2.8515625 5.48046875 C-2 3 -2 3 0 0 Z " fill="#A0ACB2" transform="translate(1066,504)"/>
<path d="M0 0 C0.66 0 1.32 0 2 0 C2.95024979 3.69541586 2.95024979 6.30458414 2 10 C-0.33294775 10.04241723 -2.66702567 10.04092937 -5 10 C-6 9 -6 9 -6.0625 6.4375 C-6.041875 5.633125 -6.02125 4.82875 -6 4 C-4.02 3.67 -2.04 3.34 0 3 C0 2.01 0 1.02 0 0 Z " fill="#8FA2AC" transform="translate(1264,851)"/>
<path d="M0 0 C0.66 0 1.32 0 2 0 C2 0.99 2 1.98 2 3 C2.66 3.33 3.32 3.66 4 4 C3.34 4 2.68 4 2 4 C2 6.31 2 8.62 2 11 C2.66 11.33 3.32 11.66 4 12 C2.68 11.67 1.36 11.34 0 11 C0 8.69 0 6.38 0 4 C-0.66 4 -1.32 4 -2 4 C-2 6.64 -2 9.28 -2 12 C-2.99 12 -3.98 12 -5 12 C-5 9.36 -5 6.72 -5 4 C-5.99 3.67 -6.98 3.34 -8 3 C-5.36 3 -2.72 3 0 3 C0 2.01 0 1.02 0 0 Z " fill="#9CA8AE" transform="translate(1245,505)"/>
<path d="M0 0 C4.98777148 2.49388574 5.51258849 4.20284924 8 9 C8.33 6.03 8.66 3.06 9 0 C9.33 0 9.66 0 10 0 C10 4.29 10 8.58 10 13 C9.34 13 8.68 13 8 13 C6.7109375 11.25 6.7109375 11.25 5.375 9 C4.92898438 8.2575 4.48296875 7.515 4.0234375 6.75 C3.68570312 6.1725 3.34796875 5.595 3 5 C2.67 7.64 2.34 10.28 2 13 C1.34 13 0.68 13 0 13 C0 8.71 0 4.42 0 0 Z " fill="#6B7783" transform="translate(1205,504)"/>
<path d="M0 0 C0.33 0.66 0.66 1.32 1 2 C3.64 2 6.28 2 9 2 C9.33 3.32 9.66 4.64 10 6 C8.68 6.33 7.36 6.66 6 7 C6.99 7.66 7.98 8.32 9 9 C6.03 9 3.06 9 0 9 C-1.125 2.25 -1.125 2.25 0 0 Z " fill="#9BB2B9" transform="translate(1247,852)"/>
<path d="M0 0 C0.33 0 0.66 0 1 0 C1 3.96 1 7.92 1 12 C-0.98 12 -2.96 12 -5 12 C-6 11 -6 11 -6.0625 7.9375 C-6.041875 6.968125 -6.02125 5.99875 -6 5 C-4.35 4.67 -2.7 4.34 -1 4 C-0.67 2.68 -0.34 1.36 0 0 Z " fill="#4FA98F" transform="translate(1180,689)"/>
<path d="M0 0 C2.5625 0.1875 2.5625 0.1875 4.5625 2.1875 C4.00694444 6.74305556 4.00694444 6.74305556 2.5625 8.1875 C0.0625 8.3125 0.0625 8.3125 -2.4375 8.1875 C-3.4375 7.1875 -3.4375 7.1875 -3.5625 4.1875 C-3.39891479 0.26145498 -3.39891479 0.26145498 0 0 Z " fill="#5DB199" transform="translate(1209.4375,692.8125)"/>
<path d="M0 0 C1.81242052 -0.02687279 3.62495233 -0.04633715 5.4375 -0.0625 C6.44683594 -0.07410156 7.45617188 -0.08570313 8.49609375 -0.09765625 C11 0 11 0 12 1 C12.04092937 3.33297433 12.04241723 5.66705225 12 8 C11.34 8 10.68 8 10 8 C10 6.02 10 4.04 10 2 C9.01 2 8.02 2 7 2 C7 3.98 7 5.96 7 8 C6.34 8 5.68 8 5 8 C5 6.02 5 4.04 5 2 C4.01 2 3.02 2 2 2 C2 3.98 2 5.96 2 8 C1.34 8 0.68 8 0 8 C0 5.36 0 2.72 0 0 Z " fill="#269071" transform="translate(1234,693)"/>
<path d="M0 0 C2.5 0.125 2.5 0.125 3.5 1.125 C3.625 4.125 3.625 4.125 3.5 7.125 C2.5 8.125 2.5 8.125 0.0625 8.3125 C-2.5 8.125 -2.5 8.125 -4.5 6.125 C-3.77607362 0.18880368 -3.77607362 0.18880368 0 0 Z " fill="#5BB097" transform="translate(1160.5,692.875)"/>
<path d="M0 0 C1.4540625 0.0309375 1.4540625 0.0309375 2.9375 0.0625 C3.1328125 6.1171875 3.1328125 6.1171875 2.9375 8.0625 C2.2775 8.7225 1.6175 9.3825 0.9375 10.0625 C-1.1875 9.6875 -1.1875 9.6875 -3.0625 9.0625 C-2.0725 8.7325 -1.0825 8.4025 -0.0625 8.0625 C-1.3825 7.4025 -2.7025 6.7425 -4.0625 6.0625 C-4.105221 4.39638095 -4.10313832 2.72867115 -4.0625 1.0625 C-3.0625 0.0625 -3.0625 0.0625 0 0 Z " fill="#70828C" transform="translate(1240.0625,721.9375)"/>
<path d="M0 0 C2.4375 0.1875 2.4375 0.1875 3.4375 1.1875 C3.625 3.625 3.625 3.625 3.4375 6.1875 C2.7775 6.8475 2.1175 7.5075 1.4375 8.1875 C-1.1875 7.8125 -1.1875 7.8125 -3.5625 7.1875 C-4.1875 4.8125 -4.1875 4.8125 -4.5625 2.1875 C-2.5625 0.1875 -2.5625 0.1875 0 0 Z " fill="#269071" transform="translate(1200.5625,692.8125)"/>
<path d="M0 0 C0.625 2.375 0.625 2.375 1 5 C0.34 5.66 -0.32 6.32 -1 7 C-4.125 6.625 -4.125 6.625 -7 6 C-7 4.02 -7 2.04 -7 0 C-4.3333581 -1.33332095 -2.83319697 -0.67102033 0 0 Z " fill="#0B99A5" transform="translate(1277,441)"/>
<path d="M0 0 C0.66 0 1.32 0 2 0 C2 3.3 2 6.6 2 10 C0.00045254 10.04254356 -2.00041636 10.04080783 -4 10 C-5 9 -5 9 -5.0625 6.4375 C-5.041875 5.633125 -5.02125 4.82875 -5 4 C-3.35 3.67 -1.7 3.34 0 3 C0 2.01 0 1.02 0 0 Z " fill="#778992" transform="translate(1268,719)"/>
<path d="M0 0 C4.70588235 0.70588235 4.70588235 0.70588235 6 2 C6.04063832 3.66617115 6.042721 5.33388095 6 7 C3.125 7.625 3.125 7.625 0 8 C-0.66 7.34 -1.32 6.68 -2 6 C-1.44444444 1.44444444 -1.44444444 1.44444444 0 0 Z " fill="#099A89" transform="translate(1191,440)"/>
<path d="M0 0 C0.33 0.66 0.66 1.32 1 2 C3.31 2 5.62 2 8 2 C8.33 3.65 8.66 5.3 9 7 C5.846632 7.70074844 3.27275026 8 0 8 C-1.125 2.25 -1.125 2.25 0 0 Z " fill="#A1B6BB" transform="translate(1234,744)"/>
<path d="M0 0 C1.65 0.33 3.3 0.66 5 1 C5 3.64 5 6.28 5 9 C3.02 9 1.04 9 -1 9 C-2.0326802 6.21176345 -2.04509293 5.1322726 -1.0625 2.25 C-0.711875 1.5075 -0.36125 0.765 0 0 Z " fill="#97A3AA" transform="translate(1304,508)"/>
<path d="M0 0 C2.625 0.375 2.625 0.375 5 1 C5.625 3.375 5.625 3.375 6 6 C5.34 6.66 4.68 7.32 4 8 C1.375 7.625 1.375 7.625 -1 7 C-1.625 4.625 -1.625 4.625 -2 2 C-1.34 1.34 -0.68 0.68 0 0 Z " fill="#069896" transform="translate(1237,440)"/>
<path d="M0 0 C0.66 0 1.32 0 2 0 C2 3.3 2 6.6 2 10 C0.02 10 -1.96 10 -4 10 C-4.625 7.625 -4.625 7.625 -5 5 C-4.34 4.34 -3.68 3.68 -3 3 C-2.01 3 -1.02 3 0 3 C0 2.01 0 1.02 0 0 Z " fill="#98ABB4" transform="translate(1222,851)"/>
<path d="M0 0 C2.97 0 5.94 0 9 0 C9.33 1.32 9.66 2.64 10 4 C8.68 4.33 7.36 4.66 6 5 C7.32 5.66 8.64 6.32 10 7 C8.35 7 6.7 7 5 7 C4.67 6.01 4.34 5.02 4 4 C3.34 4 2.68 4 2 4 C2 4.99 2 5.98 2 7 C1.34 7 0.68 7 0 7 C0 4.69 0 2.38 0 0 Z " fill="#8A96A0" transform="translate(1124,854)"/>
<path d="M0 0 C0.66 0 1.32 0 2 0 C2 3.3 2 6.6 2 10 C0.02 10 -1.96 10 -4 10 C-4.625 7.625 -4.625 7.625 -5 5 C-4.34 4.34 -3.68 3.68 -3 3 C-2.01 3 -1.02 3 0 3 C0 2.01 0 1.02 0 0 Z " fill="#92A8AE" transform="translate(1280,719)"/>
<path d="M0 0 C0.66 0 1.32 0 2 0 C3.625 2 3.625 2 5 4 C5.66 2.68 6.32 1.36 7 0 C7.66 0 8.32 0 9 0 C9 2.97 9 5.94 9 9 C8.34 9 7.68 9 7 9 C6.67 8.34 6.34 7.68 6 7 C5.34 7.66 4.68 8.32 4 9 C3.34 7.68 2.68 6.36 2 5 C1.34 6.32 0.68 7.64 0 9 C0 6.03 0 3.06 0 0 Z " fill="#8B9BA5" transform="translate(1261,743)"/>
<path d="M0 0 C1.65 0 3.3 0 5 0 C5.87890625 6.15234375 5.87890625 6.15234375 6 8 C5 9 5 9 2.4375 9.0625 C1.633125 9.041875 0.82875 9.02125 0 9 C0 6.03 0 3.06 0 0 Z " fill="#A0B5BA" transform="translate(1199,743)"/>
<path d="M0 0 C0.99 0.495 0.99 0.495 2 1 C2.625 3.0625 2.625 3.0625 3 5 C3.66 3.35 4.32 1.7 5 0 C5.66 0 6.32 0 7 0 C7.66 1.32 8.32 2.64 9 4 C9.66 2.68 10.32 1.36 11 0 C12.60031344 3.20062687 11.03173691 5.72271806 10 9 C9.34 9 8.68 9 8 9 C7.67 7.35 7.34 5.7 7 4 C6.34 4 5.68 4 5 4 C4.67 5.65 4.34 7.3 4 9 C3.34 9 2.68 9 2 9 C1.34 6.03 0.68 3.06 0 0 Z " fill="#737F8A" transform="translate(1105,508)"/>
<path d="M0 0 C0.99 0.33 1.98 0.66 3 1 C3 1.99 3 2.98 3 4 C3.66 4 4.32 4 5 4 C5 4.99 5 5.98 5 7 C3.68 7 2.36 7 1 7 C1 7.66 1 8.32 1 9 C0.01 8.67 -0.98 8.34 -2 8 C-2 7.01 -2 6.02 -2 5 C-2.66 5 -3.32 5 -4 5 C-4 4.01 -4 3.02 -4 2 C-2.68 2 -1.36 2 0 2 C0 1.34 0 0.68 0 0 Z " fill="#F0BD2A" transform="translate(1375,466)"/>
<path d="M0 0 C3.69230769 0.69230769 3.69230769 0.69230769 5 2 C5.1875 4.4375 5.1875 4.4375 5 7 C4.34 7.66 3.68 8.32 3 9 C0.875 8.625 0.875 8.625 -1 8 C-1.04241723 5.66705225 -1.04092937 3.33297433 -1 1 C-0.67 0.67 -0.34 0.34 0 0 Z " fill="#A7BEC2" transform="translate(1255,743)"/>
<path d="M0 0 C2.5 0.125 2.5 0.125 3.5 1.125 C3.625 3.625 3.625 3.625 3.5 6.125 C2.5 7.125 2.5 7.125 0 7.25 C-2.5 7.125 -2.5 7.125 -3.5 6.125 C-3.625 3.625 -3.625 3.625 -3.5 1.125 C-2.5 0.125 -2.5 0.125 0 0 Z " fill="#82929D" transform="translate(1295.5,853.875)"/>
<path d="M0 0 C2.01822917 0.06510417 4.03645833 0.13020833 6.0546875 0.1953125 C6.0546875 3.4953125 6.0546875 6.7953125 6.0546875 10.1953125 C0 10.390625 0 10.390625 -1.9453125 10.1953125 C-3.9453125 8.1953125 -3.9453125 8.1953125 -4.1953125 5.1953125 C-3.91874762 1.87653392 -3.53131274 0.35454947 0 0 Z M-0.9453125 1.1953125 C-3.23259984 3.03415131 -3.23259984 3.03415131 -3.0703125 5.8203125 C-3.0290625 6.6040625 -2.9878125 7.3878125 -2.9453125 8.1953125 C0.63796503 9.19748314 0.63796503 9.19748314 4.0546875 8.1953125 C4.0546875 6.2153125 4.0546875 4.2353125 4.0546875 2.1953125 C1.65749318 1.51572647 1.65749318 1.51572647 -0.9453125 1.1953125 Z " fill="#80959B" transform="translate(1104.9453125,718.8046875)"/>
<path d="M0 0 C1.67542976 0.28604898 3.34385343 0.61781233 5 1 C5.33 2.32 5.66 3.64 6 5 C4.02 5 2.04 5 0 5 C1.25541557 7.51083114 2.50063488 7.87125446 5 9 C2.625 9.125 2.625 9.125 0 9 C-0.66 8.34 -1.32 7.68 -2 7 C-1.43181818 1.43181818 -1.43181818 1.43181818 0 0 Z " fill="#85919A" transform="translate(1120,508)"/>
<path d="M0 0 C0.78375 0.04125 1.5675 0.0825 2.375 0.125 C2.045 0.785 1.715 1.445 1.375 2.125 C0.385 2.125 -0.605 2.125 -1.625 2.125 C-1.955 2.785 -2.285 3.445 -2.625 4.125 C-0.975 4.125 0.675 4.125 2.375 4.125 C2.045 5.775 1.715 7.425 1.375 9.125 C-3.5 8.25 -3.5 8.25 -4.625 7.125 C-4.8125 4.6875 -4.8125 4.6875 -4.625 2.125 C-2.625 0.125 -2.625 0.125 0 0 Z " fill="#A0B5BA" transform="translate(1172.625,742.875)"/>
<path d="M0 0 C0.33 0.99 0.66 1.98 1 3 C2.65 3.33 4.3 3.66 6 4 C6.042721 5.66611905 6.04063832 7.33382885 6 9 C5.67 9.33 5.34 9.66 5 10 C3.35 10 1.7 10 0 10 C0 6.7 0 3.4 0 0 Z " fill="#697984" transform="translate(1151,719)"/>
<path d="M0 0 C0.33 0 0.66 0 1 0 C1 3.3 1 6.6 1 10 C-0.65 10 -2.3 10 -4 10 C-5 9 -5 9 -5.0625 6.4375 C-5.041875 5.633125 -5.02125 4.82875 -5 4 C-3.35 3.67 -1.7 3.34 0 3 C0 2.01 0 1.02 0 0 Z " fill="#8EA4A9" transform="translate(1221,719)"/>
<path d="M0 0 C0.99 0 1.98 0 3 0 C4.83691257 3.78187881 5.15837626 5.94568308 4 10 C2.35 9.67 0.7 9.34 -1 9 C-0.67 6.03 -0.34 3.06 0 0 Z " fill="#AAC4CA" transform="translate(1307,854)"/>
<path d="M0 0 C2.625 0.375 2.625 0.375 5 1 C5.042721 2.66611905 5.04063832 4.33382885 5 6 C4 7 4 7 1.4375 7.0625 C0.2309375 7.0315625 0.2309375 7.0315625 -1 7 C-1.625 4.625 -1.625 4.625 -2 2 C-1.34 1.34 -0.68 0.68 0 0 Z " fill="#70818B" transform="translate(1290,722)"/>
<path d="M0 0 C2.625 0.375 2.625 0.375 5 1 C5.042721 2.66611905 5.04063832 4.33382885 5 6 C4 7 4 7 1.4375 7.0625 C0.2309375 7.0315625 0.2309375 7.0315625 -1 7 C-1.625 4.625 -1.625 4.625 -2 2 C-1.34 1.34 -0.68 0.68 0 0 Z " fill="#70818A" transform="translate(1140,722)"/>
<path d="M0 0 C1.66611905 -0.042721 3.33382885 -0.04063832 5 0 C6 1 6 1 6.0625 4.5625 C6.041875 5.696875 6.02125 6.83125 6 8 C4.02 8 2.04 8 0 8 C-0.33 6.68 -0.66 5.36 -1 4 C0.32 3.34 1.64 2.68 3 2 C2.01 2 1.02 2 0 2 C0 1.34 0 0.68 0 0 Z " fill="#259070" transform="translate(1249,693)"/>
<path d="M0 0 C0.99 0 1.98 0 3 0 C3.99 3.3 4.98 6.6 6 10 C5.34 10 4.68 10 4 10 C4 9.01 4 8.02 4 7 C2.35 7 0.7 7 -1 7 C-1 7.99 -1 8.98 -1 10 C-1.66 9.67 -2.32 9.34 -3 9 C-2.01 6.03 -1.02 3.06 0 0 Z " fill="#8DA0A9" transform="translate(1232,851)"/>
<path d="M0 0 C2.475 0.495 2.475 0.495 5 1 C5 3.31 5 5.62 5 8 C3.35 8.33 1.7 8.66 0 9 C0 6.03 0 3.06 0 0 Z " fill="#9AADB5" transform="translate(1272,743)"/>
<path d="M0 0 C1.67542976 0.28604898 3.34385343 0.61781233 5 1 C5 2.65 5 4.3 5 6 C2.625 6.625 2.625 6.625 0 7 C-0.66 6.34 -1.32 5.68 -2 5 C-1.46428571 1.46428571 -1.46428571 1.46428571 0 0 Z " fill="#97AEB2" transform="translate(1165,722)"/>
<path d="M0 0 C0.33 0 0.66 0 1 0 C1.33 2.64 1.66 5.28 2 8 C3.32 8.33 4.64 8.66 6 9 C6 6.03 6 3.06 6 0 C6.66 0 7.32 0 8 0 C8 3.3 8 6.6 8 10 C5.6739143 10.38063221 3.33944736 10.71269945 1 11 C0 10 0 10 -0.09765625 7.71484375 C-0.08605469 6.79832031 -0.07445312 5.88179687 -0.0625 4.9375 C-0.05347656 4.01839844 -0.04445313 3.09929688 -0.03515625 2.15234375 C-0.02355469 1.44207031 -0.01195312 0.73179687 0 0 Z " fill="#319779" transform="translate(1132,690)"/>
<path d="M0 0 C2.97 1.98 2.97 1.98 6 4 C5.67 5.32 5.34 6.64 5 8 C3.02 8 1.04 8 -1 8 C-1.625 5.6875 -1.625 5.6875 -2 3 C-1.34 2.01 -0.68 1.02 0 0 Z " fill="#ACB8BD" transform="translate(1337,509)"/>
<path d="M0 0 C1.67542976 0.28604898 3.34385343 0.61781233 5 1 C5.33 1.99 5.66 2.98 6 4 C5.01 5.485 5.01 5.485 4 7 C2.35 6.67 0.7 6.34 -1 6 C-1.042721 4.33388095 -1.04063832 2.66617115 -1 1 C-0.67 0.67 -0.34 0.34 0 0 Z " fill="#A5B2B8" transform="translate(1099,854)"/>
<path d="M0 0 C0.66 0 1.32 0 2 0 C3.625 2.5 3.625 2.5 5 5 C5.33 3.35 5.66 1.7 6 0 C6.33 0 6.66 0 7 0 C7 2.97 7 5.94 7 9 C5 9 5 9 3.375 7.5 C2.92125 7.005 2.4675 6.51 2 6 C2 6.99 2 7.98 2 9 C1.34 9 0.68 9 0 9 C0 6.03 0 3.06 0 0 Z " fill="#95A7AF" transform="translate(1134,743)"/>
<path d="M0 0 C1.65 0 3.3 0 5 0 C5.33 1.65 5.66 3.3 6 5 C4.35 5.33 2.7 5.66 1 6 C0.67 7.32 0.34 8.64 0 10 C0 6.7 0 3.4 0 0 Z " fill="#99A5AD" transform="translate(1091,851)"/>
<path d="M0 0 C1.67542976 0.28604898 3.34385343 0.61781233 5 1 C5 2.65 5 4.3 5 6 C3.34385343 6.38218767 1.67542976 6.71395102 0 7 C-1 6 -1 6 -1.125 3.5 C-1 1 -1 1 0 0 Z " fill="#96AEB2" transform="translate(1200,722)"/>
<path d="M0 0 C0.66 0 1.32 0 2 0 C2 0.99 2 1.98 2 3 C2.66 3 3.32 3 4 3 C4 2.01 4 1.02 4 0 C4.66 0 5.32 0 6 0 C6.33 0.99 6.66 1.98 7 3 C7.33 2.01 7.66 1.02 8 0 C8.66 0 9.32 0 10 0 C9.34 2.31 8.68 4.62 8 7 C7.34 7 6.68 7 6 7 C6 6.01 6 5.02 6 4 C5.34 4 4.68 4 4 4 C4 4.99 4 5.98 4 7 C3.34 7 2.68 7 2 7 C1.34 4.69 0.68 2.38 0 0 Z " fill="#8E9AA4" transform="translate(1105,854)"/>
<path d="M0 0 C1.65 0 3.3 0 5 0 C5.33 1.65 5.66 3.3 6 5 C4.35 5.33 2.7 5.66 1 6 C0.67 6.99 0.34 7.98 0 9 C0 6.03 0 3.06 0 0 Z " fill="#9DB1B7" transform="translate(1223,746)"/>
<path d="M0 0 C0.94875 0.04125 1.8975 0.0825 2.875 0.125 C2.875 2.765 2.875 5.405 2.875 8.125 C0.875 5.125 0.875 5.125 0.875 2.125 C-0.445 2.125 -1.765 2.125 -3.125 2.125 C-2.55155063 4.99224686 -2.2635485 5.9864515 -0.125 8.125 C-1.445 7.795 -2.765 7.465 -4.125 7.125 C-4.75 4.75 -4.75 4.75 -5.125 2.125 C-3.125 0.125 -3.125 0.125 0 0 Z " fill="#238E6F" transform="translate(1261.125,692.875)"/>
<path d="M0 0 C2.625 0.375 2.625 0.375 5 1 C5 2.32 5 3.64 5 5 C3.02 5 1.04 5 -1 5 C-0.67 5.99 -0.34 6.98 0 8 C-0.66 8 -1.32 8 -2 8 C-2.125 5.125 -2.125 5.125 -2 2 C-1.34 1.34 -0.68 0.68 0 0 Z " fill="#89959E" transform="translate(1136,508)"/>
<path d="M0 0 C2.31 0 4.62 0 7 0 C7 0.33 7 0.66 7 1 C5.35 1 3.7 1 2 1 C2 2.65 2 4.3 2 6 C3.32 6.33 4.64 6.66 6 7 C4.68 7 3.36 7 2 7 C2 8.98 2 10.96 2 13 C1.34 13 0.68 13 0 13 C0 8.71 0 4.42 0 0 Z " fill="#707C87" transform="translate(1159,504)"/>
<path d="M0 0 C0 2 0 4 0 6 C-1.65 6 -3.3 6 -5 6 C-5.33 4.02 -5.66 2.04 -6 0 C-3.50907189 -1.24546405 -2.58919267 -0.7767578 0 0 Z " fill="#9BB3B6" transform="translate(1186,723)"/>
<path d="M0 0 C0.66 0 1.32 0 2 0 C2 1.32 2 2.64 2 4 C3.32 3.67 4.64 3.34 6 3 C5.34 4.32 4.68 5.64 4 7 C4.99 8.485 4.99 8.485 6 10 C4 10 2 10 0 10 C0 6.7 0 3.4 0 0 Z " fill="#80949B" transform="translate(1123,719)"/>
<path d="M0 0 C1.98 0 3.96 0 6 0 C6 0.66 6 1.32 6 2 C4.68 2 3.36 2 2 2 C2 2.99 2 3.98 2 5 C3.32 5 4.64 5 6 5 C6 5.66 6 6.32 6 7 C4.35 7 2.7 7 1 7 C0.67 8.32 0.34 9.64 0 11 C0 7.37 0 3.74 0 0 Z " fill="#269071" transform="translate(1189,690)"/>
<path d="M0 0 C0.66 0 1.32 0 2 0 C2.66 1.65 3.32 3.3 4 5 C4.99 3.35 5.98 1.7 7 0 C8 3 8 3 7.00390625 5.48046875 C6.52824219 6.37378906 6.05257813 7.26710938 5.5625 8.1875 C5.08941406 9.08855469 4.61632813 9.98960937 4.12890625 10.91796875 C3.75636719 11.60503906 3.38382813 12.29210937 3 13 C2.34 12.67 1.68 12.34 1 12 C1.33 11.67 1.66 11.34 2 11 C1.62206515 7.09467317 1.23947487 3.7184246 0 0 Z " fill="#737F8A" transform="translate(1315,508)"/>
<path d="M0 0 C2.475 0.495 2.475 0.495 5 1 C4.67 2.65 4.34 4.3 4 6 C3.01 6 2.02 6 1 6 C0.67 6.99 0.34 7.98 0 9 C0 6.03 0 3.06 0 0 Z " fill="#9DB1B6" transform="translate(1207,743)"/>
<path d="M0 0 C1.65 0.33 3.3 0.66 5 1 C5 2.98 5 4.96 5 7 C3.02 7 1.04 7 -1 7 C-0.67 5.68 -0.34 4.36 0 3 C0.99 3 1.98 3 3 3 C3 2.34 3 1.68 3 1 C2.01 0.67 1.02 0.34 0 0 Z " fill="#7E9199" transform="translate(1249,722)"/>
<path d="M0 0 C2.0625 0.4375 2.0625 0.4375 4 1 C4 2.65 4 4.3 4 6 C2.0625 6.5625 2.0625 6.5625 0 7 C-1 6 -1 6 -1.125 3.5 C-1 1 -1 1 0 0 Z " fill="#ECFAF7" transform="translate(1181,509)"/>
<path d="M0 0 C0.625 2.375 0.625 2.375 1 5 C0.34 5.66 -0.32 6.32 -1 7 C-3.125 6.625 -3.125 6.625 -5 6 C-5 4.68 -5 3.36 -5 2 C-2 0 -2 0 0 0 Z " fill="#E4F2EF" transform="translate(1174,509)"/>
<path d="M0 0 C1.67542976 0.28604898 3.34385343 0.61781233 5 1 C5 1.99 5 2.98 5 4 C3.68 4.33 2.36 4.66 1 5 C2.32 5.66 3.64 6.32 5 7 C3.33388095 7.042721 1.66617115 7.04063832 0 7 C-1 6 -1 6 -1.125 3.5 C-1 1 -1 1 0 0 Z " fill="#8696A0" transform="translate(1211,854)"/>
<path d="M0 0 C1.67542976 0.28604898 3.34385343 0.61781233 5 1 C5 1.99 5 2.98 5 4 C3.68 4.33 2.36 4.66 1 5 C2.32 5.66 3.64 6.32 5 7 C3.33388095 7.042721 1.66617115 7.04063832 0 7 C-1 6 -1 6 -1.125 3.5 C-1 1 -1 1 0 0 Z " fill="#8B96A0" transform="translate(1117,854)"/>
<path d="M0 0 C1.65 0 3.3 0 5 0 C5 2.31 5 4.62 5 7 C3.35 7 1.7 7 0 7 C-0.33 6.01 -0.66 5.02 -1 4 C0.32 3.34 1.64 2.68 3 2 C2.01 2 1.02 2 0 2 C0 1.34 0 0.68 0 0 Z " fill="#8998A2" transform="translate(1189,854)"/>
<path d="M0 0 C2.475 0.495 2.475 0.495 5 1 C4.67 2.65 4.34 4.3 4 6 C3.01 6 2.02 6 1 6 C0.67 6.99 0.34 7.98 0 9 C0 6.03 0 3.06 0 0 Z " fill="#9CB0B5" transform="translate(1162,743)"/>
<path d="M0 0 C2.475 0.495 2.475 0.495 5 1 C4.67 2.65 4.34 4.3 4 6 C3.01 6 2.02 6 1 6 C0.67 6.99 0.34 7.98 0 9 C0 6.03 0 3.06 0 0 Z " fill="#9CB0B5" transform="translate(1128,743)"/>
<path d="M0 0 C1.65 0.33 3.3 0.66 5 1 C5 3.31 5 5.62 5 8 C4.34 7.34 3.68 6.68 3 6 C3.33 5.34 3.66 4.68 4 4 C3.01 4.66 2.02 5.32 1 6 C1.33 6.66 1.66 7.32 2 8 C1.01 8 0.02 8 -1 8 C-0.835 7.236875 -0.67 6.47375 -0.5 5.6875 C0.09145396 2.96403764 0.09145396 2.96403764 0 0 Z " fill="#218D6D" transform="translate(1167,693)"/>
<path d="M0 0 C0.99 0.33 1.98 0.66 3 1 C2.01 1.495 2.01 1.495 1 2 C2.32 2 3.64 2 5 2 C5 2.66 5 3.32 5 4 C3.35 4 1.7 4 0 4 C0 4.66 0 5.32 0 6 C1.65 6 3.3 6 5 6 C5 6.66 5 7.32 5 8 C2.625 8.125 2.625 8.125 0 8 C-0.66 7.34 -1.32 6.68 -2 6 C-1.44444444 1.44444444 -1.44444444 1.44444444 0 0 Z " fill="#238E6E" transform="translate(1268,693)"/>
<path d="M0 0 C1.98 0.495 1.98 0.495 4 1 C4 2.65 4 4.3 4 6 C2.68 6.33 1.36 6.66 0 7 C-1.125 2.25 -1.125 2.25 0 0 Z " fill="#E5F2F0" transform="translate(1191,509)"/>
<path d="M0 0 C0.66 0 1.32 0 2 0 C2 4.62 2 9.24 2 14 C1.01 13.67 0.02 13.34 -1 13 C-0.67 8.71 -0.34 4.42 0 0 Z " fill="#79858F" transform="translate(1150,503)"/>
<path d="M0 0 C1.67542976 0.28604898 3.34385343 0.61781233 5 1 C5 1.99 5 2.98 5 4 C3.68 4.33 2.36 4.66 1 5 C1.99 5.66 2.98 6.32 4 7 C2.35 6.67 0.7 6.34 -1 6 C-1.042721 4.33388095 -1.04063832 2.66617115 -1 1 C-0.67 0.67 -0.34 0.34 0 0 Z " fill="#8595A0" transform="translate(1252,854)"/>
<path d="M0 0 C1.32 0 2.64 0 4 0 C4.33 1.32 4.66 2.64 5 4 C3.68 4.33 2.36 4.66 1 5 C1.99 5.66 2.98 6.32 4 7 C2.35 6.67 0.7 6.34 -1 6 C-1.042721 4.33388095 -1.04063832 2.66617115 -1 1 C-0.67 0.67 -0.34 0.34 0 0 Z " fill="#778992" transform="translate(1189,722)"/>
<path d="M0 0 C0.66 0 1.32 0 2 0 C2 0.99 2 1.98 2 3 C2.66 3.33 3.32 3.66 4 4 C3.34 4 2.68 4 2 4 C2 6.31 2 8.62 2 11 C2.66 11.33 3.32 11.66 4 12 C2.68 11.67 1.36 11.34 0 11 C-1.125 3.375 -1.125 3.375 0 0 Z " fill="#78848E" transform="translate(1245,505)"/>
<path d="M0 0 C0.66 0 1.32 0 2 0 C2 3.96 2 7.92 2 12 C1.01 11.67 0.02 11.34 -1 11 C-0.67 7.37 -0.34 3.74 0 0 Z " fill="#228E6E" transform="translate(1221,689)"/>
<path d="M0 0 C1.32 0 2.64 0 4 0 C4 2.31 4 4.62 4 7 C2.35 7 0.7 7 -1 7 C-0.67 5.68 -0.34 4.36 0 3 C0.99 3 1.98 3 3 3 C3 2.34 3 1.68 3 1 C2.01 0.67 1.02 0.34 0 0 Z " fill="#758790" transform="translate(1230,722)"/>
<path d="M0 0 C2.31 0 4.62 0 7 0 C7.66 1.98 8.32 3.96 9 6 C8.34 6 7.68 6 7 6 C6.67 5.01 6.34 4.02 6 3 C4.35 2.67 2.7 2.34 1 2 C0.67 3.32 0.34 4.64 0 6 C-0.66 6 -1.32 6 -2 6 C-1.34 4.02 -0.68 2.04 0 0 Z " fill="#67737F" transform="translate(1282,511)"/>
<path d="M0 0 C2.31 0 4.62 0 7 0 C7.66 1.98 8.32 3.96 9 6 C8.34 6 7.68 6 7 6 C6.67 5.01 6.34 4.02 6 3 C4.35 2.67 2.7 2.34 1 2 C0.67 3.32 0.34 4.64 0 6 C-0.66 6 -1.32 6 -2 6 C-1.34 4.02 -0.68 2.04 0 0 Z " fill="#67737F" transform="translate(1063,511)"/>
<path d="M0 0 C2.475 0.495 2.475 0.495 5 1 C4.67 1.99 4.34 2.98 4 4 C3.34 4 2.68 4 2 4 C2 4.99 2 5.98 2 7 C1.34 7 0.68 7 0 7 C0 4.69 0 2.38 0 0 Z " fill="#ADBDC2" transform="translate(1124,854)"/>
<path d="M0 0 C0.66 0 1.32 0 2 0 C2 2.97 2 5.94 2 9 C1.34 9 0.68 9 0 9 C-1.125 6.75 -1.125 6.75 -2 4 C-1.125 1.6875 -1.125 1.6875 0 0 Z " fill="#9AADB4" transform="translate(1268,743)"/>
<path d="M0 0 C1.32 0.33 2.64 0.66 4 1 C3.67 2.65 3.34 4.3 3 6 C2.01 6 1.02 6 0 6 C0 4.02 0 2.04 0 0 Z " fill="#EAF7F4" transform="translate(1088,505)"/>
<path d="M0 0 C1.32 0 2.64 0 4 0 C4 0.66 4 1.32 4 2 C3.01 2.33 2.02 2.66 1 3 C0.67 3.99 0.34 4.98 0 6 C0.99 6.33 1.98 6.66 3 7 C1.68 7 0.36 7 -1 7 C-1.625 4.625 -1.625 4.625 -2 2 C-1.34 1.34 -0.68 0.68 0 0 Z " fill="#82969C" transform="translate(1118,722)"/>
<path d="M0 0 C0.66 0 1.32 0 2 0 C3.06546953 3.1964086 3.07427838 5.65747276 3 9 C2.01 8.67 1.02 8.34 0 8 C-1.125 2.25 -1.125 2.25 0 0 Z " fill="#778992" transform="translate(1134,720)"/>
<path d="M0 0 C0.99 0 1.98 0 3 0 C3 1.65 3 3.3 3 5 C1.68 5 0.36 5 -1 5 C-0.67 3.35 -0.34 1.7 0 0 Z " fill="#BBD8D8" transform="translate(1299,722)"/>
<path d="M0 0 C2.0625 0.4375 2.0625 0.4375 4 1 C4 1.99 4 2.98 4 4 C2.68 4.33 1.36 4.66 0 5 C-0.5625 3.0625 -0.5625 3.0625 -1 1 C-0.67 0.67 -0.34 0.34 0 0 Z " fill="#C4E6E8" transform="translate(1260,855)"/>
<path d="M0 0 C0.99 0.33 1.98 0.66 3 1 C2.67 3.64 2.34 6.28 2 9 C1.34 9 0.68 9 0 9 C0 6.03 0 3.06 0 0 Z " fill="#838F98" transform="translate(1234,508)"/>
<path d="M0 0 C0.66 0 1.32 0 2 0 C2 2.97 2 5.94 2 9 C1.01 8.67 0.02 8.34 -1 8 C-0.67 5.36 -0.34 2.72 0 0 Z " fill="#75818C" transform="translate(1224,508)"/>
<path d="M0 0 C0.99 0 1.98 0 3 0 C3 1.65 3 3.3 3 5 C1.68 4.67 0.36 4.34 -1 4 C-0.67 2.68 -0.34 1.36 0 0 Z " fill="#C3E4E6" transform="translate(1294,855)"/>
<path d="M0 0 C1.32 0.33 2.64 0.66 4 1 C3.67 2.32 3.34 3.64 3 5 C2.01 5 1.02 5 0 5 C0 3.35 0 1.7 0 0 Z " fill="#C3E4E6" transform="translate(1282,855)"/>
<path d="M0 0 C1.32 0.33 2.64 0.66 4 1 C3.67 2.32 3.34 3.64 3 5 C2.01 5 1.02 5 0 5 C0 3.35 0 1.7 0 0 Z " fill="#C9E2E4" transform="translate(1175,855)"/>
<path d="M0 0 C1.32 0.33 2.64 0.66 4 1 C3.67 2.32 3.34 3.64 3 5 C2.01 5 1.02 5 0 5 C0 3.35 0 1.7 0 0 Z " fill="#CEE2E3" transform="translate(1137,855)"/>
<path d="M0 0 C1.32 0.33 2.64 0.66 4 1 C3.67 2.32 3.34 3.64 3 5 C2.01 5 1.02 5 0 5 C0 3.35 0 1.7 0 0 Z " fill="#CDEDEA" transform="translate(1290,723)"/>
<path d="M0 0 C0.99 0 1.98 0 3 0 C3 1.65 3 3.3 3 5 C1.68 4.67 0.36 4.34 -1 4 C-0.67 2.68 -0.34 1.36 0 0 Z " fill="#CAEAE7" transform="translate(1265,723)"/>
<path d="M0 0 C0.99 0 1.98 0 3 0 C3 1.65 3 3.3 3 5 C1.68 4.67 0.36 4.34 -1 4 C-0.67 2.68 -0.34 1.36 0 0 Z " fill="#CAEAE6" transform="translate(1238,723)"/>
<path d="M0 0 C1.32 0.33 2.64 0.66 4 1 C3.67 2.32 3.34 3.64 3 5 C2.01 5 1.02 5 0 5 C0 3.35 0 1.7 0 0 Z " fill="#CDEDE7" transform="translate(1140,723)"/>
<path d="M0 0 C0.99 0.33 1.98 0.66 3 1 C2.67 2.32 2.34 3.64 2 5 C0.68 4.67 -0.64 4.34 -2 4 C-2 3.01 -2 2.02 -2 1 C-1.34 0.67 -0.68 0.34 0 0 Z " fill="#56AD94" transform="translate(1250,696)"/>
<path d="M0 0 C1.32 0 2.64 0 4 0 C3.67 1.65 3.34 3.3 3 5 C2.01 4.67 1.02 4.34 0 4 C0 2.68 0 1.36 0 0 Z " fill="#C2EDE3" transform="translate(1198,695)"/>
<path d="M0 0 C0.33 0.99 0.66 1.98 1 3 C1.66 3.33 2.32 3.66 3 4 C2.34 4 1.68 4 1 4 C1 6.31 1 8.62 1 11 C1.66 11.33 2.32 11.66 3 12 C2.01 12 1.02 12 0 12 C0 9.36 0 6.72 0 4 C-0.66 3.67 -1.32 3.34 -2 3 C-1.34 3 -0.68 3 0 3 C0 2.01 0 1.02 0 0 Z " fill="#5B6774" transform="translate(1229,505)"/>
<path d="M0 0 C1.65 0 3.3 0 5 0 C5.33 0.66 5.66 1.32 6 2 C2.535 3.485 2.535 3.485 -1 5 C-0.67 3.35 -0.34 1.7 0 0 Z " fill="#CBE6E7" transform="translate(1187,855)"/>
<path d="M0 0 C1.64350079 3.28700157 2.41321669 5.47930015 3 9 C2.01 9.33 1.02 9.66 0 10 C0 6.7 0 3.4 0 0 Z " fill="#C5DFE1" transform="translate(1180,851)"/>
<path d="M0 0 C0.99 0 1.98 0 3 0 C2.67 1.65 2.34 3.3 2 5 C1.01 4.67 0.02 4.34 -1 4 C-0.67 2.68 -0.34 1.36 0 0 Z " fill="#CEE5E6" transform="translate(1150,855)"/>
<path d="M0 0 C2.0625 1.6875 2.0625 1.6875 4 4 C3.75 6.75 3.75 6.75 3 9 C2.34 8.67 1.68 8.34 1 8 C0.40644386 5.35139573 0.25790731 2.70802678 0 0 Z " fill="#8D9EA6" transform="translate(1182,743)"/>
<path d="M0 0 C0.99 0.33 1.98 0.66 3 1 C2.67 2.32 2.34 3.64 2 5 C1.01 5 0.02 5 -1 5 C-0.67 3.35 -0.34 1.7 0 0 Z " fill="#CEEEE9" transform="translate(1153,723)"/>
<path d="M0 0 C-3 2 -3 2 -5 2 C-5.66 3.32 -6.32 4.64 -7 6 C-7 4.02 -7 2.04 -7 0 C-4.3333581 -1.33332095 -2.83319697 -0.67102033 0 0 Z " fill="#B3E4D9" transform="translate(1253,695)"/>
<path d="M0 0 C0.33 0 0.66 0 1 0 C1.1546875 1.8871875 1.1546875 1.8871875 1.3125 3.8125 C1.64858808 6.60499657 1.80025876 7.74433121 3.5625 10 C4.036875 10.33 4.51125 10.66 5 11 C3.35 10.67 1.7 10.34 0 10 C0 6.7 0 3.4 0 0 Z " fill="#108360" transform="translate(1132,690)"/>
</svg>
