<?xml version="1.0" encoding="UTF-8"?>
<svg version="1.1" xmlns="http://www.w3.org/2000/svg" width="314" height="314">
<path d="M0 0 C3.65620434 1.23481765 7.20669316 2.61787619 10.73413086 4.17626953 C11.4621843 4.49119354 12.19023773 4.80611755 12.94035339 5.13058472 C15.26371995 6.13693631 17.58301954 7.15227171 19.90209961 8.16845703 C22.92834229 9.48610181 25.95622179 10.79995967 28.98413086 12.11376953 C29.72929962 12.43823059 30.47446838 12.76269165 31.24221802 13.09698486 C37.41885457 15.77785977 43.63710041 18.35031535 49.88227844 20.86721802 C54.98459687 22.93845429 54.98459687 22.93845429 56.08959961 24.04345703 C56.04834961 25.11595703 56.00709961 26.18845703 55.96459961 27.29345703 C56.33584961 28.53095703 56.70709961 29.76845703 57.08959961 31.04345703 C60.71959961 32.69345703 64.34959961 34.34345703 68.08959961 36.04345703 C68.08959961 86.20345703 68.08959961 136.36345703 68.08959961 188.04345703 C56.82636984 193.67507192 56.82636984 193.67507192 52.90283203 195.37109375 C52.01879196 195.75433807 51.13475189 196.1375824 50.22392273 196.53244019 C49.30690079 196.92537262 48.38987885 197.31830505 47.44506836 197.72314453 C46.47225418 198.14016632 45.49944 198.55718811 44.49714661 198.98684692 C42.4601793 199.85756925 40.4223826 200.72635366 38.38378906 201.59326172 C36.30120398 202.48161314 34.22113712 203.37588994 32.14355469 204.27587891 C29.12438869 205.5836701 26.09831745 206.87405019 23.07006836 208.16064453 C21.67935371 208.76826126 21.67935371 208.76826126 20.26054382 209.38815308 C18.95812492 209.93465012 18.95812492 209.93465012 17.62939453 210.4921875 C16.87123947 210.81686005 16.11308441 211.14153259 15.33195496 211.4760437 C12.57433814 212.17384057 10.80024342 211.83827624 8.08959961 211.04345703 C6.27197266 209.6640625 6.27197266 209.6640625 4.60131836 207.91064453 C3.97676758 207.26869141 3.3522168 206.62673828 2.70874023 205.96533203 C2.07129883 205.28986328 1.43385742 204.61439453 0.77709961 203.91845703 C-0.48717317 202.60080095 -1.75410521 201.28569125 -3.02368164 199.97314453 C-3.57838135 199.38774902 -4.13308105 198.80235352 -4.70458984 198.19921875 C-6.5999015 196.34691084 -8.53556217 194.62727995 -10.54394531 192.90112305 C-15.47330077 188.61867293 -20.05885275 184.02042123 -24.66040039 179.39111328 C-25.55911865 178.49098007 -26.45783691 177.59084686 -27.38378906 176.66343689 C-29.74626614 174.2963444 -32.10655151 171.92711064 -34.46575928 169.5567627 C-36.8842522 167.12794961 -39.30565986 164.702046 -41.72680664 162.27587891 C-46.45732993 157.53438334 -51.18498012 152.79003805 -55.91040039 148.04345703 C-57.02423096 148.6728418 -58.13806152 149.30222656 -59.28564453 149.95068359 C-59.91217422 150.30471252 -60.53870392 150.65874146 -61.18421936 151.02349854 C-63.06136067 152.1326558 -64.71001055 153.35530986 -66.34790039 154.79345703 C-67.19352539 155.53595703 -68.03915039 156.27845703 -68.91040039 157.04345703 C-68.69891357 157.62611328 -68.48742676 158.20876953 -68.26953125 158.80908203 C-65.97761508 165.65455867 -65.42272378 171.85451675 -65.47290039 179.04345703 C-65.45291992 180.05923828 -65.43293945 181.07501953 -65.41235352 182.12158203 C-65.41941293 193.1342638 -69.08703748 202.22009412 -76.91040039 210.04345703 C-86.95400495 218.08771263 -98.10788733 221.44448676 -110.91040039 220.04345703 C-122.47950113 217.84047857 -131.8784971 212.60566863 -138.91040039 203.04345703 C-141.60639652 198.86692586 -143.42024899 194.77687913 -144.91040039 190.04345703 C-145.8965332 190.36314453 -146.88266602 190.68283203 -147.89868164 191.01220703 C-156.83098066 193.54313727 -167.08230902 193.46620309 -175.53540039 189.54345703 C-183.64572471 184.77725274 -188.38392537 178.94044379 -191.25024414 169.96923828 C-193.25043977 161.10446592 -192.46813431 152.95952121 -187.91040039 145.04345703 C-183.46279126 138.95170803 -178.26026447 133.36446674 -170.91040039 131.04345703 C-169.92040039 131.04345703 -168.93040039 131.04345703 -167.91040039 131.04345703 C-167.99290039 129.82658203 -168.07540039 128.60970703 -168.16040039 127.35595703 C-168.12388502 115.76232676 -163.11113567 105.77760106 -155.47290039 97.35595703 C-154.62727539 96.59283203 -153.78165039 95.82970703 -152.91040039 95.04345703 C-152.1949707 94.32222656 -152.1949707 94.32222656 -151.46508789 93.58642578 C-143.50142975 85.98824953 -133.45417278 83.77171271 -122.91040039 82.04345703 C-123.75860352 81.20572754 -124.60680664 80.36799805 -125.48071289 79.50488281 C-128.61659636 76.40511067 -131.74592877 73.29879677 -134.87329102 70.19042969 C-136.22957482 68.84422374 -137.58764542 67.49981554 -138.94750977 66.15722656 C-140.8981664 64.23073987 -142.84237433 62.2979482 -144.78540039 60.36376953 C-145.39786621 59.76162628 -146.01033203 59.15948303 -146.64135742 58.53909302 C-148.10282224 57.07802202 -149.5121939 55.5651753 -150.91040039 54.04345703 C-150.91040039 53.38345703 -150.91040039 52.72345703 -150.91040039 52.04345703 C-145.16431723 50.06387408 -139.4168156 48.08848602 -133.66796875 46.11694336 C-131.71314744 45.44589014 -129.75871621 44.77369947 -127.8046875 44.1003418 C-124.99329176 43.13175771 -122.18051102 42.1672949 -119.36743164 41.20361328 C-118.49641312 40.90254166 -117.62539459 40.60147003 -116.72798157 40.29127502 C-107.96356232 37.29797581 -107.96356232 37.29797581 -104.91040039 37.04345703 C-102.47481894 38.64161564 -100.4576262 40.20040356 -98.28540039 42.10595703 C-96.96649962 43.20946909 -95.64474029 44.30957114 -94.32055664 45.40673828 C-93.61560059 45.99406738 -92.91064453 46.58139648 -92.18432617 47.18652344 C-88.11882858 50.50649066 -83.92999465 53.65610674 -79.72290039 56.79345703 C-78.90934082 57.41357666 -78.09578125 58.03369629 -77.25756836 58.67260742 C-76.48944824 59.24358154 -75.72132813 59.81455566 -74.92993164 60.40283203 C-73.91056519 61.16805176 -73.91056519 61.16805176 -72.87060547 61.94873047 C-70.70254839 63.36851691 -70.70254839 63.36851691 -66.91040039 63.04345703 C-64.60469347 61.07577232 -62.54925022 59.12230147 -60.45727539 56.94580078 C-59.83822327 56.31871719 -59.21917114 55.69163361 -58.58135986 55.04554749 C-56.59806484 53.03322947 -54.62881084 51.00782798 -52.66040039 48.98095703 C-50.07605755 46.34009965 -47.48624517 43.70466305 -44.89477539 41.07080078 C-44.26868378 40.43266449 -43.64259216 39.7945282 -42.99752808 39.13705444 C-39.47154452 35.56086049 -35.8668228 32.19280741 -32.02563477 28.95581055 C-29.02382072 26.24191288 -26.24249518 23.33010593 -23.43383789 20.41845703 C-22.25681975 19.20615415 -21.07973561 17.99391534 -19.90258789 16.78173828 C-18.0791141 14.90242369 -16.26177093 13.01855765 -14.45922852 11.11914062 C-12.69589952 9.26517766 -10.91121173 7.43425668 -9.12133789 5.60595703 C-8.31954605 4.74526611 -8.31954605 4.74526611 -7.5015564 3.8671875 C-5.00069425 1.34805873 -3.62281025 0.05409447 0 0 Z M-3.26977539 88.57080078 C-3.9678833 89.11196533 -4.66599121 89.65312988 -5.38525391 90.21069336 C-6.13605225 90.79488037 -6.88685059 91.37906738 -7.66040039 91.98095703 C-14.91926032 97.58794376 -22.30128622 102.92219236 -29.91040039 108.04345703 C-27.29837255 110.75199472 -24.64652915 113.10181669 -21.60961914 115.32080078 C-20.79686523 115.91699219 -19.98411133 116.51318359 -19.14672852 117.12744141 C-18.30561523 117.73910156 -17.46450195 118.35076172 -16.59790039 118.98095703 C-15.76838867 119.58875 -14.93887695 120.19654297 -14.08422852 120.82275391 C-11.69734327 122.56911746 -9.30484206 124.30747406 -6.91040039 126.04345703 C-5.8558667 126.81326904 -5.8558667 126.81326904 -4.7800293 127.59863281 C-2.08762545 129.96437082 -2.08762545 129.96437082 1.08959961 131.04345703 C1.08959961 116.19345703 1.08959961 101.34345703 1.08959961 86.04345703 C-0.69436587 86.04345703 -1.90922408 87.50859442 -3.26977539 88.57080078 Z " fill="#07344B" transform="translate(213.910400390625,50.95654296875)"/>
<path d="M0 0 C13.80874932 5.31105743 27.4013467 11.17200573 41 17 C41 61.22 41 105.44 41 151 C2.48 168.12 2.48 168.12 -2 167 C-4.22669487 165.02260472 -6.28990926 163.03696329 -8.35742188 160.90380859 C-8.9855629 160.26807419 -9.61370392 159.63233978 -10.26087952 158.9773407 C-11.62333197 157.59678056 -12.98237333 156.21284766 -14.33839417 154.8259697 C-16.48279942 152.63407696 -18.63721716 150.45250806 -20.7947998 148.27359009 C-26.92697988 142.07713282 -33.04067794 135.86258445 -39.14697266 129.640625 C-42.88230105 125.83596589 -46.62959331 122.04343235 -50.38441467 118.25801468 C-51.81500174 116.81060719 -53.24075242 115.35840341 -54.66160583 113.90143967 C-56.64412845 111.86874352 -58.64134857 109.85165846 -60.64257812 107.83740234 C-61.22971085 107.22758011 -61.81684357 106.61775787 -62.42176819 105.98945618 C-64.21646645 104.14403991 -64.21646645 104.14403991 -67 102 C-70.53583726 102.46012134 -72.63440665 104.00804697 -75.421875 106.17578125 C-76.27499268 106.83392822 -77.12811035 107.4920752 -78.00708008 108.17016602 C-78.91224365 108.87713623 -79.81740723 109.58410645 -80.75 110.3125 C-81.68287842 111.02784912 -82.61575684 111.74319824 -83.5769043 112.48022461 C-87.98024072 115.8584616 -92.34990843 119.26935776 -96.66015625 122.765625 C-97.36624023 123.32596436 -98.07232422 123.88630371 -98.79980469 124.46362305 C-100.10584603 125.50113697 -101.39799273 126.55648068 -102.67285156 127.63208008 C-105.87116161 130.1472262 -107.941194 131.36392319 -112.07421875 130.9375 C-115.49261902 130.23992636 -118.7461124 129.19838145 -122 127.9375 C-122.94875 127.57527344 -123.8975 127.21304688 -124.875 126.83984375 C-125.926875 126.42412109 -125.926875 126.42412109 -127 126 C-122.02639952 119.99906565 -116.64642579 114.49681319 -111.125 109 C-110.26519531 108.13632813 -109.40539062 107.27265625 -108.51953125 106.3828125 C-103.50822785 101.37911351 -98.3787847 96.60381754 -93 92 C-90.78523246 90.0758277 -88.93476317 88.23241904 -87 86 C-87.23221383 82.34391168 -89.0759597 80.55845574 -91.60180664 78.05761719 C-92.36251968 77.29713074 -93.12323273 76.53664429 -93.90699768 75.75311279 C-95.14606117 74.53727509 -95.14606117 74.53727509 -96.41015625 73.296875 C-97.25219101 72.45908508 -98.09422577 71.62129517 -98.96177673 70.75811768 C-101.65506683 68.08163168 -104.3585966 65.41575944 -107.0625 62.75 C-108.88935548 60.93818902 -110.71553605 59.12569726 -112.54101562 57.3125 C-117.01953977 52.8670682 -121.50651745 48.43030839 -126 44 C-125.67 43.01 -125.34 42.02 -125 41 C-122.48828125 39.796875 -122.48828125 39.796875 -119.3125 38.75 C-118.27738281 38.39421875 -117.24226563 38.0384375 -116.17578125 37.671875 C-111.86814997 36.76054341 -108.9565083 36.75722386 -105.14819336 39.17626953 C-102.98311164 40.78814345 -100.89610905 42.47164051 -98.8125 44.1875 C-97.22557109 45.4564466 -95.63697072 46.72330517 -94.046875 47.98828125 C-92.81420898 48.97368896 -92.81420898 48.97368896 -91.55664062 49.97900391 C-87.28382224 53.35661951 -82.93306073 56.62537638 -78.5625 59.875 C-77.75208252 60.48754639 -76.94166504 61.10009277 -76.10668945 61.73120117 C-75.350896 62.29170166 -74.59510254 62.85220215 -73.81640625 63.4296875 C-72.81782593 64.17581299 -72.81782593 64.17581299 -71.79907227 64.93701172 C-69.91779999 66.25434694 -69.91779999 66.25434694 -67 66 C-64.57908654 64.01294562 -64.57908654 64.01294562 -62.01293945 61.33764648 C-61.51816605 60.84170486 -61.02339264 60.34576324 -60.5136261 59.83479309 C-58.87311813 58.18707654 -57.24338928 56.5290944 -55.61328125 54.87109375 C-54.47161162 53.72128453 -53.32920036 52.57221125 -52.18608093 51.42384338 C-49.16926375 48.38987245 -46.16110133 45.34746893 -43.15509033 42.30279541 C-38.36387865 37.45254465 -33.56024369 32.6146104 -28.75566673 27.77760506 C-27.08683004 26.09494122 -25.42195544 24.40843722 -23.75764465 22.72129822 C-18.8362277 17.74586759 -13.89223867 12.85641789 -8.5521698 8.3236084 C-6.6039159 6.6622404 -4.79118894 4.89100538 -3 3.0625 C-2.01 2.051875 -1.02 1.04125 0 0 Z M-4.359375 75.52734375 C-5.05748291 76.0685083 -5.75559082 76.60967285 -6.47485352 77.16723633 C-7.22565186 77.75142334 -7.9764502 78.33561035 -8.75 78.9375 C-16.00885993 84.54448673 -23.39088583 89.87873533 -31 95 C-28.38797216 97.70853768 -25.73612876 100.05835966 -22.69921875 102.27734375 C-21.88646484 102.87353516 -21.07371094 103.46972656 -20.23632812 104.08398438 C-19.39521484 104.69564453 -18.55410156 105.30730469 -17.6875 105.9375 C-16.85798828 106.54529297 -16.02847656 107.15308594 -15.17382812 107.77929688 C-12.78694288 109.52566043 -10.39444167 111.26401703 -8 113 C-6.94546631 113.76981201 -6.94546631 113.76981201 -5.86962891 114.55517578 C-3.17722506 116.92091379 -3.17722506 116.92091379 0 118 C0 103.15 0 88.3 0 73 C-1.78396548 73 -2.99882369 74.46513739 -4.359375 75.52734375 Z " fill="#0079CB" transform="translate(215,64)"/>
<path d="M0 0 C11 4 11 4 12 5 C12.09666937 6.96161604 12.12187097 8.92676645 12.12025452 10.89076233 C12.12231651 12.81125145 12.12231651 12.81125145 12.12442017 14.77053833 C12.12088055 16.20257591 12.11724573 17.63461326 12.11352539 19.06665039 C12.11324353 20.56431578 12.11340124 22.0619813 12.1139679 23.55964661 C12.11425591 27.63798172 12.10835864 31.71628767 12.10139394 35.79461598 C12.09516095 40.05207628 12.09455665 44.30953718 12.09336853 48.56700134 C12.09025505 56.63473187 12.08204144 64.70244891 12.07201904 72.77017349 C12.06085842 81.95260779 12.05534758 91.13504272 12.05032361 100.31748211 C12.03985884 119.2116624 12.02225907 138.10583012 12 157 C1.4617118 162.31824547 1.4617118 162.31824547 -3.18676758 164.32763672 C-4.07080765 164.71088104 -4.95484772 165.09412537 -5.86567688 165.48898315 C-6.78269882 165.88191559 -7.69972076 166.27484802 -8.64453125 166.6796875 C-9.61734543 167.09670929 -10.59015961 167.51373108 -11.592453 167.94338989 C-13.62942031 168.81411222 -15.66721701 169.68289663 -17.70581055 170.54980469 C-19.78839563 171.43815611 -21.86846249 172.33243291 -23.94604492 173.23242188 C-26.96521092 174.54021307 -29.99128216 175.83059316 -33.01953125 177.1171875 C-34.4102459 177.72480423 -34.4102459 177.72480423 -35.82905579 178.34469604 C-36.69733505 178.7090274 -37.56561432 179.07335876 -38.46020508 179.44873047 C-39.21836014 179.77340302 -39.9765152 180.09807556 -40.75764465 180.43258667 C-43.54453526 181.13779108 -45.26776542 180.84801509 -48 180 C-50.67578125 177.71484375 -50.67578125 177.71484375 -53.3125 174.9375 C-54.63701172 173.55884766 -54.63701172 173.55884766 -55.98828125 172.15234375 C-56.98408203 171.08693359 -56.98408203 171.08693359 -58 170 C-54.21799824 166.72438035 -49.84492345 165.06788173 -45.28125 163.1640625 C-44.42752808 162.80283295 -43.57380615 162.44160339 -42.69421387 162.06942749 C-39.96496613 160.9160924 -37.23255476 159.77047461 -34.5 158.625 C-32.692497 157.86247992 -30.8852031 157.09946398 -29.078125 156.3359375 C-24.80750233 154.53293118 -20.53307638 152.73916566 -16.25732422 150.94836426 C-14.20680515 150.08688456 -12.15937783 149.2185989 -10.11328125 148.34667969 C-9.03433594 147.88938477 -7.95539063 147.43208984 -6.84375 146.9609375 C-5.48540039 146.38158447 -5.48540039 146.38158447 -4.09960938 145.79052734 C-2 145 -2 145 0 145 C0 97.15 0 49.3 0 0 Z " fill="#020E15" transform="translate(270,82)"/>
<path d="M0 0 C2.8519296 1.64131459 4.88794354 3.79809674 7.1640625 6.1640625 C8.05609375 7.08316406 8.948125 8.00226563 9.8671875 8.94921875 C10.54265625 9.65949219 11.218125 10.36976563 11.9140625 11.1015625 C8.95908315 14.13934338 6.02686043 16.91765892 2.6015625 19.4140625 C1.90417969 19.92582031 1.20679688 20.43757813 0.48828125 20.96484375 C-0.03121094 21.33996094 -0.55070312 21.71507812 -1.0859375 22.1015625 C-0.869375 22.76542969 -0.6528125 23.42929688 -0.4296875 24.11328125 C-0.15125 24.99628906 0.1271875 25.87929687 0.4140625 26.7890625 C0.6925 27.65917969 0.9709375 28.52929688 1.2578125 29.42578125 C1.91257055 32.09547927 2.03237745 34.36552934 1.9140625 37.1015625 C0.44754233 34.22136974 -0.90641624 31.30847735 -2.2109375 28.3515625 C-2.56414062 27.55234375 -2.91734375 26.753125 -3.28125 25.9296875 C-3.67957031 25.02476562 -3.67957031 25.02476562 -4.0859375 24.1015625 C-8.21907649 26.76305351 -12.26041531 29.42819538 -16.07421875 32.5390625 C-17.08871094 33.3640625 -18.10320312 34.1890625 -19.1484375 35.0390625 C-20.08816406 35.83183594 -21.02789062 36.62460938 -21.99609375 37.44140625 C-26.51319771 39.86842165 -30.50092613 38.81425382 -35.26405334 37.50105286 C-37.58544148 36.76187413 -39.88273138 35.97202405 -42.1796875 35.16015625 C-43.01181763 34.87302261 -43.84394775 34.58588898 -44.70129395 34.29005432 C-47.33212047 33.38039127 -49.95901512 32.45993135 -52.5859375 31.5390625 C-54.37995859 30.91659744 -56.17422727 30.29484551 -57.96875 29.67382812 C-62.3440515 28.15796893 -66.71586289 26.63242173 -71.0859375 25.1015625 C-69.4359375 23.1215625 -67.7859375 21.1415625 -66.0859375 19.1015625 C-59.02417509 20.46435876 -52.46059935 22.67283613 -45.734375 25.17578125 C-41.50896932 26.24796663 -39.27595406 26.32556077 -35.0859375 25.1015625 C-32.03860287 23.22728385 -29.33407328 21.01049828 -26.5859375 18.7265625 C-25.00110878 17.45564736 -23.41515221 16.1861375 -21.828125 14.91796875 C-21.03760742 14.28004395 -20.24708984 13.64211914 -19.43261719 12.98486328 C-15.90243957 10.15175985 -12.32673761 7.38674915 -8.7109375 4.6640625 C-8.09927734 4.18598145 -7.48761719 3.70790039 -6.85742188 3.21533203 C-2.74214323 0.13351259 -2.74214323 0.13351259 0 0 Z " fill="#020E15" transform="translate(146.0859375,185.8984375)"/>
<path d="M0 0 C0 3 0 3 -2.0625 5.1875 C-3.60187189 6.67876651 -5.15642645 8.14071397 -6.75 9.57421875 C-14.79772729 17.56991332 -16.35438449 28.7712317 -16.5 39.6875 C-16.32211056 51.95635567 -12.37630433 61.91289447 -4 71 C0.43392846 74.79871318 4.93592492 78.07387562 10.2734375 80.46875 C13 82 13 82 14.09375 83.91796875 C13.95690154 86.95714496 12.53702937 88.10702397 10.5 90.3125 C7.47702667 93.9320309 7.47702667 93.9320309 6.8125 98.5625 C9.52065288 106.40188992 12.98509184 112.98881888 19.75 118.0625 C22.38080547 120.32791582 22.71700909 121.60410902 23 125 C14.3248209 122.19332441 9.52280632 115.54943177 5 108 C3.78664738 105.34685923 2.87823666 102.7896929 2 100 C1.01386719 100.3196875 0.02773437 100.639375 -0.98828125 100.96875 C-9.92058027 103.49968024 -20.17190863 103.42274606 -28.625 99.5 C-36.73532431 94.73379571 -41.47352498 88.89698676 -44.33984375 79.92578125 C-46.34003938 71.06100889 -45.55773392 62.91606418 -41 55 C-36.55239087 48.908251 -31.34986408 43.32100971 -24 41 C-23.01 41 -22.02 41 -21 41 C-21.12375 39.1746875 -21.12375 39.1746875 -21.25 37.3125 C-21.21336225 25.68001415 -16.17082242 15.68790466 -8.5 7.25 C-5.724464 4.7520176 -2.89599182 2.35720264 0 0 Z M-33 51 C-38.80542283 57.72579474 -41.46357448 64.31833882 -41.23828125 73.1640625 C-40.48371289 82.14466294 -36.62028001 87.98156363 -30 94 C-23.38735543 99.41829026 -15.13202237 98.73036784 -7 98 C-0.26986454 96.65189891 4.47755326 92.94285453 8.875 87.8125 C10.17578762 86.07232928 10.17578762 86.07232928 10 84 C9.31035156 83.6596875 8.62070313 83.319375 7.91015625 82.96875 C-5.04984274 76.28430607 -13.60968685 67.84145713 -18.41015625 53.89453125 C-19.32925735 50.94245155 -20.19167488 47.98458505 -21 45 C-25.44414954 45 -29.56837801 48.42102028 -33 51 Z " fill="#014977" transform="translate(67,141)"/>
<path d="M0 0 C0.46313817 6.05927229 0.72258915 12.09826739 0.59375 18.17578125 C0.57505859 19.17778564 0.55636719 20.17979004 0.53710938 21.2121582 C-0.12896533 24.66938868 -1.40939236 26.21724082 -3.875 28.6875 C-5.90306033 29.81646328 -7.9475363 30.91603525 -10 32 C-13.15718753 34.24136759 -16.22451562 36.60200504 -19.3125 38.9375 C-20.84181434 40.08297834 -22.37922017 41.21776006 -23.92578125 42.33984375 C-24.59005127 42.82831787 -25.25432129 43.31679199 -25.9387207 43.82006836 C-28.35704353 45.20438131 -30.22232413 45.77004713 -33 46 C-35.49560046 44.43476407 -37.57946522 42.93705428 -39.8125 41.0625 C-40.40998047 40.58103516 -41.00746094 40.09957031 -41.62304688 39.60351562 C-43.09300067 38.41579296 -44.5480198 37.20962919 -46 36 C-44.88024077 32.64072231 -44.26397398 32.19085244 -41.484375 30.20703125 C-40.36397827 29.39649292 -40.36397827 29.39649292 -39.22094727 28.56958008 C-38.40553467 27.98974365 -37.59012207 27.40990723 -36.75 26.8125 C-35.0235377 25.56416053 -33.29832515 24.31409124 -31.57421875 23.0625 C-30.66720215 22.40507812 -29.76018555 21.74765625 -28.82568359 21.0703125 C-24.0212331 17.55020362 -19.2923242 13.93193378 -14.5625 10.3125 C-13.22300293 9.28829956 -13.22300293 9.28829956 -11.85644531 8.2434082 C-10.26384734 7.02538609 -8.67173069 5.80673411 -7.08032227 4.5871582 C-6.39381592 4.063396 -5.70730957 3.53963379 -5 3 C-3.90739868 2.15538208 -3.90739868 2.15538208 -2.79272461 1.29370117 C-1 0 -1 0 0 0 Z " fill="#020E15" transform="translate(215,113)"/>
<path d="M0 0 C1.32 0.33 2.64 0.66 4 1 C3.48308594 1.56847656 2.96617188 2.13695312 2.43359375 2.72265625 C-1.80529299 7.5192773 -1.80529299 7.5192773 -3.1875 13.5625 C-0.47934712 21.40188992 2.98509184 27.98881888 9.75 33.0625 C12.38080547 35.32791582 12.71700909 36.60410902 13 40 C4.3248209 37.19332441 -0.47719368 30.54943177 -5 23 C-6.21335262 20.34685923 -7.12176334 17.7896929 -8 15 C-8.97066406 15.32742187 -9.94132812 15.65484375 -10.94140625 15.9921875 C-15.3010926 17.23781217 -19.43375972 17.2253404 -23.9375 17.125 C-24.71673828 17.11597656 -25.49597656 17.10695312 -26.29882812 17.09765625 C-28.19935447 17.07433691 -30.09972008 17.03847586 -32 17 C-32.33 16.01 -32.66 15.02 -33 14 C-35.50447516 12.78130071 -35.50447516 12.78130071 -38 12 C-38 11.01 -38 10.02 -38 9 C-37.16210938 9.48726562 -36.32421875 9.97453125 -35.4609375 10.4765625 C-28.60229511 13.49560373 -19.46343054 13.21201214 -12.375 10.75 C-7.02068365 7.97368782 -3.60825033 4.81100044 0 0 Z " fill="#023C61" transform="translate(77,226)"/>
<path d="M0 0 C0.66 0 1.32 0 2 0 C1.76143563 3.8170299 0.42020584 5.95486187 -1.875 8.875 C-7.40923955 16.01895826 -8.85969288 22.08700762 -8 31 C-6.76893108 39.57351571 -0.90267706 46.02272355 5 52 C7.16003438 53.3376101 7.16003438 53.3376101 9 54 C9 54.66 9 55.32 9 56 C0.41812806 53.85453201 -5.28083645 48.62414797 -9.8125 41.2109375 C-13.74765425 33.88430163 -14.28124826 25.33214098 -12.34765625 17.28515625 C-9.78316929 10.14201446 -5.28177442 5.28177442 0 0 Z " fill="#0074C2" transform="translate(35,186)"/>
<path d="M0 0 C0 3 0 3 -2.0625 5.1875 C-3.60187189 6.67876651 -5.15642645 8.14071397 -6.75 9.57421875 C-14.46140234 17.23576288 -15.79267962 27.62596271 -16.4375 38.0625 C-16.83203125 41.234375 -16.83203125 41.234375 -18 44 C-22.06367361 46.88831795 -26.25435317 48.53620189 -31 50 C-29.3046875 44.234375 -29.3046875 44.234375 -26.5625 42.125 C-24 41 -24 41 -21 41 C-21.12375 39.1746875 -21.12375 39.1746875 -21.25 37.3125 C-21.21336225 25.68001415 -16.17082242 15.68790466 -8.5 7.25 C-5.724464 4.7520176 -2.89599182 2.35720264 0 0 Z " fill="#00568E" transform="translate(67,141)"/>
<path d="M0 0 C0 0.99 0 1.98 0 3 C-1.03898437 3.21914062 -2.07796875 3.43828125 -3.1484375 3.6640625 C-11.71244564 5.57197261 -18.7846501 7.78891396 -26 13 C-26.886875 13.5775 -27.77375 14.155 -28.6875 14.75 C-32.40877841 18.37070332 -35.14044198 22.68545276 -38 27 C-38.66 27.99 -39.32 28.98 -40 30 C-39.58560127 24.43324375 -38.40343888 21.57282546 -34.75 17.375 C-33.98171875 16.47523438 -33.2134375 15.57546875 -32.421875 14.6484375 C-22.94392752 4.28384332 -14.18281734 -0.68626535 0 0 Z " fill="#013B5F" transform="translate(93,134)"/>
<path d="M0 0 C0.94875 0.45375 1.8975 0.9075 2.875 1.375 C9.86394427 4.36015636 19.11182803 6.8075234 26.4296875 4.1015625 C28.65378987 3.12462034 30.83447534 2.09994903 33 1 C33.17015625 1.64066406 33.3403125 2.28132812 33.515625 2.94140625 C34.71885306 7.2359064 35.89477088 11.12660843 38.25 14.9375 C38.8275 15.948125 39.405 16.95875 40 18 C39.505 19.485 39.505 19.485 39 21 C35.23857955 16.12031942 32.94824969 11.84474908 31 6 C30.02933594 6.32742187 29.05867188 6.65484375 28.05859375 6.9921875 C23.6989074 8.23781217 19.56624028 8.2253404 15.0625 8.125 C14.28326172 8.11597656 13.50402344 8.10695312 12.70117188 8.09765625 C10.80064553 8.07433691 8.90027992 8.03847586 7 8 C6.67 7.01 6.34 6.02 6 5 C4.7625 4.505 4.7625 4.505 3.5 4 C2.2625 3.505 2.2625 3.505 1 3 C0.67 2.01 0.34 1.02 0 0 Z " fill="#004E83" transform="translate(38,235)"/>
<path d="M0 0 C0.495 1.485 0.495 1.485 1 3 C-8.51416155 10.03767658 -18.04048214 17.05832457 -27.625 24 C-28.33317871 24.51457764 -29.04135742 25.02915527 -29.77099609 25.55932617 C-34.76481963 29.16727871 -39.85339089 32.61395446 -45 36 C-43.88024077 32.64072231 -43.26397398 32.19085244 -40.484375 30.20703125 C-39.36397827 29.39649292 -39.36397827 29.39649292 -38.22094727 28.56958008 C-37.40553467 27.98974365 -36.59012207 27.40990723 -35.75 26.8125 C-34.0235377 25.56416053 -32.29832515 24.31409124 -30.57421875 23.0625 C-29.66720215 22.40507812 -28.76018555 21.74765625 -27.82568359 21.0703125 C-23.0212331 17.55020362 -18.2923242 13.93193378 -13.5625 10.3125 C-12.22300293 9.28829956 -12.22300293 9.28829956 -10.85644531 8.2434082 C-9.26384734 7.02538609 -7.67173069 5.80673411 -6.08032227 4.5871582 C-4.06166673 3.04704793 -2.03348841 1.52045366 0 0 Z " fill="#063C59" transform="translate(214,113)"/>
<path d="M0 0 C1.12387247 3.37161742 0.58427576 4.37881484 -0.453125 7.6171875 C-1.67920282 12.95938371 -1.71224967 18.54031611 -2 24 C-3.04800781 24.41572266 -3.04800781 24.41572266 -4.1171875 24.83984375 C-5.02726562 25.20207031 -5.93734375 25.56429687 -6.875 25.9375 C-7.77992187 26.29714844 -8.68484375 26.65679687 -9.6171875 27.02734375 C-11.96137667 27.94901262 -11.96137667 27.94901262 -14 29 C-13.10830923 25.35217412 -12.58920024 23.45323095 -9.5625 21.125 C-7 20 -7 20 -4 20 C-4.061875 18.72125 -4.12375 17.4425 -4.1875 16.125 C-4.20453304 10.75959227 -2.91133039 5.99124621 -1 1 C-0.67 0.67 -0.34 0.34 0 0 Z " fill="#0064A7" transform="translate(50,162)"/>
<path d="M0 0 C0.91154493 2.4870547 1.13959195 3.63440203 0.1796875 6.1484375 C-5.73648506 16.24489966 -12.02320516 22.7408808 -23.09765625 27.265625 C-25.96687049 27.9916173 -27.28373336 28.04471794 -30 27 C-29.23816406 26.72027344 -28.47632812 26.44054687 -27.69140625 26.15234375 C-16.52556621 21.81704256 -7.45589187 15.91178373 -1.96875 4.9375 C-1.26131154 3.31301169 -0.62213599 1.6590293 0 0 Z " fill="#00080E" transform="translate(146,242)"/>
<path d="M0 0 C-1 3 -1 3 -3.3125 4.375 C-6.36465951 6.2204918 -7.84846996 8.17611682 -10 11 C-10.78375 11.763125 -11.5675 12.52625 -12.375 13.3125 C-16.44905524 17.48355655 -19.77061738 22.15592606 -23 27 C-22.58560127 21.43324375 -21.40343888 18.57282546 -17.75 14.375 C-16.98171875 13.47523438 -16.2134375 12.57546875 -15.421875 11.6484375 C-4.7699115 0 -4.7699115 0 0 0 Z " fill="#014876" transform="translate(76,137)"/>
<path d="M0 0 C0.71285156 0.33773437 1.42570312 0.67546875 2.16015625 1.0234375 C7.38656437 3.45726954 12.39584643 5.6300958 18 7 C18 7.33 18 7.66 18 8 C14.37 8 10.74 8 7 8 C6.67 7.01 6.34 6.02 6 5 C4.7625 4.505 4.7625 4.505 3.5 4 C2.2625 3.505 2.2625 3.505 1 3 C0.67 2.01 0.34 1.02 0 0 Z " fill="#005F9E" transform="translate(38,235)"/>
<path d="M0 0 C0.66 0.66 1.32 1.32 2 2 C-4.89291386 6.01042261 -10.1001815 6.91510752 -18 5 C-18 4.67 -18 4.34 -18 4 C-16.55367187 3.81824219 -16.55367187 3.81824219 -15.078125 3.6328125 C-13.18320312 3.38144531 -13.18320312 3.38144531 -11.25 3.125 C-9.99703125 2.96257812 -8.7440625 2.80015625 -7.453125 2.6328125 C-4.51383592 2.0941645 -2.52892853 1.51991159 0 0 Z " fill="#024670" transform="translate(68,235)"/>
<path d="M0 0 C0.67095703 0.58007812 0.67095703 0.58007812 1.35546875 1.171875 C1.96003906 1.69265625 2.56460938 2.2134375 3.1875 2.75 C3.82171875 3.2965625 4.4559375 3.843125 5.109375 4.40625 C6.68220486 5.73210658 8.30440766 6.99912076 9.9375 8.25 C10.618125 8.8275 11.29875 9.405 12 10 C12 10.66 12 11.32 12 12 C7.48944378 10.5407024 4.38499661 8.30806487 1 5 C0.125 2.1875 0.125 2.1875 0 0 Z " fill="#003F69" transform="translate(78,254)"/>
<path d="M0 0 C0.66 0 1.32 0 2 0 C1 3 1 3 -1.14453125 4.203125 C-2.02496094 4.54859375 -2.90539062 4.8940625 -3.8125 5.25 C-4.68519531 5.60578125 -5.55789062 5.9615625 -6.45703125 6.328125 C-9.13641236 7.03604136 -10.43212123 6.9337741 -13 6 C-12.14535156 5.65066406 -11.29070312 5.30132812 -10.41015625 4.94140625 C-9.30542969 4.48636719 -8.20070313 4.03132813 -7.0625 3.5625 C-5.96035156 3.11003906 -4.85820313 2.65757812 -3.72265625 2.19140625 C-1.13431084 1.25575392 -1.13431084 1.25575392 0 0 Z " fill="#001828" transform="translate(129,263)"/>
<path d="M0 0 C1.1055189 0.93590504 2.20935453 1.87379858 3.3125 2.8125 C3.92738281 3.33457031 4.54226562 3.85664063 5.17578125 4.39453125 C8.51952278 7.3373102 8.51952278 7.3373102 10 9 C10 9.66 10 10.32 10 11 C6.16853404 9.43903239 3.71851946 7.08588695 1 4 C0.35546875 1.8359375 0.35546875 1.8359375 0 0 Z " fill="#023655" transform="translate(79,252)"/>
<path d="M0 0 C0.48210938 0.42152344 0.96421875 0.84304687 1.4609375 1.27734375 C2.09257813 1.82519531 2.72421875 2.37304688 3.375 2.9375 C4.00148438 3.48277344 4.62796875 4.02804688 5.2734375 4.58984375 C6.95632334 6.06958624 6.95632334 6.06958624 9 7 C9 7.66 9 8.32 9 9 C5.59687262 7.94124926 2.98646769 6.99097846 0 5 C-0.1875 2.375 -0.1875 2.375 0 0 Z " fill="#006AB1" transform="translate(35,233)"/>
<path d="M0 0 C0 3.44360632 -0.79591532 4.74795392 -2.5 7.6875 C-2.9640625 8.49574219 -3.428125 9.30398437 -3.90625 10.13671875 C-4.44765625 11.05904297 -4.44765625 11.05904297 -5 12 C-5.66 11.67 -6.32 11.34 -7 11 C-5.5140084 6.40693504 -3.14985318 3.56430755 0 0 Z " fill="#005C9A" transform="translate(57,151)"/>
<path d="M0 0 C0.59554687 0.35320312 1.19109375 0.70640625 1.8046875 1.0703125 C1.10601562 1.34746094 0.40734375 1.62460938 -0.3125 1.91015625 C-1.22257812 2.27238281 -2.13265625 2.63460937 -3.0703125 3.0078125 C-3.97523437 3.36746094 -4.88015625 3.72710937 -5.8125 4.09765625 C-8.15668917 5.01932512 -8.15668917 5.01932512 -10.1953125 6.0703125 C-9.11639409 2.94144912 -8.15472667 2.04384348 -5.3203125 0.1953125 C-2.1953125 -0.9296875 -2.1953125 -0.9296875 0 0 Z " fill="#015D9A" transform="translate(46.1953125,184.9296875)"/>
<path d="M0 0 C0.66 0 1.32 0 2 0 C0.66666667 3.33333333 -0.66666667 6.66666667 -2 10 C-2.33 10 -2.66 10 -3 10 C-2.25 3.375 -2.25 3.375 0 0 Z " fill="#014E80" transform="translate(56,154)"/>
</svg>
